G04 #@! TF.GenerationSoftware,KiCad,Pcbnew,5.1.4*
G04 #@! TF.CreationDate,2019-09-20T10:22:23+02:00*
G04 #@! TF.ProjectId,panel,70616e65-6c2e-46b6-9963-61645f706362,0.1*
G04 #@! TF.SameCoordinates,Original*
G04 #@! TF.FileFunction,Paste,Top*
G04 #@! TF.FilePolarity,Positive*
%FSLAX46Y46*%
G04 Gerber Fmt 4.6, Leading zero omitted, Abs format (unit mm)*
G04 Created by KiCad (PCBNEW 5.1.4) date 2019-09-20 10:22:23*
%MOMM*%
%LPD*%
G04 APERTURE LIST*
%ADD10C,0.100000*%
%ADD11C,0.875000*%
%ADD12R,1.300000X1.550000*%
%ADD13R,0.400000X2.000000*%
G04 APERTURE END LIST*
D10*
G36*
X144777691Y-173076053D02*
G01*
X144798926Y-173079203D01*
X144819750Y-173084419D01*
X144839962Y-173091651D01*
X144859368Y-173100830D01*
X144877781Y-173111866D01*
X144895024Y-173124654D01*
X144910930Y-173139070D01*
X144925346Y-173154976D01*
X144938134Y-173172219D01*
X144949170Y-173190632D01*
X144958349Y-173210038D01*
X144965581Y-173230250D01*
X144970797Y-173251074D01*
X144973947Y-173272309D01*
X144975000Y-173293750D01*
X144975000Y-173731250D01*
X144973947Y-173752691D01*
X144970797Y-173773926D01*
X144965581Y-173794750D01*
X144958349Y-173814962D01*
X144949170Y-173834368D01*
X144938134Y-173852781D01*
X144925346Y-173870024D01*
X144910930Y-173885930D01*
X144895024Y-173900346D01*
X144877781Y-173913134D01*
X144859368Y-173924170D01*
X144839962Y-173933349D01*
X144819750Y-173940581D01*
X144798926Y-173945797D01*
X144777691Y-173948947D01*
X144756250Y-173950000D01*
X144243750Y-173950000D01*
X144222309Y-173948947D01*
X144201074Y-173945797D01*
X144180250Y-173940581D01*
X144160038Y-173933349D01*
X144140632Y-173924170D01*
X144122219Y-173913134D01*
X144104976Y-173900346D01*
X144089070Y-173885930D01*
X144074654Y-173870024D01*
X144061866Y-173852781D01*
X144050830Y-173834368D01*
X144041651Y-173814962D01*
X144034419Y-173794750D01*
X144029203Y-173773926D01*
X144026053Y-173752691D01*
X144025000Y-173731250D01*
X144025000Y-173293750D01*
X144026053Y-173272309D01*
X144029203Y-173251074D01*
X144034419Y-173230250D01*
X144041651Y-173210038D01*
X144050830Y-173190632D01*
X144061866Y-173172219D01*
X144074654Y-173154976D01*
X144089070Y-173139070D01*
X144104976Y-173124654D01*
X144122219Y-173111866D01*
X144140632Y-173100830D01*
X144160038Y-173091651D01*
X144180250Y-173084419D01*
X144201074Y-173079203D01*
X144222309Y-173076053D01*
X144243750Y-173075000D01*
X144756250Y-173075000D01*
X144777691Y-173076053D01*
X144777691Y-173076053D01*
G37*
D11*
X144500000Y-173512500D03*
D10*
G36*
X144777691Y-174651053D02*
G01*
X144798926Y-174654203D01*
X144819750Y-174659419D01*
X144839962Y-174666651D01*
X144859368Y-174675830D01*
X144877781Y-174686866D01*
X144895024Y-174699654D01*
X144910930Y-174714070D01*
X144925346Y-174729976D01*
X144938134Y-174747219D01*
X144949170Y-174765632D01*
X144958349Y-174785038D01*
X144965581Y-174805250D01*
X144970797Y-174826074D01*
X144973947Y-174847309D01*
X144975000Y-174868750D01*
X144975000Y-175306250D01*
X144973947Y-175327691D01*
X144970797Y-175348926D01*
X144965581Y-175369750D01*
X144958349Y-175389962D01*
X144949170Y-175409368D01*
X144938134Y-175427781D01*
X144925346Y-175445024D01*
X144910930Y-175460930D01*
X144895024Y-175475346D01*
X144877781Y-175488134D01*
X144859368Y-175499170D01*
X144839962Y-175508349D01*
X144819750Y-175515581D01*
X144798926Y-175520797D01*
X144777691Y-175523947D01*
X144756250Y-175525000D01*
X144243750Y-175525000D01*
X144222309Y-175523947D01*
X144201074Y-175520797D01*
X144180250Y-175515581D01*
X144160038Y-175508349D01*
X144140632Y-175499170D01*
X144122219Y-175488134D01*
X144104976Y-175475346D01*
X144089070Y-175460930D01*
X144074654Y-175445024D01*
X144061866Y-175427781D01*
X144050830Y-175409368D01*
X144041651Y-175389962D01*
X144034419Y-175369750D01*
X144029203Y-175348926D01*
X144026053Y-175327691D01*
X144025000Y-175306250D01*
X144025000Y-174868750D01*
X144026053Y-174847309D01*
X144029203Y-174826074D01*
X144034419Y-174805250D01*
X144041651Y-174785038D01*
X144050830Y-174765632D01*
X144061866Y-174747219D01*
X144074654Y-174729976D01*
X144089070Y-174714070D01*
X144104976Y-174699654D01*
X144122219Y-174686866D01*
X144140632Y-174675830D01*
X144160038Y-174666651D01*
X144180250Y-174659419D01*
X144201074Y-174654203D01*
X144222309Y-174651053D01*
X144243750Y-174650000D01*
X144756250Y-174650000D01*
X144777691Y-174651053D01*
X144777691Y-174651053D01*
G37*
D11*
X144500000Y-175087500D03*
D12*
X122525000Y-169655000D03*
X118025000Y-169655000D03*
X118025000Y-161695000D03*
X122525000Y-161695000D03*
D10*
G36*
X127552691Y-173526053D02*
G01*
X127573926Y-173529203D01*
X127594750Y-173534419D01*
X127614962Y-173541651D01*
X127634368Y-173550830D01*
X127652781Y-173561866D01*
X127670024Y-173574654D01*
X127685930Y-173589070D01*
X127700346Y-173604976D01*
X127713134Y-173622219D01*
X127724170Y-173640632D01*
X127733349Y-173660038D01*
X127740581Y-173680250D01*
X127745797Y-173701074D01*
X127748947Y-173722309D01*
X127750000Y-173743750D01*
X127750000Y-174256250D01*
X127748947Y-174277691D01*
X127745797Y-174298926D01*
X127740581Y-174319750D01*
X127733349Y-174339962D01*
X127724170Y-174359368D01*
X127713134Y-174377781D01*
X127700346Y-174395024D01*
X127685930Y-174410930D01*
X127670024Y-174425346D01*
X127652781Y-174438134D01*
X127634368Y-174449170D01*
X127614962Y-174458349D01*
X127594750Y-174465581D01*
X127573926Y-174470797D01*
X127552691Y-174473947D01*
X127531250Y-174475000D01*
X127093750Y-174475000D01*
X127072309Y-174473947D01*
X127051074Y-174470797D01*
X127030250Y-174465581D01*
X127010038Y-174458349D01*
X126990632Y-174449170D01*
X126972219Y-174438134D01*
X126954976Y-174425346D01*
X126939070Y-174410930D01*
X126924654Y-174395024D01*
X126911866Y-174377781D01*
X126900830Y-174359368D01*
X126891651Y-174339962D01*
X126884419Y-174319750D01*
X126879203Y-174298926D01*
X126876053Y-174277691D01*
X126875000Y-174256250D01*
X126875000Y-173743750D01*
X126876053Y-173722309D01*
X126879203Y-173701074D01*
X126884419Y-173680250D01*
X126891651Y-173660038D01*
X126900830Y-173640632D01*
X126911866Y-173622219D01*
X126924654Y-173604976D01*
X126939070Y-173589070D01*
X126954976Y-173574654D01*
X126972219Y-173561866D01*
X126990632Y-173550830D01*
X127010038Y-173541651D01*
X127030250Y-173534419D01*
X127051074Y-173529203D01*
X127072309Y-173526053D01*
X127093750Y-173525000D01*
X127531250Y-173525000D01*
X127552691Y-173526053D01*
X127552691Y-173526053D01*
G37*
D11*
X127312500Y-174000000D03*
D10*
G36*
X129127691Y-173526053D02*
G01*
X129148926Y-173529203D01*
X129169750Y-173534419D01*
X129189962Y-173541651D01*
X129209368Y-173550830D01*
X129227781Y-173561866D01*
X129245024Y-173574654D01*
X129260930Y-173589070D01*
X129275346Y-173604976D01*
X129288134Y-173622219D01*
X129299170Y-173640632D01*
X129308349Y-173660038D01*
X129315581Y-173680250D01*
X129320797Y-173701074D01*
X129323947Y-173722309D01*
X129325000Y-173743750D01*
X129325000Y-174256250D01*
X129323947Y-174277691D01*
X129320797Y-174298926D01*
X129315581Y-174319750D01*
X129308349Y-174339962D01*
X129299170Y-174359368D01*
X129288134Y-174377781D01*
X129275346Y-174395024D01*
X129260930Y-174410930D01*
X129245024Y-174425346D01*
X129227781Y-174438134D01*
X129209368Y-174449170D01*
X129189962Y-174458349D01*
X129169750Y-174465581D01*
X129148926Y-174470797D01*
X129127691Y-174473947D01*
X129106250Y-174475000D01*
X128668750Y-174475000D01*
X128647309Y-174473947D01*
X128626074Y-174470797D01*
X128605250Y-174465581D01*
X128585038Y-174458349D01*
X128565632Y-174449170D01*
X128547219Y-174438134D01*
X128529976Y-174425346D01*
X128514070Y-174410930D01*
X128499654Y-174395024D01*
X128486866Y-174377781D01*
X128475830Y-174359368D01*
X128466651Y-174339962D01*
X128459419Y-174319750D01*
X128454203Y-174298926D01*
X128451053Y-174277691D01*
X128450000Y-174256250D01*
X128450000Y-173743750D01*
X128451053Y-173722309D01*
X128454203Y-173701074D01*
X128459419Y-173680250D01*
X128466651Y-173660038D01*
X128475830Y-173640632D01*
X128486866Y-173622219D01*
X128499654Y-173604976D01*
X128514070Y-173589070D01*
X128529976Y-173574654D01*
X128547219Y-173561866D01*
X128565632Y-173550830D01*
X128585038Y-173541651D01*
X128605250Y-173534419D01*
X128626074Y-173529203D01*
X128647309Y-173526053D01*
X128668750Y-173525000D01*
X129106250Y-173525000D01*
X129127691Y-173526053D01*
X129127691Y-173526053D01*
G37*
D11*
X128887500Y-174000000D03*
D10*
G36*
X125940191Y-173526053D02*
G01*
X125961426Y-173529203D01*
X125982250Y-173534419D01*
X126002462Y-173541651D01*
X126021868Y-173550830D01*
X126040281Y-173561866D01*
X126057524Y-173574654D01*
X126073430Y-173589070D01*
X126087846Y-173604976D01*
X126100634Y-173622219D01*
X126111670Y-173640632D01*
X126120849Y-173660038D01*
X126128081Y-173680250D01*
X126133297Y-173701074D01*
X126136447Y-173722309D01*
X126137500Y-173743750D01*
X126137500Y-174256250D01*
X126136447Y-174277691D01*
X126133297Y-174298926D01*
X126128081Y-174319750D01*
X126120849Y-174339962D01*
X126111670Y-174359368D01*
X126100634Y-174377781D01*
X126087846Y-174395024D01*
X126073430Y-174410930D01*
X126057524Y-174425346D01*
X126040281Y-174438134D01*
X126021868Y-174449170D01*
X126002462Y-174458349D01*
X125982250Y-174465581D01*
X125961426Y-174470797D01*
X125940191Y-174473947D01*
X125918750Y-174475000D01*
X125481250Y-174475000D01*
X125459809Y-174473947D01*
X125438574Y-174470797D01*
X125417750Y-174465581D01*
X125397538Y-174458349D01*
X125378132Y-174449170D01*
X125359719Y-174438134D01*
X125342476Y-174425346D01*
X125326570Y-174410930D01*
X125312154Y-174395024D01*
X125299366Y-174377781D01*
X125288330Y-174359368D01*
X125279151Y-174339962D01*
X125271919Y-174319750D01*
X125266703Y-174298926D01*
X125263553Y-174277691D01*
X125262500Y-174256250D01*
X125262500Y-173743750D01*
X125263553Y-173722309D01*
X125266703Y-173701074D01*
X125271919Y-173680250D01*
X125279151Y-173660038D01*
X125288330Y-173640632D01*
X125299366Y-173622219D01*
X125312154Y-173604976D01*
X125326570Y-173589070D01*
X125342476Y-173574654D01*
X125359719Y-173561866D01*
X125378132Y-173550830D01*
X125397538Y-173541651D01*
X125417750Y-173534419D01*
X125438574Y-173529203D01*
X125459809Y-173526053D01*
X125481250Y-173525000D01*
X125918750Y-173525000D01*
X125940191Y-173526053D01*
X125940191Y-173526053D01*
G37*
D11*
X125700000Y-174000000D03*
D10*
G36*
X124365191Y-173526053D02*
G01*
X124386426Y-173529203D01*
X124407250Y-173534419D01*
X124427462Y-173541651D01*
X124446868Y-173550830D01*
X124465281Y-173561866D01*
X124482524Y-173574654D01*
X124498430Y-173589070D01*
X124512846Y-173604976D01*
X124525634Y-173622219D01*
X124536670Y-173640632D01*
X124545849Y-173660038D01*
X124553081Y-173680250D01*
X124558297Y-173701074D01*
X124561447Y-173722309D01*
X124562500Y-173743750D01*
X124562500Y-174256250D01*
X124561447Y-174277691D01*
X124558297Y-174298926D01*
X124553081Y-174319750D01*
X124545849Y-174339962D01*
X124536670Y-174359368D01*
X124525634Y-174377781D01*
X124512846Y-174395024D01*
X124498430Y-174410930D01*
X124482524Y-174425346D01*
X124465281Y-174438134D01*
X124446868Y-174449170D01*
X124427462Y-174458349D01*
X124407250Y-174465581D01*
X124386426Y-174470797D01*
X124365191Y-174473947D01*
X124343750Y-174475000D01*
X123906250Y-174475000D01*
X123884809Y-174473947D01*
X123863574Y-174470797D01*
X123842750Y-174465581D01*
X123822538Y-174458349D01*
X123803132Y-174449170D01*
X123784719Y-174438134D01*
X123767476Y-174425346D01*
X123751570Y-174410930D01*
X123737154Y-174395024D01*
X123724366Y-174377781D01*
X123713330Y-174359368D01*
X123704151Y-174339962D01*
X123696919Y-174319750D01*
X123691703Y-174298926D01*
X123688553Y-174277691D01*
X123687500Y-174256250D01*
X123687500Y-173743750D01*
X123688553Y-173722309D01*
X123691703Y-173701074D01*
X123696919Y-173680250D01*
X123704151Y-173660038D01*
X123713330Y-173640632D01*
X123724366Y-173622219D01*
X123737154Y-173604976D01*
X123751570Y-173589070D01*
X123767476Y-173574654D01*
X123784719Y-173561866D01*
X123803132Y-173550830D01*
X123822538Y-173541651D01*
X123842750Y-173534419D01*
X123863574Y-173529203D01*
X123884809Y-173526053D01*
X123906250Y-173525000D01*
X124343750Y-173525000D01*
X124365191Y-173526053D01*
X124365191Y-173526053D01*
G37*
D11*
X124125000Y-174000000D03*
D10*
G36*
X97077691Y-174651053D02*
G01*
X97098926Y-174654203D01*
X97119750Y-174659419D01*
X97139962Y-174666651D01*
X97159368Y-174675830D01*
X97177781Y-174686866D01*
X97195024Y-174699654D01*
X97210930Y-174714070D01*
X97225346Y-174729976D01*
X97238134Y-174747219D01*
X97249170Y-174765632D01*
X97258349Y-174785038D01*
X97265581Y-174805250D01*
X97270797Y-174826074D01*
X97273947Y-174847309D01*
X97275000Y-174868750D01*
X97275000Y-175306250D01*
X97273947Y-175327691D01*
X97270797Y-175348926D01*
X97265581Y-175369750D01*
X97258349Y-175389962D01*
X97249170Y-175409368D01*
X97238134Y-175427781D01*
X97225346Y-175445024D01*
X97210930Y-175460930D01*
X97195024Y-175475346D01*
X97177781Y-175488134D01*
X97159368Y-175499170D01*
X97139962Y-175508349D01*
X97119750Y-175515581D01*
X97098926Y-175520797D01*
X97077691Y-175523947D01*
X97056250Y-175525000D01*
X96543750Y-175525000D01*
X96522309Y-175523947D01*
X96501074Y-175520797D01*
X96480250Y-175515581D01*
X96460038Y-175508349D01*
X96440632Y-175499170D01*
X96422219Y-175488134D01*
X96404976Y-175475346D01*
X96389070Y-175460930D01*
X96374654Y-175445024D01*
X96361866Y-175427781D01*
X96350830Y-175409368D01*
X96341651Y-175389962D01*
X96334419Y-175369750D01*
X96329203Y-175348926D01*
X96326053Y-175327691D01*
X96325000Y-175306250D01*
X96325000Y-174868750D01*
X96326053Y-174847309D01*
X96329203Y-174826074D01*
X96334419Y-174805250D01*
X96341651Y-174785038D01*
X96350830Y-174765632D01*
X96361866Y-174747219D01*
X96374654Y-174729976D01*
X96389070Y-174714070D01*
X96404976Y-174699654D01*
X96422219Y-174686866D01*
X96440632Y-174675830D01*
X96460038Y-174666651D01*
X96480250Y-174659419D01*
X96501074Y-174654203D01*
X96522309Y-174651053D01*
X96543750Y-174650000D01*
X97056250Y-174650000D01*
X97077691Y-174651053D01*
X97077691Y-174651053D01*
G37*
D11*
X96800000Y-175087500D03*
D10*
G36*
X97077691Y-173076053D02*
G01*
X97098926Y-173079203D01*
X97119750Y-173084419D01*
X97139962Y-173091651D01*
X97159368Y-173100830D01*
X97177781Y-173111866D01*
X97195024Y-173124654D01*
X97210930Y-173139070D01*
X97225346Y-173154976D01*
X97238134Y-173172219D01*
X97249170Y-173190632D01*
X97258349Y-173210038D01*
X97265581Y-173230250D01*
X97270797Y-173251074D01*
X97273947Y-173272309D01*
X97275000Y-173293750D01*
X97275000Y-173731250D01*
X97273947Y-173752691D01*
X97270797Y-173773926D01*
X97265581Y-173794750D01*
X97258349Y-173814962D01*
X97249170Y-173834368D01*
X97238134Y-173852781D01*
X97225346Y-173870024D01*
X97210930Y-173885930D01*
X97195024Y-173900346D01*
X97177781Y-173913134D01*
X97159368Y-173924170D01*
X97139962Y-173933349D01*
X97119750Y-173940581D01*
X97098926Y-173945797D01*
X97077691Y-173948947D01*
X97056250Y-173950000D01*
X96543750Y-173950000D01*
X96522309Y-173948947D01*
X96501074Y-173945797D01*
X96480250Y-173940581D01*
X96460038Y-173933349D01*
X96440632Y-173924170D01*
X96422219Y-173913134D01*
X96404976Y-173900346D01*
X96389070Y-173885930D01*
X96374654Y-173870024D01*
X96361866Y-173852781D01*
X96350830Y-173834368D01*
X96341651Y-173814962D01*
X96334419Y-173794750D01*
X96329203Y-173773926D01*
X96326053Y-173752691D01*
X96325000Y-173731250D01*
X96325000Y-173293750D01*
X96326053Y-173272309D01*
X96329203Y-173251074D01*
X96334419Y-173230250D01*
X96341651Y-173210038D01*
X96350830Y-173190632D01*
X96361866Y-173172219D01*
X96374654Y-173154976D01*
X96389070Y-173139070D01*
X96404976Y-173124654D01*
X96422219Y-173111866D01*
X96440632Y-173100830D01*
X96460038Y-173091651D01*
X96480250Y-173084419D01*
X96501074Y-173079203D01*
X96522309Y-173076053D01*
X96543750Y-173075000D01*
X97056250Y-173075000D01*
X97077691Y-173076053D01*
X97077691Y-173076053D01*
G37*
D11*
X96800000Y-173512500D03*
D12*
X74825000Y-161695000D03*
X70325000Y-161695000D03*
X70325000Y-169655000D03*
X74825000Y-169655000D03*
D10*
G36*
X81427691Y-173526053D02*
G01*
X81448926Y-173529203D01*
X81469750Y-173534419D01*
X81489962Y-173541651D01*
X81509368Y-173550830D01*
X81527781Y-173561866D01*
X81545024Y-173574654D01*
X81560930Y-173589070D01*
X81575346Y-173604976D01*
X81588134Y-173622219D01*
X81599170Y-173640632D01*
X81608349Y-173660038D01*
X81615581Y-173680250D01*
X81620797Y-173701074D01*
X81623947Y-173722309D01*
X81625000Y-173743750D01*
X81625000Y-174256250D01*
X81623947Y-174277691D01*
X81620797Y-174298926D01*
X81615581Y-174319750D01*
X81608349Y-174339962D01*
X81599170Y-174359368D01*
X81588134Y-174377781D01*
X81575346Y-174395024D01*
X81560930Y-174410930D01*
X81545024Y-174425346D01*
X81527781Y-174438134D01*
X81509368Y-174449170D01*
X81489962Y-174458349D01*
X81469750Y-174465581D01*
X81448926Y-174470797D01*
X81427691Y-174473947D01*
X81406250Y-174475000D01*
X80968750Y-174475000D01*
X80947309Y-174473947D01*
X80926074Y-174470797D01*
X80905250Y-174465581D01*
X80885038Y-174458349D01*
X80865632Y-174449170D01*
X80847219Y-174438134D01*
X80829976Y-174425346D01*
X80814070Y-174410930D01*
X80799654Y-174395024D01*
X80786866Y-174377781D01*
X80775830Y-174359368D01*
X80766651Y-174339962D01*
X80759419Y-174319750D01*
X80754203Y-174298926D01*
X80751053Y-174277691D01*
X80750000Y-174256250D01*
X80750000Y-173743750D01*
X80751053Y-173722309D01*
X80754203Y-173701074D01*
X80759419Y-173680250D01*
X80766651Y-173660038D01*
X80775830Y-173640632D01*
X80786866Y-173622219D01*
X80799654Y-173604976D01*
X80814070Y-173589070D01*
X80829976Y-173574654D01*
X80847219Y-173561866D01*
X80865632Y-173550830D01*
X80885038Y-173541651D01*
X80905250Y-173534419D01*
X80926074Y-173529203D01*
X80947309Y-173526053D01*
X80968750Y-173525000D01*
X81406250Y-173525000D01*
X81427691Y-173526053D01*
X81427691Y-173526053D01*
G37*
D11*
X81187500Y-174000000D03*
D10*
G36*
X79852691Y-173526053D02*
G01*
X79873926Y-173529203D01*
X79894750Y-173534419D01*
X79914962Y-173541651D01*
X79934368Y-173550830D01*
X79952781Y-173561866D01*
X79970024Y-173574654D01*
X79985930Y-173589070D01*
X80000346Y-173604976D01*
X80013134Y-173622219D01*
X80024170Y-173640632D01*
X80033349Y-173660038D01*
X80040581Y-173680250D01*
X80045797Y-173701074D01*
X80048947Y-173722309D01*
X80050000Y-173743750D01*
X80050000Y-174256250D01*
X80048947Y-174277691D01*
X80045797Y-174298926D01*
X80040581Y-174319750D01*
X80033349Y-174339962D01*
X80024170Y-174359368D01*
X80013134Y-174377781D01*
X80000346Y-174395024D01*
X79985930Y-174410930D01*
X79970024Y-174425346D01*
X79952781Y-174438134D01*
X79934368Y-174449170D01*
X79914962Y-174458349D01*
X79894750Y-174465581D01*
X79873926Y-174470797D01*
X79852691Y-174473947D01*
X79831250Y-174475000D01*
X79393750Y-174475000D01*
X79372309Y-174473947D01*
X79351074Y-174470797D01*
X79330250Y-174465581D01*
X79310038Y-174458349D01*
X79290632Y-174449170D01*
X79272219Y-174438134D01*
X79254976Y-174425346D01*
X79239070Y-174410930D01*
X79224654Y-174395024D01*
X79211866Y-174377781D01*
X79200830Y-174359368D01*
X79191651Y-174339962D01*
X79184419Y-174319750D01*
X79179203Y-174298926D01*
X79176053Y-174277691D01*
X79175000Y-174256250D01*
X79175000Y-173743750D01*
X79176053Y-173722309D01*
X79179203Y-173701074D01*
X79184419Y-173680250D01*
X79191651Y-173660038D01*
X79200830Y-173640632D01*
X79211866Y-173622219D01*
X79224654Y-173604976D01*
X79239070Y-173589070D01*
X79254976Y-173574654D01*
X79272219Y-173561866D01*
X79290632Y-173550830D01*
X79310038Y-173541651D01*
X79330250Y-173534419D01*
X79351074Y-173529203D01*
X79372309Y-173526053D01*
X79393750Y-173525000D01*
X79831250Y-173525000D01*
X79852691Y-173526053D01*
X79852691Y-173526053D01*
G37*
D11*
X79612500Y-174000000D03*
D10*
G36*
X76665191Y-173526053D02*
G01*
X76686426Y-173529203D01*
X76707250Y-173534419D01*
X76727462Y-173541651D01*
X76746868Y-173550830D01*
X76765281Y-173561866D01*
X76782524Y-173574654D01*
X76798430Y-173589070D01*
X76812846Y-173604976D01*
X76825634Y-173622219D01*
X76836670Y-173640632D01*
X76845849Y-173660038D01*
X76853081Y-173680250D01*
X76858297Y-173701074D01*
X76861447Y-173722309D01*
X76862500Y-173743750D01*
X76862500Y-174256250D01*
X76861447Y-174277691D01*
X76858297Y-174298926D01*
X76853081Y-174319750D01*
X76845849Y-174339962D01*
X76836670Y-174359368D01*
X76825634Y-174377781D01*
X76812846Y-174395024D01*
X76798430Y-174410930D01*
X76782524Y-174425346D01*
X76765281Y-174438134D01*
X76746868Y-174449170D01*
X76727462Y-174458349D01*
X76707250Y-174465581D01*
X76686426Y-174470797D01*
X76665191Y-174473947D01*
X76643750Y-174475000D01*
X76206250Y-174475000D01*
X76184809Y-174473947D01*
X76163574Y-174470797D01*
X76142750Y-174465581D01*
X76122538Y-174458349D01*
X76103132Y-174449170D01*
X76084719Y-174438134D01*
X76067476Y-174425346D01*
X76051570Y-174410930D01*
X76037154Y-174395024D01*
X76024366Y-174377781D01*
X76013330Y-174359368D01*
X76004151Y-174339962D01*
X75996919Y-174319750D01*
X75991703Y-174298926D01*
X75988553Y-174277691D01*
X75987500Y-174256250D01*
X75987500Y-173743750D01*
X75988553Y-173722309D01*
X75991703Y-173701074D01*
X75996919Y-173680250D01*
X76004151Y-173660038D01*
X76013330Y-173640632D01*
X76024366Y-173622219D01*
X76037154Y-173604976D01*
X76051570Y-173589070D01*
X76067476Y-173574654D01*
X76084719Y-173561866D01*
X76103132Y-173550830D01*
X76122538Y-173541651D01*
X76142750Y-173534419D01*
X76163574Y-173529203D01*
X76184809Y-173526053D01*
X76206250Y-173525000D01*
X76643750Y-173525000D01*
X76665191Y-173526053D01*
X76665191Y-173526053D01*
G37*
D11*
X76425000Y-174000000D03*
D10*
G36*
X78240191Y-173526053D02*
G01*
X78261426Y-173529203D01*
X78282250Y-173534419D01*
X78302462Y-173541651D01*
X78321868Y-173550830D01*
X78340281Y-173561866D01*
X78357524Y-173574654D01*
X78373430Y-173589070D01*
X78387846Y-173604976D01*
X78400634Y-173622219D01*
X78411670Y-173640632D01*
X78420849Y-173660038D01*
X78428081Y-173680250D01*
X78433297Y-173701074D01*
X78436447Y-173722309D01*
X78437500Y-173743750D01*
X78437500Y-174256250D01*
X78436447Y-174277691D01*
X78433297Y-174298926D01*
X78428081Y-174319750D01*
X78420849Y-174339962D01*
X78411670Y-174359368D01*
X78400634Y-174377781D01*
X78387846Y-174395024D01*
X78373430Y-174410930D01*
X78357524Y-174425346D01*
X78340281Y-174438134D01*
X78321868Y-174449170D01*
X78302462Y-174458349D01*
X78282250Y-174465581D01*
X78261426Y-174470797D01*
X78240191Y-174473947D01*
X78218750Y-174475000D01*
X77781250Y-174475000D01*
X77759809Y-174473947D01*
X77738574Y-174470797D01*
X77717750Y-174465581D01*
X77697538Y-174458349D01*
X77678132Y-174449170D01*
X77659719Y-174438134D01*
X77642476Y-174425346D01*
X77626570Y-174410930D01*
X77612154Y-174395024D01*
X77599366Y-174377781D01*
X77588330Y-174359368D01*
X77579151Y-174339962D01*
X77571919Y-174319750D01*
X77566703Y-174298926D01*
X77563553Y-174277691D01*
X77562500Y-174256250D01*
X77562500Y-173743750D01*
X77563553Y-173722309D01*
X77566703Y-173701074D01*
X77571919Y-173680250D01*
X77579151Y-173660038D01*
X77588330Y-173640632D01*
X77599366Y-173622219D01*
X77612154Y-173604976D01*
X77626570Y-173589070D01*
X77642476Y-173574654D01*
X77659719Y-173561866D01*
X77678132Y-173550830D01*
X77697538Y-173541651D01*
X77717750Y-173534419D01*
X77738574Y-173529203D01*
X77759809Y-173526053D01*
X77781250Y-173525000D01*
X78218750Y-173525000D01*
X78240191Y-173526053D01*
X78240191Y-173526053D01*
G37*
D11*
X78000000Y-174000000D03*
D10*
G36*
X89027691Y-174651053D02*
G01*
X89048926Y-174654203D01*
X89069750Y-174659419D01*
X89089962Y-174666651D01*
X89109368Y-174675830D01*
X89127781Y-174686866D01*
X89145024Y-174699654D01*
X89160930Y-174714070D01*
X89175346Y-174729976D01*
X89188134Y-174747219D01*
X89199170Y-174765632D01*
X89208349Y-174785038D01*
X89215581Y-174805250D01*
X89220797Y-174826074D01*
X89223947Y-174847309D01*
X89225000Y-174868750D01*
X89225000Y-175306250D01*
X89223947Y-175327691D01*
X89220797Y-175348926D01*
X89215581Y-175369750D01*
X89208349Y-175389962D01*
X89199170Y-175409368D01*
X89188134Y-175427781D01*
X89175346Y-175445024D01*
X89160930Y-175460930D01*
X89145024Y-175475346D01*
X89127781Y-175488134D01*
X89109368Y-175499170D01*
X89089962Y-175508349D01*
X89069750Y-175515581D01*
X89048926Y-175520797D01*
X89027691Y-175523947D01*
X89006250Y-175525000D01*
X88493750Y-175525000D01*
X88472309Y-175523947D01*
X88451074Y-175520797D01*
X88430250Y-175515581D01*
X88410038Y-175508349D01*
X88390632Y-175499170D01*
X88372219Y-175488134D01*
X88354976Y-175475346D01*
X88339070Y-175460930D01*
X88324654Y-175445024D01*
X88311866Y-175427781D01*
X88300830Y-175409368D01*
X88291651Y-175389962D01*
X88284419Y-175369750D01*
X88279203Y-175348926D01*
X88276053Y-175327691D01*
X88275000Y-175306250D01*
X88275000Y-174868750D01*
X88276053Y-174847309D01*
X88279203Y-174826074D01*
X88284419Y-174805250D01*
X88291651Y-174785038D01*
X88300830Y-174765632D01*
X88311866Y-174747219D01*
X88324654Y-174729976D01*
X88339070Y-174714070D01*
X88354976Y-174699654D01*
X88372219Y-174686866D01*
X88390632Y-174675830D01*
X88410038Y-174666651D01*
X88430250Y-174659419D01*
X88451074Y-174654203D01*
X88472309Y-174651053D01*
X88493750Y-174650000D01*
X89006250Y-174650000D01*
X89027691Y-174651053D01*
X89027691Y-174651053D01*
G37*
D11*
X88750000Y-175087500D03*
D10*
G36*
X89027691Y-173076053D02*
G01*
X89048926Y-173079203D01*
X89069750Y-173084419D01*
X89089962Y-173091651D01*
X89109368Y-173100830D01*
X89127781Y-173111866D01*
X89145024Y-173124654D01*
X89160930Y-173139070D01*
X89175346Y-173154976D01*
X89188134Y-173172219D01*
X89199170Y-173190632D01*
X89208349Y-173210038D01*
X89215581Y-173230250D01*
X89220797Y-173251074D01*
X89223947Y-173272309D01*
X89225000Y-173293750D01*
X89225000Y-173731250D01*
X89223947Y-173752691D01*
X89220797Y-173773926D01*
X89215581Y-173794750D01*
X89208349Y-173814962D01*
X89199170Y-173834368D01*
X89188134Y-173852781D01*
X89175346Y-173870024D01*
X89160930Y-173885930D01*
X89145024Y-173900346D01*
X89127781Y-173913134D01*
X89109368Y-173924170D01*
X89089962Y-173933349D01*
X89069750Y-173940581D01*
X89048926Y-173945797D01*
X89027691Y-173948947D01*
X89006250Y-173950000D01*
X88493750Y-173950000D01*
X88472309Y-173948947D01*
X88451074Y-173945797D01*
X88430250Y-173940581D01*
X88410038Y-173933349D01*
X88390632Y-173924170D01*
X88372219Y-173913134D01*
X88354976Y-173900346D01*
X88339070Y-173885930D01*
X88324654Y-173870024D01*
X88311866Y-173852781D01*
X88300830Y-173834368D01*
X88291651Y-173814962D01*
X88284419Y-173794750D01*
X88279203Y-173773926D01*
X88276053Y-173752691D01*
X88275000Y-173731250D01*
X88275000Y-173293750D01*
X88276053Y-173272309D01*
X88279203Y-173251074D01*
X88284419Y-173230250D01*
X88291651Y-173210038D01*
X88300830Y-173190632D01*
X88311866Y-173172219D01*
X88324654Y-173154976D01*
X88339070Y-173139070D01*
X88354976Y-173124654D01*
X88372219Y-173111866D01*
X88390632Y-173100830D01*
X88410038Y-173091651D01*
X88430250Y-173084419D01*
X88451074Y-173079203D01*
X88472309Y-173076053D01*
X88493750Y-173075000D01*
X89006250Y-173075000D01*
X89027691Y-173076053D01*
X89027691Y-173076053D01*
G37*
D11*
X88750000Y-173512500D03*
D10*
G36*
X90627691Y-173076053D02*
G01*
X90648926Y-173079203D01*
X90669750Y-173084419D01*
X90689962Y-173091651D01*
X90709368Y-173100830D01*
X90727781Y-173111866D01*
X90745024Y-173124654D01*
X90760930Y-173139070D01*
X90775346Y-173154976D01*
X90788134Y-173172219D01*
X90799170Y-173190632D01*
X90808349Y-173210038D01*
X90815581Y-173230250D01*
X90820797Y-173251074D01*
X90823947Y-173272309D01*
X90825000Y-173293750D01*
X90825000Y-173731250D01*
X90823947Y-173752691D01*
X90820797Y-173773926D01*
X90815581Y-173794750D01*
X90808349Y-173814962D01*
X90799170Y-173834368D01*
X90788134Y-173852781D01*
X90775346Y-173870024D01*
X90760930Y-173885930D01*
X90745024Y-173900346D01*
X90727781Y-173913134D01*
X90709368Y-173924170D01*
X90689962Y-173933349D01*
X90669750Y-173940581D01*
X90648926Y-173945797D01*
X90627691Y-173948947D01*
X90606250Y-173950000D01*
X90093750Y-173950000D01*
X90072309Y-173948947D01*
X90051074Y-173945797D01*
X90030250Y-173940581D01*
X90010038Y-173933349D01*
X89990632Y-173924170D01*
X89972219Y-173913134D01*
X89954976Y-173900346D01*
X89939070Y-173885930D01*
X89924654Y-173870024D01*
X89911866Y-173852781D01*
X89900830Y-173834368D01*
X89891651Y-173814962D01*
X89884419Y-173794750D01*
X89879203Y-173773926D01*
X89876053Y-173752691D01*
X89875000Y-173731250D01*
X89875000Y-173293750D01*
X89876053Y-173272309D01*
X89879203Y-173251074D01*
X89884419Y-173230250D01*
X89891651Y-173210038D01*
X89900830Y-173190632D01*
X89911866Y-173172219D01*
X89924654Y-173154976D01*
X89939070Y-173139070D01*
X89954976Y-173124654D01*
X89972219Y-173111866D01*
X89990632Y-173100830D01*
X90010038Y-173091651D01*
X90030250Y-173084419D01*
X90051074Y-173079203D01*
X90072309Y-173076053D01*
X90093750Y-173075000D01*
X90606250Y-173075000D01*
X90627691Y-173076053D01*
X90627691Y-173076053D01*
G37*
D11*
X90350000Y-173512500D03*
D10*
G36*
X90627691Y-174651053D02*
G01*
X90648926Y-174654203D01*
X90669750Y-174659419D01*
X90689962Y-174666651D01*
X90709368Y-174675830D01*
X90727781Y-174686866D01*
X90745024Y-174699654D01*
X90760930Y-174714070D01*
X90775346Y-174729976D01*
X90788134Y-174747219D01*
X90799170Y-174765632D01*
X90808349Y-174785038D01*
X90815581Y-174805250D01*
X90820797Y-174826074D01*
X90823947Y-174847309D01*
X90825000Y-174868750D01*
X90825000Y-175306250D01*
X90823947Y-175327691D01*
X90820797Y-175348926D01*
X90815581Y-175369750D01*
X90808349Y-175389962D01*
X90799170Y-175409368D01*
X90788134Y-175427781D01*
X90775346Y-175445024D01*
X90760930Y-175460930D01*
X90745024Y-175475346D01*
X90727781Y-175488134D01*
X90709368Y-175499170D01*
X90689962Y-175508349D01*
X90669750Y-175515581D01*
X90648926Y-175520797D01*
X90627691Y-175523947D01*
X90606250Y-175525000D01*
X90093750Y-175525000D01*
X90072309Y-175523947D01*
X90051074Y-175520797D01*
X90030250Y-175515581D01*
X90010038Y-175508349D01*
X89990632Y-175499170D01*
X89972219Y-175488134D01*
X89954976Y-175475346D01*
X89939070Y-175460930D01*
X89924654Y-175445024D01*
X89911866Y-175427781D01*
X89900830Y-175409368D01*
X89891651Y-175389962D01*
X89884419Y-175369750D01*
X89879203Y-175348926D01*
X89876053Y-175327691D01*
X89875000Y-175306250D01*
X89875000Y-174868750D01*
X89876053Y-174847309D01*
X89879203Y-174826074D01*
X89884419Y-174805250D01*
X89891651Y-174785038D01*
X89900830Y-174765632D01*
X89911866Y-174747219D01*
X89924654Y-174729976D01*
X89939070Y-174714070D01*
X89954976Y-174699654D01*
X89972219Y-174686866D01*
X89990632Y-174675830D01*
X90010038Y-174666651D01*
X90030250Y-174659419D01*
X90051074Y-174654203D01*
X90072309Y-174651053D01*
X90093750Y-174650000D01*
X90606250Y-174650000D01*
X90627691Y-174651053D01*
X90627691Y-174651053D01*
G37*
D11*
X90350000Y-175087500D03*
D10*
G36*
X136727691Y-173076053D02*
G01*
X136748926Y-173079203D01*
X136769750Y-173084419D01*
X136789962Y-173091651D01*
X136809368Y-173100830D01*
X136827781Y-173111866D01*
X136845024Y-173124654D01*
X136860930Y-173139070D01*
X136875346Y-173154976D01*
X136888134Y-173172219D01*
X136899170Y-173190632D01*
X136908349Y-173210038D01*
X136915581Y-173230250D01*
X136920797Y-173251074D01*
X136923947Y-173272309D01*
X136925000Y-173293750D01*
X136925000Y-173731250D01*
X136923947Y-173752691D01*
X136920797Y-173773926D01*
X136915581Y-173794750D01*
X136908349Y-173814962D01*
X136899170Y-173834368D01*
X136888134Y-173852781D01*
X136875346Y-173870024D01*
X136860930Y-173885930D01*
X136845024Y-173900346D01*
X136827781Y-173913134D01*
X136809368Y-173924170D01*
X136789962Y-173933349D01*
X136769750Y-173940581D01*
X136748926Y-173945797D01*
X136727691Y-173948947D01*
X136706250Y-173950000D01*
X136193750Y-173950000D01*
X136172309Y-173948947D01*
X136151074Y-173945797D01*
X136130250Y-173940581D01*
X136110038Y-173933349D01*
X136090632Y-173924170D01*
X136072219Y-173913134D01*
X136054976Y-173900346D01*
X136039070Y-173885930D01*
X136024654Y-173870024D01*
X136011866Y-173852781D01*
X136000830Y-173834368D01*
X135991651Y-173814962D01*
X135984419Y-173794750D01*
X135979203Y-173773926D01*
X135976053Y-173752691D01*
X135975000Y-173731250D01*
X135975000Y-173293750D01*
X135976053Y-173272309D01*
X135979203Y-173251074D01*
X135984419Y-173230250D01*
X135991651Y-173210038D01*
X136000830Y-173190632D01*
X136011866Y-173172219D01*
X136024654Y-173154976D01*
X136039070Y-173139070D01*
X136054976Y-173124654D01*
X136072219Y-173111866D01*
X136090632Y-173100830D01*
X136110038Y-173091651D01*
X136130250Y-173084419D01*
X136151074Y-173079203D01*
X136172309Y-173076053D01*
X136193750Y-173075000D01*
X136706250Y-173075000D01*
X136727691Y-173076053D01*
X136727691Y-173076053D01*
G37*
D11*
X136450000Y-173512500D03*
D10*
G36*
X136727691Y-174651053D02*
G01*
X136748926Y-174654203D01*
X136769750Y-174659419D01*
X136789962Y-174666651D01*
X136809368Y-174675830D01*
X136827781Y-174686866D01*
X136845024Y-174699654D01*
X136860930Y-174714070D01*
X136875346Y-174729976D01*
X136888134Y-174747219D01*
X136899170Y-174765632D01*
X136908349Y-174785038D01*
X136915581Y-174805250D01*
X136920797Y-174826074D01*
X136923947Y-174847309D01*
X136925000Y-174868750D01*
X136925000Y-175306250D01*
X136923947Y-175327691D01*
X136920797Y-175348926D01*
X136915581Y-175369750D01*
X136908349Y-175389962D01*
X136899170Y-175409368D01*
X136888134Y-175427781D01*
X136875346Y-175445024D01*
X136860930Y-175460930D01*
X136845024Y-175475346D01*
X136827781Y-175488134D01*
X136809368Y-175499170D01*
X136789962Y-175508349D01*
X136769750Y-175515581D01*
X136748926Y-175520797D01*
X136727691Y-175523947D01*
X136706250Y-175525000D01*
X136193750Y-175525000D01*
X136172309Y-175523947D01*
X136151074Y-175520797D01*
X136130250Y-175515581D01*
X136110038Y-175508349D01*
X136090632Y-175499170D01*
X136072219Y-175488134D01*
X136054976Y-175475346D01*
X136039070Y-175460930D01*
X136024654Y-175445024D01*
X136011866Y-175427781D01*
X136000830Y-175409368D01*
X135991651Y-175389962D01*
X135984419Y-175369750D01*
X135979203Y-175348926D01*
X135976053Y-175327691D01*
X135975000Y-175306250D01*
X135975000Y-174868750D01*
X135976053Y-174847309D01*
X135979203Y-174826074D01*
X135984419Y-174805250D01*
X135991651Y-174785038D01*
X136000830Y-174765632D01*
X136011866Y-174747219D01*
X136024654Y-174729976D01*
X136039070Y-174714070D01*
X136054976Y-174699654D01*
X136072219Y-174686866D01*
X136090632Y-174675830D01*
X136110038Y-174666651D01*
X136130250Y-174659419D01*
X136151074Y-174654203D01*
X136172309Y-174651053D01*
X136193750Y-174650000D01*
X136706250Y-174650000D01*
X136727691Y-174651053D01*
X136727691Y-174651053D01*
G37*
D11*
X136450000Y-175087500D03*
D10*
G36*
X138327691Y-174651053D02*
G01*
X138348926Y-174654203D01*
X138369750Y-174659419D01*
X138389962Y-174666651D01*
X138409368Y-174675830D01*
X138427781Y-174686866D01*
X138445024Y-174699654D01*
X138460930Y-174714070D01*
X138475346Y-174729976D01*
X138488134Y-174747219D01*
X138499170Y-174765632D01*
X138508349Y-174785038D01*
X138515581Y-174805250D01*
X138520797Y-174826074D01*
X138523947Y-174847309D01*
X138525000Y-174868750D01*
X138525000Y-175306250D01*
X138523947Y-175327691D01*
X138520797Y-175348926D01*
X138515581Y-175369750D01*
X138508349Y-175389962D01*
X138499170Y-175409368D01*
X138488134Y-175427781D01*
X138475346Y-175445024D01*
X138460930Y-175460930D01*
X138445024Y-175475346D01*
X138427781Y-175488134D01*
X138409368Y-175499170D01*
X138389962Y-175508349D01*
X138369750Y-175515581D01*
X138348926Y-175520797D01*
X138327691Y-175523947D01*
X138306250Y-175525000D01*
X137793750Y-175525000D01*
X137772309Y-175523947D01*
X137751074Y-175520797D01*
X137730250Y-175515581D01*
X137710038Y-175508349D01*
X137690632Y-175499170D01*
X137672219Y-175488134D01*
X137654976Y-175475346D01*
X137639070Y-175460930D01*
X137624654Y-175445024D01*
X137611866Y-175427781D01*
X137600830Y-175409368D01*
X137591651Y-175389962D01*
X137584419Y-175369750D01*
X137579203Y-175348926D01*
X137576053Y-175327691D01*
X137575000Y-175306250D01*
X137575000Y-174868750D01*
X137576053Y-174847309D01*
X137579203Y-174826074D01*
X137584419Y-174805250D01*
X137591651Y-174785038D01*
X137600830Y-174765632D01*
X137611866Y-174747219D01*
X137624654Y-174729976D01*
X137639070Y-174714070D01*
X137654976Y-174699654D01*
X137672219Y-174686866D01*
X137690632Y-174675830D01*
X137710038Y-174666651D01*
X137730250Y-174659419D01*
X137751074Y-174654203D01*
X137772309Y-174651053D01*
X137793750Y-174650000D01*
X138306250Y-174650000D01*
X138327691Y-174651053D01*
X138327691Y-174651053D01*
G37*
D11*
X138050000Y-175087500D03*
D10*
G36*
X138327691Y-173076053D02*
G01*
X138348926Y-173079203D01*
X138369750Y-173084419D01*
X138389962Y-173091651D01*
X138409368Y-173100830D01*
X138427781Y-173111866D01*
X138445024Y-173124654D01*
X138460930Y-173139070D01*
X138475346Y-173154976D01*
X138488134Y-173172219D01*
X138499170Y-173190632D01*
X138508349Y-173210038D01*
X138515581Y-173230250D01*
X138520797Y-173251074D01*
X138523947Y-173272309D01*
X138525000Y-173293750D01*
X138525000Y-173731250D01*
X138523947Y-173752691D01*
X138520797Y-173773926D01*
X138515581Y-173794750D01*
X138508349Y-173814962D01*
X138499170Y-173834368D01*
X138488134Y-173852781D01*
X138475346Y-173870024D01*
X138460930Y-173885930D01*
X138445024Y-173900346D01*
X138427781Y-173913134D01*
X138409368Y-173924170D01*
X138389962Y-173933349D01*
X138369750Y-173940581D01*
X138348926Y-173945797D01*
X138327691Y-173948947D01*
X138306250Y-173950000D01*
X137793750Y-173950000D01*
X137772309Y-173948947D01*
X137751074Y-173945797D01*
X137730250Y-173940581D01*
X137710038Y-173933349D01*
X137690632Y-173924170D01*
X137672219Y-173913134D01*
X137654976Y-173900346D01*
X137639070Y-173885930D01*
X137624654Y-173870024D01*
X137611866Y-173852781D01*
X137600830Y-173834368D01*
X137591651Y-173814962D01*
X137584419Y-173794750D01*
X137579203Y-173773926D01*
X137576053Y-173752691D01*
X137575000Y-173731250D01*
X137575000Y-173293750D01*
X137576053Y-173272309D01*
X137579203Y-173251074D01*
X137584419Y-173230250D01*
X137591651Y-173210038D01*
X137600830Y-173190632D01*
X137611866Y-173172219D01*
X137624654Y-173154976D01*
X137639070Y-173139070D01*
X137654976Y-173124654D01*
X137672219Y-173111866D01*
X137690632Y-173100830D01*
X137710038Y-173091651D01*
X137730250Y-173084419D01*
X137751074Y-173079203D01*
X137772309Y-173076053D01*
X137793750Y-173075000D01*
X138306250Y-173075000D01*
X138327691Y-173076053D01*
X138327691Y-173076053D01*
G37*
D11*
X138050000Y-173512500D03*
D10*
G36*
X132052691Y-173526053D02*
G01*
X132073926Y-173529203D01*
X132094750Y-173534419D01*
X132114962Y-173541651D01*
X132134368Y-173550830D01*
X132152781Y-173561866D01*
X132170024Y-173574654D01*
X132185930Y-173589070D01*
X132200346Y-173604976D01*
X132213134Y-173622219D01*
X132224170Y-173640632D01*
X132233349Y-173660038D01*
X132240581Y-173680250D01*
X132245797Y-173701074D01*
X132248947Y-173722309D01*
X132250000Y-173743750D01*
X132250000Y-174256250D01*
X132248947Y-174277691D01*
X132245797Y-174298926D01*
X132240581Y-174319750D01*
X132233349Y-174339962D01*
X132224170Y-174359368D01*
X132213134Y-174377781D01*
X132200346Y-174395024D01*
X132185930Y-174410930D01*
X132170024Y-174425346D01*
X132152781Y-174438134D01*
X132134368Y-174449170D01*
X132114962Y-174458349D01*
X132094750Y-174465581D01*
X132073926Y-174470797D01*
X132052691Y-174473947D01*
X132031250Y-174475000D01*
X131593750Y-174475000D01*
X131572309Y-174473947D01*
X131551074Y-174470797D01*
X131530250Y-174465581D01*
X131510038Y-174458349D01*
X131490632Y-174449170D01*
X131472219Y-174438134D01*
X131454976Y-174425346D01*
X131439070Y-174410930D01*
X131424654Y-174395024D01*
X131411866Y-174377781D01*
X131400830Y-174359368D01*
X131391651Y-174339962D01*
X131384419Y-174319750D01*
X131379203Y-174298926D01*
X131376053Y-174277691D01*
X131375000Y-174256250D01*
X131375000Y-173743750D01*
X131376053Y-173722309D01*
X131379203Y-173701074D01*
X131384419Y-173680250D01*
X131391651Y-173660038D01*
X131400830Y-173640632D01*
X131411866Y-173622219D01*
X131424654Y-173604976D01*
X131439070Y-173589070D01*
X131454976Y-173574654D01*
X131472219Y-173561866D01*
X131490632Y-173550830D01*
X131510038Y-173541651D01*
X131530250Y-173534419D01*
X131551074Y-173529203D01*
X131572309Y-173526053D01*
X131593750Y-173525000D01*
X132031250Y-173525000D01*
X132052691Y-173526053D01*
X132052691Y-173526053D01*
G37*
D11*
X131812500Y-174000000D03*
D10*
G36*
X133627691Y-173526053D02*
G01*
X133648926Y-173529203D01*
X133669750Y-173534419D01*
X133689962Y-173541651D01*
X133709368Y-173550830D01*
X133727781Y-173561866D01*
X133745024Y-173574654D01*
X133760930Y-173589070D01*
X133775346Y-173604976D01*
X133788134Y-173622219D01*
X133799170Y-173640632D01*
X133808349Y-173660038D01*
X133815581Y-173680250D01*
X133820797Y-173701074D01*
X133823947Y-173722309D01*
X133825000Y-173743750D01*
X133825000Y-174256250D01*
X133823947Y-174277691D01*
X133820797Y-174298926D01*
X133815581Y-174319750D01*
X133808349Y-174339962D01*
X133799170Y-174359368D01*
X133788134Y-174377781D01*
X133775346Y-174395024D01*
X133760930Y-174410930D01*
X133745024Y-174425346D01*
X133727781Y-174438134D01*
X133709368Y-174449170D01*
X133689962Y-174458349D01*
X133669750Y-174465581D01*
X133648926Y-174470797D01*
X133627691Y-174473947D01*
X133606250Y-174475000D01*
X133168750Y-174475000D01*
X133147309Y-174473947D01*
X133126074Y-174470797D01*
X133105250Y-174465581D01*
X133085038Y-174458349D01*
X133065632Y-174449170D01*
X133047219Y-174438134D01*
X133029976Y-174425346D01*
X133014070Y-174410930D01*
X132999654Y-174395024D01*
X132986866Y-174377781D01*
X132975830Y-174359368D01*
X132966651Y-174339962D01*
X132959419Y-174319750D01*
X132954203Y-174298926D01*
X132951053Y-174277691D01*
X132950000Y-174256250D01*
X132950000Y-173743750D01*
X132951053Y-173722309D01*
X132954203Y-173701074D01*
X132959419Y-173680250D01*
X132966651Y-173660038D01*
X132975830Y-173640632D01*
X132986866Y-173622219D01*
X132999654Y-173604976D01*
X133014070Y-173589070D01*
X133029976Y-173574654D01*
X133047219Y-173561866D01*
X133065632Y-173550830D01*
X133085038Y-173541651D01*
X133105250Y-173534419D01*
X133126074Y-173529203D01*
X133147309Y-173526053D01*
X133168750Y-173525000D01*
X133606250Y-173525000D01*
X133627691Y-173526053D01*
X133627691Y-173526053D01*
G37*
D11*
X133387500Y-174000000D03*
D10*
G36*
X143277691Y-174651053D02*
G01*
X143298926Y-174654203D01*
X143319750Y-174659419D01*
X143339962Y-174666651D01*
X143359368Y-174675830D01*
X143377781Y-174686866D01*
X143395024Y-174699654D01*
X143410930Y-174714070D01*
X143425346Y-174729976D01*
X143438134Y-174747219D01*
X143449170Y-174765632D01*
X143458349Y-174785038D01*
X143465581Y-174805250D01*
X143470797Y-174826074D01*
X143473947Y-174847309D01*
X143475000Y-174868750D01*
X143475000Y-175306250D01*
X143473947Y-175327691D01*
X143470797Y-175348926D01*
X143465581Y-175369750D01*
X143458349Y-175389962D01*
X143449170Y-175409368D01*
X143438134Y-175427781D01*
X143425346Y-175445024D01*
X143410930Y-175460930D01*
X143395024Y-175475346D01*
X143377781Y-175488134D01*
X143359368Y-175499170D01*
X143339962Y-175508349D01*
X143319750Y-175515581D01*
X143298926Y-175520797D01*
X143277691Y-175523947D01*
X143256250Y-175525000D01*
X142743750Y-175525000D01*
X142722309Y-175523947D01*
X142701074Y-175520797D01*
X142680250Y-175515581D01*
X142660038Y-175508349D01*
X142640632Y-175499170D01*
X142622219Y-175488134D01*
X142604976Y-175475346D01*
X142589070Y-175460930D01*
X142574654Y-175445024D01*
X142561866Y-175427781D01*
X142550830Y-175409368D01*
X142541651Y-175389962D01*
X142534419Y-175369750D01*
X142529203Y-175348926D01*
X142526053Y-175327691D01*
X142525000Y-175306250D01*
X142525000Y-174868750D01*
X142526053Y-174847309D01*
X142529203Y-174826074D01*
X142534419Y-174805250D01*
X142541651Y-174785038D01*
X142550830Y-174765632D01*
X142561866Y-174747219D01*
X142574654Y-174729976D01*
X142589070Y-174714070D01*
X142604976Y-174699654D01*
X142622219Y-174686866D01*
X142640632Y-174675830D01*
X142660038Y-174666651D01*
X142680250Y-174659419D01*
X142701074Y-174654203D01*
X142722309Y-174651053D01*
X142743750Y-174650000D01*
X143256250Y-174650000D01*
X143277691Y-174651053D01*
X143277691Y-174651053D01*
G37*
D11*
X143000000Y-175087500D03*
D10*
G36*
X143277691Y-173076053D02*
G01*
X143298926Y-173079203D01*
X143319750Y-173084419D01*
X143339962Y-173091651D01*
X143359368Y-173100830D01*
X143377781Y-173111866D01*
X143395024Y-173124654D01*
X143410930Y-173139070D01*
X143425346Y-173154976D01*
X143438134Y-173172219D01*
X143449170Y-173190632D01*
X143458349Y-173210038D01*
X143465581Y-173230250D01*
X143470797Y-173251074D01*
X143473947Y-173272309D01*
X143475000Y-173293750D01*
X143475000Y-173731250D01*
X143473947Y-173752691D01*
X143470797Y-173773926D01*
X143465581Y-173794750D01*
X143458349Y-173814962D01*
X143449170Y-173834368D01*
X143438134Y-173852781D01*
X143425346Y-173870024D01*
X143410930Y-173885930D01*
X143395024Y-173900346D01*
X143377781Y-173913134D01*
X143359368Y-173924170D01*
X143339962Y-173933349D01*
X143319750Y-173940581D01*
X143298926Y-173945797D01*
X143277691Y-173948947D01*
X143256250Y-173950000D01*
X142743750Y-173950000D01*
X142722309Y-173948947D01*
X142701074Y-173945797D01*
X142680250Y-173940581D01*
X142660038Y-173933349D01*
X142640632Y-173924170D01*
X142622219Y-173913134D01*
X142604976Y-173900346D01*
X142589070Y-173885930D01*
X142574654Y-173870024D01*
X142561866Y-173852781D01*
X142550830Y-173834368D01*
X142541651Y-173814962D01*
X142534419Y-173794750D01*
X142529203Y-173773926D01*
X142526053Y-173752691D01*
X142525000Y-173731250D01*
X142525000Y-173293750D01*
X142526053Y-173272309D01*
X142529203Y-173251074D01*
X142534419Y-173230250D01*
X142541651Y-173210038D01*
X142550830Y-173190632D01*
X142561866Y-173172219D01*
X142574654Y-173154976D01*
X142589070Y-173139070D01*
X142604976Y-173124654D01*
X142622219Y-173111866D01*
X142640632Y-173100830D01*
X142660038Y-173091651D01*
X142680250Y-173084419D01*
X142701074Y-173079203D01*
X142722309Y-173076053D01*
X142743750Y-173075000D01*
X143256250Y-173075000D01*
X143277691Y-173076053D01*
X143277691Y-173076053D01*
G37*
D11*
X143000000Y-173512500D03*
D10*
G36*
X141627691Y-173526053D02*
G01*
X141648926Y-173529203D01*
X141669750Y-173534419D01*
X141689962Y-173541651D01*
X141709368Y-173550830D01*
X141727781Y-173561866D01*
X141745024Y-173574654D01*
X141760930Y-173589070D01*
X141775346Y-173604976D01*
X141788134Y-173622219D01*
X141799170Y-173640632D01*
X141808349Y-173660038D01*
X141815581Y-173680250D01*
X141820797Y-173701074D01*
X141823947Y-173722309D01*
X141825000Y-173743750D01*
X141825000Y-174256250D01*
X141823947Y-174277691D01*
X141820797Y-174298926D01*
X141815581Y-174319750D01*
X141808349Y-174339962D01*
X141799170Y-174359368D01*
X141788134Y-174377781D01*
X141775346Y-174395024D01*
X141760930Y-174410930D01*
X141745024Y-174425346D01*
X141727781Y-174438134D01*
X141709368Y-174449170D01*
X141689962Y-174458349D01*
X141669750Y-174465581D01*
X141648926Y-174470797D01*
X141627691Y-174473947D01*
X141606250Y-174475000D01*
X141168750Y-174475000D01*
X141147309Y-174473947D01*
X141126074Y-174470797D01*
X141105250Y-174465581D01*
X141085038Y-174458349D01*
X141065632Y-174449170D01*
X141047219Y-174438134D01*
X141029976Y-174425346D01*
X141014070Y-174410930D01*
X140999654Y-174395024D01*
X140986866Y-174377781D01*
X140975830Y-174359368D01*
X140966651Y-174339962D01*
X140959419Y-174319750D01*
X140954203Y-174298926D01*
X140951053Y-174277691D01*
X140950000Y-174256250D01*
X140950000Y-173743750D01*
X140951053Y-173722309D01*
X140954203Y-173701074D01*
X140959419Y-173680250D01*
X140966651Y-173660038D01*
X140975830Y-173640632D01*
X140986866Y-173622219D01*
X140999654Y-173604976D01*
X141014070Y-173589070D01*
X141029976Y-173574654D01*
X141047219Y-173561866D01*
X141065632Y-173550830D01*
X141085038Y-173541651D01*
X141105250Y-173534419D01*
X141126074Y-173529203D01*
X141147309Y-173526053D01*
X141168750Y-173525000D01*
X141606250Y-173525000D01*
X141627691Y-173526053D01*
X141627691Y-173526053D01*
G37*
D11*
X141387500Y-174000000D03*
D10*
G36*
X140052691Y-173526053D02*
G01*
X140073926Y-173529203D01*
X140094750Y-173534419D01*
X140114962Y-173541651D01*
X140134368Y-173550830D01*
X140152781Y-173561866D01*
X140170024Y-173574654D01*
X140185930Y-173589070D01*
X140200346Y-173604976D01*
X140213134Y-173622219D01*
X140224170Y-173640632D01*
X140233349Y-173660038D01*
X140240581Y-173680250D01*
X140245797Y-173701074D01*
X140248947Y-173722309D01*
X140250000Y-173743750D01*
X140250000Y-174256250D01*
X140248947Y-174277691D01*
X140245797Y-174298926D01*
X140240581Y-174319750D01*
X140233349Y-174339962D01*
X140224170Y-174359368D01*
X140213134Y-174377781D01*
X140200346Y-174395024D01*
X140185930Y-174410930D01*
X140170024Y-174425346D01*
X140152781Y-174438134D01*
X140134368Y-174449170D01*
X140114962Y-174458349D01*
X140094750Y-174465581D01*
X140073926Y-174470797D01*
X140052691Y-174473947D01*
X140031250Y-174475000D01*
X139593750Y-174475000D01*
X139572309Y-174473947D01*
X139551074Y-174470797D01*
X139530250Y-174465581D01*
X139510038Y-174458349D01*
X139490632Y-174449170D01*
X139472219Y-174438134D01*
X139454976Y-174425346D01*
X139439070Y-174410930D01*
X139424654Y-174395024D01*
X139411866Y-174377781D01*
X139400830Y-174359368D01*
X139391651Y-174339962D01*
X139384419Y-174319750D01*
X139379203Y-174298926D01*
X139376053Y-174277691D01*
X139375000Y-174256250D01*
X139375000Y-173743750D01*
X139376053Y-173722309D01*
X139379203Y-173701074D01*
X139384419Y-173680250D01*
X139391651Y-173660038D01*
X139400830Y-173640632D01*
X139411866Y-173622219D01*
X139424654Y-173604976D01*
X139439070Y-173589070D01*
X139454976Y-173574654D01*
X139472219Y-173561866D01*
X139490632Y-173550830D01*
X139510038Y-173541651D01*
X139530250Y-173534419D01*
X139551074Y-173529203D01*
X139572309Y-173526053D01*
X139593750Y-173525000D01*
X140031250Y-173525000D01*
X140052691Y-173526053D01*
X140052691Y-173526053D01*
G37*
D11*
X139812500Y-174000000D03*
D13*
X145100000Y-171500000D03*
X144400000Y-171500000D03*
X143700000Y-171500000D03*
X143000000Y-171500000D03*
X142300000Y-171500000D03*
X141600000Y-171500000D03*
X140900000Y-171500000D03*
X140200000Y-171500000D03*
X139500000Y-171500000D03*
X138800000Y-171500000D03*
X138100000Y-171500000D03*
X137400000Y-171500000D03*
X136700000Y-171500000D03*
X136000000Y-171500000D03*
X135300000Y-171500000D03*
X134600000Y-171500000D03*
X133900000Y-171500000D03*
X133200000Y-171500000D03*
X132500000Y-171500000D03*
X131800000Y-171500000D03*
X131100000Y-171500000D03*
X130400000Y-171500000D03*
X129700000Y-171500000D03*
X129000000Y-171500000D03*
X128300000Y-171500000D03*
X127600000Y-171500000D03*
X126900000Y-171500000D03*
X126200000Y-171500000D03*
X125500000Y-171500000D03*
X124800000Y-171500000D03*
D12*
X147350000Y-169680000D03*
X151850000Y-169680000D03*
X151850000Y-161720000D03*
X147350000Y-161720000D03*
D10*
G36*
X85927691Y-173526053D02*
G01*
X85948926Y-173529203D01*
X85969750Y-173534419D01*
X85989962Y-173541651D01*
X86009368Y-173550830D01*
X86027781Y-173561866D01*
X86045024Y-173574654D01*
X86060930Y-173589070D01*
X86075346Y-173604976D01*
X86088134Y-173622219D01*
X86099170Y-173640632D01*
X86108349Y-173660038D01*
X86115581Y-173680250D01*
X86120797Y-173701074D01*
X86123947Y-173722309D01*
X86125000Y-173743750D01*
X86125000Y-174256250D01*
X86123947Y-174277691D01*
X86120797Y-174298926D01*
X86115581Y-174319750D01*
X86108349Y-174339962D01*
X86099170Y-174359368D01*
X86088134Y-174377781D01*
X86075346Y-174395024D01*
X86060930Y-174410930D01*
X86045024Y-174425346D01*
X86027781Y-174438134D01*
X86009368Y-174449170D01*
X85989962Y-174458349D01*
X85969750Y-174465581D01*
X85948926Y-174470797D01*
X85927691Y-174473947D01*
X85906250Y-174475000D01*
X85468750Y-174475000D01*
X85447309Y-174473947D01*
X85426074Y-174470797D01*
X85405250Y-174465581D01*
X85385038Y-174458349D01*
X85365632Y-174449170D01*
X85347219Y-174438134D01*
X85329976Y-174425346D01*
X85314070Y-174410930D01*
X85299654Y-174395024D01*
X85286866Y-174377781D01*
X85275830Y-174359368D01*
X85266651Y-174339962D01*
X85259419Y-174319750D01*
X85254203Y-174298926D01*
X85251053Y-174277691D01*
X85250000Y-174256250D01*
X85250000Y-173743750D01*
X85251053Y-173722309D01*
X85254203Y-173701074D01*
X85259419Y-173680250D01*
X85266651Y-173660038D01*
X85275830Y-173640632D01*
X85286866Y-173622219D01*
X85299654Y-173604976D01*
X85314070Y-173589070D01*
X85329976Y-173574654D01*
X85347219Y-173561866D01*
X85365632Y-173550830D01*
X85385038Y-173541651D01*
X85405250Y-173534419D01*
X85426074Y-173529203D01*
X85447309Y-173526053D01*
X85468750Y-173525000D01*
X85906250Y-173525000D01*
X85927691Y-173526053D01*
X85927691Y-173526053D01*
G37*
D11*
X85687500Y-174000000D03*
D10*
G36*
X84352691Y-173526053D02*
G01*
X84373926Y-173529203D01*
X84394750Y-173534419D01*
X84414962Y-173541651D01*
X84434368Y-173550830D01*
X84452781Y-173561866D01*
X84470024Y-173574654D01*
X84485930Y-173589070D01*
X84500346Y-173604976D01*
X84513134Y-173622219D01*
X84524170Y-173640632D01*
X84533349Y-173660038D01*
X84540581Y-173680250D01*
X84545797Y-173701074D01*
X84548947Y-173722309D01*
X84550000Y-173743750D01*
X84550000Y-174256250D01*
X84548947Y-174277691D01*
X84545797Y-174298926D01*
X84540581Y-174319750D01*
X84533349Y-174339962D01*
X84524170Y-174359368D01*
X84513134Y-174377781D01*
X84500346Y-174395024D01*
X84485930Y-174410930D01*
X84470024Y-174425346D01*
X84452781Y-174438134D01*
X84434368Y-174449170D01*
X84414962Y-174458349D01*
X84394750Y-174465581D01*
X84373926Y-174470797D01*
X84352691Y-174473947D01*
X84331250Y-174475000D01*
X83893750Y-174475000D01*
X83872309Y-174473947D01*
X83851074Y-174470797D01*
X83830250Y-174465581D01*
X83810038Y-174458349D01*
X83790632Y-174449170D01*
X83772219Y-174438134D01*
X83754976Y-174425346D01*
X83739070Y-174410930D01*
X83724654Y-174395024D01*
X83711866Y-174377781D01*
X83700830Y-174359368D01*
X83691651Y-174339962D01*
X83684419Y-174319750D01*
X83679203Y-174298926D01*
X83676053Y-174277691D01*
X83675000Y-174256250D01*
X83675000Y-173743750D01*
X83676053Y-173722309D01*
X83679203Y-173701074D01*
X83684419Y-173680250D01*
X83691651Y-173660038D01*
X83700830Y-173640632D01*
X83711866Y-173622219D01*
X83724654Y-173604976D01*
X83739070Y-173589070D01*
X83754976Y-173574654D01*
X83772219Y-173561866D01*
X83790632Y-173550830D01*
X83810038Y-173541651D01*
X83830250Y-173534419D01*
X83851074Y-173529203D01*
X83872309Y-173526053D01*
X83893750Y-173525000D01*
X84331250Y-173525000D01*
X84352691Y-173526053D01*
X84352691Y-173526053D01*
G37*
D11*
X84112500Y-174000000D03*
D10*
G36*
X95577691Y-173076053D02*
G01*
X95598926Y-173079203D01*
X95619750Y-173084419D01*
X95639962Y-173091651D01*
X95659368Y-173100830D01*
X95677781Y-173111866D01*
X95695024Y-173124654D01*
X95710930Y-173139070D01*
X95725346Y-173154976D01*
X95738134Y-173172219D01*
X95749170Y-173190632D01*
X95758349Y-173210038D01*
X95765581Y-173230250D01*
X95770797Y-173251074D01*
X95773947Y-173272309D01*
X95775000Y-173293750D01*
X95775000Y-173731250D01*
X95773947Y-173752691D01*
X95770797Y-173773926D01*
X95765581Y-173794750D01*
X95758349Y-173814962D01*
X95749170Y-173834368D01*
X95738134Y-173852781D01*
X95725346Y-173870024D01*
X95710930Y-173885930D01*
X95695024Y-173900346D01*
X95677781Y-173913134D01*
X95659368Y-173924170D01*
X95639962Y-173933349D01*
X95619750Y-173940581D01*
X95598926Y-173945797D01*
X95577691Y-173948947D01*
X95556250Y-173950000D01*
X95043750Y-173950000D01*
X95022309Y-173948947D01*
X95001074Y-173945797D01*
X94980250Y-173940581D01*
X94960038Y-173933349D01*
X94940632Y-173924170D01*
X94922219Y-173913134D01*
X94904976Y-173900346D01*
X94889070Y-173885930D01*
X94874654Y-173870024D01*
X94861866Y-173852781D01*
X94850830Y-173834368D01*
X94841651Y-173814962D01*
X94834419Y-173794750D01*
X94829203Y-173773926D01*
X94826053Y-173752691D01*
X94825000Y-173731250D01*
X94825000Y-173293750D01*
X94826053Y-173272309D01*
X94829203Y-173251074D01*
X94834419Y-173230250D01*
X94841651Y-173210038D01*
X94850830Y-173190632D01*
X94861866Y-173172219D01*
X94874654Y-173154976D01*
X94889070Y-173139070D01*
X94904976Y-173124654D01*
X94922219Y-173111866D01*
X94940632Y-173100830D01*
X94960038Y-173091651D01*
X94980250Y-173084419D01*
X95001074Y-173079203D01*
X95022309Y-173076053D01*
X95043750Y-173075000D01*
X95556250Y-173075000D01*
X95577691Y-173076053D01*
X95577691Y-173076053D01*
G37*
D11*
X95300000Y-173512500D03*
D10*
G36*
X95577691Y-174651053D02*
G01*
X95598926Y-174654203D01*
X95619750Y-174659419D01*
X95639962Y-174666651D01*
X95659368Y-174675830D01*
X95677781Y-174686866D01*
X95695024Y-174699654D01*
X95710930Y-174714070D01*
X95725346Y-174729976D01*
X95738134Y-174747219D01*
X95749170Y-174765632D01*
X95758349Y-174785038D01*
X95765581Y-174805250D01*
X95770797Y-174826074D01*
X95773947Y-174847309D01*
X95775000Y-174868750D01*
X95775000Y-175306250D01*
X95773947Y-175327691D01*
X95770797Y-175348926D01*
X95765581Y-175369750D01*
X95758349Y-175389962D01*
X95749170Y-175409368D01*
X95738134Y-175427781D01*
X95725346Y-175445024D01*
X95710930Y-175460930D01*
X95695024Y-175475346D01*
X95677781Y-175488134D01*
X95659368Y-175499170D01*
X95639962Y-175508349D01*
X95619750Y-175515581D01*
X95598926Y-175520797D01*
X95577691Y-175523947D01*
X95556250Y-175525000D01*
X95043750Y-175525000D01*
X95022309Y-175523947D01*
X95001074Y-175520797D01*
X94980250Y-175515581D01*
X94960038Y-175508349D01*
X94940632Y-175499170D01*
X94922219Y-175488134D01*
X94904976Y-175475346D01*
X94889070Y-175460930D01*
X94874654Y-175445024D01*
X94861866Y-175427781D01*
X94850830Y-175409368D01*
X94841651Y-175389962D01*
X94834419Y-175369750D01*
X94829203Y-175348926D01*
X94826053Y-175327691D01*
X94825000Y-175306250D01*
X94825000Y-174868750D01*
X94826053Y-174847309D01*
X94829203Y-174826074D01*
X94834419Y-174805250D01*
X94841651Y-174785038D01*
X94850830Y-174765632D01*
X94861866Y-174747219D01*
X94874654Y-174729976D01*
X94889070Y-174714070D01*
X94904976Y-174699654D01*
X94922219Y-174686866D01*
X94940632Y-174675830D01*
X94960038Y-174666651D01*
X94980250Y-174659419D01*
X95001074Y-174654203D01*
X95022309Y-174651053D01*
X95043750Y-174650000D01*
X95556250Y-174650000D01*
X95577691Y-174651053D01*
X95577691Y-174651053D01*
G37*
D11*
X95300000Y-175087500D03*
D10*
G36*
X92352691Y-173526053D02*
G01*
X92373926Y-173529203D01*
X92394750Y-173534419D01*
X92414962Y-173541651D01*
X92434368Y-173550830D01*
X92452781Y-173561866D01*
X92470024Y-173574654D01*
X92485930Y-173589070D01*
X92500346Y-173604976D01*
X92513134Y-173622219D01*
X92524170Y-173640632D01*
X92533349Y-173660038D01*
X92540581Y-173680250D01*
X92545797Y-173701074D01*
X92548947Y-173722309D01*
X92550000Y-173743750D01*
X92550000Y-174256250D01*
X92548947Y-174277691D01*
X92545797Y-174298926D01*
X92540581Y-174319750D01*
X92533349Y-174339962D01*
X92524170Y-174359368D01*
X92513134Y-174377781D01*
X92500346Y-174395024D01*
X92485930Y-174410930D01*
X92470024Y-174425346D01*
X92452781Y-174438134D01*
X92434368Y-174449170D01*
X92414962Y-174458349D01*
X92394750Y-174465581D01*
X92373926Y-174470797D01*
X92352691Y-174473947D01*
X92331250Y-174475000D01*
X91893750Y-174475000D01*
X91872309Y-174473947D01*
X91851074Y-174470797D01*
X91830250Y-174465581D01*
X91810038Y-174458349D01*
X91790632Y-174449170D01*
X91772219Y-174438134D01*
X91754976Y-174425346D01*
X91739070Y-174410930D01*
X91724654Y-174395024D01*
X91711866Y-174377781D01*
X91700830Y-174359368D01*
X91691651Y-174339962D01*
X91684419Y-174319750D01*
X91679203Y-174298926D01*
X91676053Y-174277691D01*
X91675000Y-174256250D01*
X91675000Y-173743750D01*
X91676053Y-173722309D01*
X91679203Y-173701074D01*
X91684419Y-173680250D01*
X91691651Y-173660038D01*
X91700830Y-173640632D01*
X91711866Y-173622219D01*
X91724654Y-173604976D01*
X91739070Y-173589070D01*
X91754976Y-173574654D01*
X91772219Y-173561866D01*
X91790632Y-173550830D01*
X91810038Y-173541651D01*
X91830250Y-173534419D01*
X91851074Y-173529203D01*
X91872309Y-173526053D01*
X91893750Y-173525000D01*
X92331250Y-173525000D01*
X92352691Y-173526053D01*
X92352691Y-173526053D01*
G37*
D11*
X92112500Y-174000000D03*
D10*
G36*
X93927691Y-173526053D02*
G01*
X93948926Y-173529203D01*
X93969750Y-173534419D01*
X93989962Y-173541651D01*
X94009368Y-173550830D01*
X94027781Y-173561866D01*
X94045024Y-173574654D01*
X94060930Y-173589070D01*
X94075346Y-173604976D01*
X94088134Y-173622219D01*
X94099170Y-173640632D01*
X94108349Y-173660038D01*
X94115581Y-173680250D01*
X94120797Y-173701074D01*
X94123947Y-173722309D01*
X94125000Y-173743750D01*
X94125000Y-174256250D01*
X94123947Y-174277691D01*
X94120797Y-174298926D01*
X94115581Y-174319750D01*
X94108349Y-174339962D01*
X94099170Y-174359368D01*
X94088134Y-174377781D01*
X94075346Y-174395024D01*
X94060930Y-174410930D01*
X94045024Y-174425346D01*
X94027781Y-174438134D01*
X94009368Y-174449170D01*
X93989962Y-174458349D01*
X93969750Y-174465581D01*
X93948926Y-174470797D01*
X93927691Y-174473947D01*
X93906250Y-174475000D01*
X93468750Y-174475000D01*
X93447309Y-174473947D01*
X93426074Y-174470797D01*
X93405250Y-174465581D01*
X93385038Y-174458349D01*
X93365632Y-174449170D01*
X93347219Y-174438134D01*
X93329976Y-174425346D01*
X93314070Y-174410930D01*
X93299654Y-174395024D01*
X93286866Y-174377781D01*
X93275830Y-174359368D01*
X93266651Y-174339962D01*
X93259419Y-174319750D01*
X93254203Y-174298926D01*
X93251053Y-174277691D01*
X93250000Y-174256250D01*
X93250000Y-173743750D01*
X93251053Y-173722309D01*
X93254203Y-173701074D01*
X93259419Y-173680250D01*
X93266651Y-173660038D01*
X93275830Y-173640632D01*
X93286866Y-173622219D01*
X93299654Y-173604976D01*
X93314070Y-173589070D01*
X93329976Y-173574654D01*
X93347219Y-173561866D01*
X93365632Y-173550830D01*
X93385038Y-173541651D01*
X93405250Y-173534419D01*
X93426074Y-173529203D01*
X93447309Y-173526053D01*
X93468750Y-173525000D01*
X93906250Y-173525000D01*
X93927691Y-173526053D01*
X93927691Y-173526053D01*
G37*
D11*
X93687500Y-174000000D03*
D12*
X99650000Y-161720000D03*
X104150000Y-161720000D03*
X104150000Y-169680000D03*
X99650000Y-169680000D03*
D13*
X77100000Y-171500000D03*
X77800000Y-171500000D03*
X78500000Y-171500000D03*
X79200000Y-171500000D03*
X79900000Y-171500000D03*
X80600000Y-171500000D03*
X81300000Y-171500000D03*
X82000000Y-171500000D03*
X82700000Y-171500000D03*
X83400000Y-171500000D03*
X84100000Y-171500000D03*
X84800000Y-171500000D03*
X85500000Y-171500000D03*
X86200000Y-171500000D03*
X86900000Y-171500000D03*
X87600000Y-171500000D03*
X88300000Y-171500000D03*
X89000000Y-171500000D03*
X89700000Y-171500000D03*
X90400000Y-171500000D03*
X91100000Y-171500000D03*
X91800000Y-171500000D03*
X92500000Y-171500000D03*
X93200000Y-171500000D03*
X93900000Y-171500000D03*
X94600000Y-171500000D03*
X95300000Y-171500000D03*
X96000000Y-171500000D03*
X96700000Y-171500000D03*
X97400000Y-171500000D03*
D10*
G36*
X144777691Y-123051053D02*
G01*
X144798926Y-123054203D01*
X144819750Y-123059419D01*
X144839962Y-123066651D01*
X144859368Y-123075830D01*
X144877781Y-123086866D01*
X144895024Y-123099654D01*
X144910930Y-123114070D01*
X144925346Y-123129976D01*
X144938134Y-123147219D01*
X144949170Y-123165632D01*
X144958349Y-123185038D01*
X144965581Y-123205250D01*
X144970797Y-123226074D01*
X144973947Y-123247309D01*
X144975000Y-123268750D01*
X144975000Y-123706250D01*
X144973947Y-123727691D01*
X144970797Y-123748926D01*
X144965581Y-123769750D01*
X144958349Y-123789962D01*
X144949170Y-123809368D01*
X144938134Y-123827781D01*
X144925346Y-123845024D01*
X144910930Y-123860930D01*
X144895024Y-123875346D01*
X144877781Y-123888134D01*
X144859368Y-123899170D01*
X144839962Y-123908349D01*
X144819750Y-123915581D01*
X144798926Y-123920797D01*
X144777691Y-123923947D01*
X144756250Y-123925000D01*
X144243750Y-123925000D01*
X144222309Y-123923947D01*
X144201074Y-123920797D01*
X144180250Y-123915581D01*
X144160038Y-123908349D01*
X144140632Y-123899170D01*
X144122219Y-123888134D01*
X144104976Y-123875346D01*
X144089070Y-123860930D01*
X144074654Y-123845024D01*
X144061866Y-123827781D01*
X144050830Y-123809368D01*
X144041651Y-123789962D01*
X144034419Y-123769750D01*
X144029203Y-123748926D01*
X144026053Y-123727691D01*
X144025000Y-123706250D01*
X144025000Y-123268750D01*
X144026053Y-123247309D01*
X144029203Y-123226074D01*
X144034419Y-123205250D01*
X144041651Y-123185038D01*
X144050830Y-123165632D01*
X144061866Y-123147219D01*
X144074654Y-123129976D01*
X144089070Y-123114070D01*
X144104976Y-123099654D01*
X144122219Y-123086866D01*
X144140632Y-123075830D01*
X144160038Y-123066651D01*
X144180250Y-123059419D01*
X144201074Y-123054203D01*
X144222309Y-123051053D01*
X144243750Y-123050000D01*
X144756250Y-123050000D01*
X144777691Y-123051053D01*
X144777691Y-123051053D01*
G37*
D11*
X144500000Y-123487500D03*
D10*
G36*
X144777691Y-121476053D02*
G01*
X144798926Y-121479203D01*
X144819750Y-121484419D01*
X144839962Y-121491651D01*
X144859368Y-121500830D01*
X144877781Y-121511866D01*
X144895024Y-121524654D01*
X144910930Y-121539070D01*
X144925346Y-121554976D01*
X144938134Y-121572219D01*
X144949170Y-121590632D01*
X144958349Y-121610038D01*
X144965581Y-121630250D01*
X144970797Y-121651074D01*
X144973947Y-121672309D01*
X144975000Y-121693750D01*
X144975000Y-122131250D01*
X144973947Y-122152691D01*
X144970797Y-122173926D01*
X144965581Y-122194750D01*
X144958349Y-122214962D01*
X144949170Y-122234368D01*
X144938134Y-122252781D01*
X144925346Y-122270024D01*
X144910930Y-122285930D01*
X144895024Y-122300346D01*
X144877781Y-122313134D01*
X144859368Y-122324170D01*
X144839962Y-122333349D01*
X144819750Y-122340581D01*
X144798926Y-122345797D01*
X144777691Y-122348947D01*
X144756250Y-122350000D01*
X144243750Y-122350000D01*
X144222309Y-122348947D01*
X144201074Y-122345797D01*
X144180250Y-122340581D01*
X144160038Y-122333349D01*
X144140632Y-122324170D01*
X144122219Y-122313134D01*
X144104976Y-122300346D01*
X144089070Y-122285930D01*
X144074654Y-122270024D01*
X144061866Y-122252781D01*
X144050830Y-122234368D01*
X144041651Y-122214962D01*
X144034419Y-122194750D01*
X144029203Y-122173926D01*
X144026053Y-122152691D01*
X144025000Y-122131250D01*
X144025000Y-121693750D01*
X144026053Y-121672309D01*
X144029203Y-121651074D01*
X144034419Y-121630250D01*
X144041651Y-121610038D01*
X144050830Y-121590632D01*
X144061866Y-121572219D01*
X144074654Y-121554976D01*
X144089070Y-121539070D01*
X144104976Y-121524654D01*
X144122219Y-121511866D01*
X144140632Y-121500830D01*
X144160038Y-121491651D01*
X144180250Y-121484419D01*
X144201074Y-121479203D01*
X144222309Y-121476053D01*
X144243750Y-121475000D01*
X144756250Y-121475000D01*
X144777691Y-121476053D01*
X144777691Y-121476053D01*
G37*
D11*
X144500000Y-121912500D03*
D12*
X122525000Y-110095000D03*
X118025000Y-110095000D03*
X118025000Y-118055000D03*
X122525000Y-118055000D03*
D10*
G36*
X129127691Y-121926053D02*
G01*
X129148926Y-121929203D01*
X129169750Y-121934419D01*
X129189962Y-121941651D01*
X129209368Y-121950830D01*
X129227781Y-121961866D01*
X129245024Y-121974654D01*
X129260930Y-121989070D01*
X129275346Y-122004976D01*
X129288134Y-122022219D01*
X129299170Y-122040632D01*
X129308349Y-122060038D01*
X129315581Y-122080250D01*
X129320797Y-122101074D01*
X129323947Y-122122309D01*
X129325000Y-122143750D01*
X129325000Y-122656250D01*
X129323947Y-122677691D01*
X129320797Y-122698926D01*
X129315581Y-122719750D01*
X129308349Y-122739962D01*
X129299170Y-122759368D01*
X129288134Y-122777781D01*
X129275346Y-122795024D01*
X129260930Y-122810930D01*
X129245024Y-122825346D01*
X129227781Y-122838134D01*
X129209368Y-122849170D01*
X129189962Y-122858349D01*
X129169750Y-122865581D01*
X129148926Y-122870797D01*
X129127691Y-122873947D01*
X129106250Y-122875000D01*
X128668750Y-122875000D01*
X128647309Y-122873947D01*
X128626074Y-122870797D01*
X128605250Y-122865581D01*
X128585038Y-122858349D01*
X128565632Y-122849170D01*
X128547219Y-122838134D01*
X128529976Y-122825346D01*
X128514070Y-122810930D01*
X128499654Y-122795024D01*
X128486866Y-122777781D01*
X128475830Y-122759368D01*
X128466651Y-122739962D01*
X128459419Y-122719750D01*
X128454203Y-122698926D01*
X128451053Y-122677691D01*
X128450000Y-122656250D01*
X128450000Y-122143750D01*
X128451053Y-122122309D01*
X128454203Y-122101074D01*
X128459419Y-122080250D01*
X128466651Y-122060038D01*
X128475830Y-122040632D01*
X128486866Y-122022219D01*
X128499654Y-122004976D01*
X128514070Y-121989070D01*
X128529976Y-121974654D01*
X128547219Y-121961866D01*
X128565632Y-121950830D01*
X128585038Y-121941651D01*
X128605250Y-121934419D01*
X128626074Y-121929203D01*
X128647309Y-121926053D01*
X128668750Y-121925000D01*
X129106250Y-121925000D01*
X129127691Y-121926053D01*
X129127691Y-121926053D01*
G37*
D11*
X128887500Y-122400000D03*
D10*
G36*
X127552691Y-121926053D02*
G01*
X127573926Y-121929203D01*
X127594750Y-121934419D01*
X127614962Y-121941651D01*
X127634368Y-121950830D01*
X127652781Y-121961866D01*
X127670024Y-121974654D01*
X127685930Y-121989070D01*
X127700346Y-122004976D01*
X127713134Y-122022219D01*
X127724170Y-122040632D01*
X127733349Y-122060038D01*
X127740581Y-122080250D01*
X127745797Y-122101074D01*
X127748947Y-122122309D01*
X127750000Y-122143750D01*
X127750000Y-122656250D01*
X127748947Y-122677691D01*
X127745797Y-122698926D01*
X127740581Y-122719750D01*
X127733349Y-122739962D01*
X127724170Y-122759368D01*
X127713134Y-122777781D01*
X127700346Y-122795024D01*
X127685930Y-122810930D01*
X127670024Y-122825346D01*
X127652781Y-122838134D01*
X127634368Y-122849170D01*
X127614962Y-122858349D01*
X127594750Y-122865581D01*
X127573926Y-122870797D01*
X127552691Y-122873947D01*
X127531250Y-122875000D01*
X127093750Y-122875000D01*
X127072309Y-122873947D01*
X127051074Y-122870797D01*
X127030250Y-122865581D01*
X127010038Y-122858349D01*
X126990632Y-122849170D01*
X126972219Y-122838134D01*
X126954976Y-122825346D01*
X126939070Y-122810930D01*
X126924654Y-122795024D01*
X126911866Y-122777781D01*
X126900830Y-122759368D01*
X126891651Y-122739962D01*
X126884419Y-122719750D01*
X126879203Y-122698926D01*
X126876053Y-122677691D01*
X126875000Y-122656250D01*
X126875000Y-122143750D01*
X126876053Y-122122309D01*
X126879203Y-122101074D01*
X126884419Y-122080250D01*
X126891651Y-122060038D01*
X126900830Y-122040632D01*
X126911866Y-122022219D01*
X126924654Y-122004976D01*
X126939070Y-121989070D01*
X126954976Y-121974654D01*
X126972219Y-121961866D01*
X126990632Y-121950830D01*
X127010038Y-121941651D01*
X127030250Y-121934419D01*
X127051074Y-121929203D01*
X127072309Y-121926053D01*
X127093750Y-121925000D01*
X127531250Y-121925000D01*
X127552691Y-121926053D01*
X127552691Y-121926053D01*
G37*
D11*
X127312500Y-122400000D03*
D10*
G36*
X124365191Y-121926053D02*
G01*
X124386426Y-121929203D01*
X124407250Y-121934419D01*
X124427462Y-121941651D01*
X124446868Y-121950830D01*
X124465281Y-121961866D01*
X124482524Y-121974654D01*
X124498430Y-121989070D01*
X124512846Y-122004976D01*
X124525634Y-122022219D01*
X124536670Y-122040632D01*
X124545849Y-122060038D01*
X124553081Y-122080250D01*
X124558297Y-122101074D01*
X124561447Y-122122309D01*
X124562500Y-122143750D01*
X124562500Y-122656250D01*
X124561447Y-122677691D01*
X124558297Y-122698926D01*
X124553081Y-122719750D01*
X124545849Y-122739962D01*
X124536670Y-122759368D01*
X124525634Y-122777781D01*
X124512846Y-122795024D01*
X124498430Y-122810930D01*
X124482524Y-122825346D01*
X124465281Y-122838134D01*
X124446868Y-122849170D01*
X124427462Y-122858349D01*
X124407250Y-122865581D01*
X124386426Y-122870797D01*
X124365191Y-122873947D01*
X124343750Y-122875000D01*
X123906250Y-122875000D01*
X123884809Y-122873947D01*
X123863574Y-122870797D01*
X123842750Y-122865581D01*
X123822538Y-122858349D01*
X123803132Y-122849170D01*
X123784719Y-122838134D01*
X123767476Y-122825346D01*
X123751570Y-122810930D01*
X123737154Y-122795024D01*
X123724366Y-122777781D01*
X123713330Y-122759368D01*
X123704151Y-122739962D01*
X123696919Y-122719750D01*
X123691703Y-122698926D01*
X123688553Y-122677691D01*
X123687500Y-122656250D01*
X123687500Y-122143750D01*
X123688553Y-122122309D01*
X123691703Y-122101074D01*
X123696919Y-122080250D01*
X123704151Y-122060038D01*
X123713330Y-122040632D01*
X123724366Y-122022219D01*
X123737154Y-122004976D01*
X123751570Y-121989070D01*
X123767476Y-121974654D01*
X123784719Y-121961866D01*
X123803132Y-121950830D01*
X123822538Y-121941651D01*
X123842750Y-121934419D01*
X123863574Y-121929203D01*
X123884809Y-121926053D01*
X123906250Y-121925000D01*
X124343750Y-121925000D01*
X124365191Y-121926053D01*
X124365191Y-121926053D01*
G37*
D11*
X124125000Y-122400000D03*
D10*
G36*
X125940191Y-121926053D02*
G01*
X125961426Y-121929203D01*
X125982250Y-121934419D01*
X126002462Y-121941651D01*
X126021868Y-121950830D01*
X126040281Y-121961866D01*
X126057524Y-121974654D01*
X126073430Y-121989070D01*
X126087846Y-122004976D01*
X126100634Y-122022219D01*
X126111670Y-122040632D01*
X126120849Y-122060038D01*
X126128081Y-122080250D01*
X126133297Y-122101074D01*
X126136447Y-122122309D01*
X126137500Y-122143750D01*
X126137500Y-122656250D01*
X126136447Y-122677691D01*
X126133297Y-122698926D01*
X126128081Y-122719750D01*
X126120849Y-122739962D01*
X126111670Y-122759368D01*
X126100634Y-122777781D01*
X126087846Y-122795024D01*
X126073430Y-122810930D01*
X126057524Y-122825346D01*
X126040281Y-122838134D01*
X126021868Y-122849170D01*
X126002462Y-122858349D01*
X125982250Y-122865581D01*
X125961426Y-122870797D01*
X125940191Y-122873947D01*
X125918750Y-122875000D01*
X125481250Y-122875000D01*
X125459809Y-122873947D01*
X125438574Y-122870797D01*
X125417750Y-122865581D01*
X125397538Y-122858349D01*
X125378132Y-122849170D01*
X125359719Y-122838134D01*
X125342476Y-122825346D01*
X125326570Y-122810930D01*
X125312154Y-122795024D01*
X125299366Y-122777781D01*
X125288330Y-122759368D01*
X125279151Y-122739962D01*
X125271919Y-122719750D01*
X125266703Y-122698926D01*
X125263553Y-122677691D01*
X125262500Y-122656250D01*
X125262500Y-122143750D01*
X125263553Y-122122309D01*
X125266703Y-122101074D01*
X125271919Y-122080250D01*
X125279151Y-122060038D01*
X125288330Y-122040632D01*
X125299366Y-122022219D01*
X125312154Y-122004976D01*
X125326570Y-121989070D01*
X125342476Y-121974654D01*
X125359719Y-121961866D01*
X125378132Y-121950830D01*
X125397538Y-121941651D01*
X125417750Y-121934419D01*
X125438574Y-121929203D01*
X125459809Y-121926053D01*
X125481250Y-121925000D01*
X125918750Y-121925000D01*
X125940191Y-121926053D01*
X125940191Y-121926053D01*
G37*
D11*
X125700000Y-122400000D03*
D10*
G36*
X136727691Y-123051053D02*
G01*
X136748926Y-123054203D01*
X136769750Y-123059419D01*
X136789962Y-123066651D01*
X136809368Y-123075830D01*
X136827781Y-123086866D01*
X136845024Y-123099654D01*
X136860930Y-123114070D01*
X136875346Y-123129976D01*
X136888134Y-123147219D01*
X136899170Y-123165632D01*
X136908349Y-123185038D01*
X136915581Y-123205250D01*
X136920797Y-123226074D01*
X136923947Y-123247309D01*
X136925000Y-123268750D01*
X136925000Y-123706250D01*
X136923947Y-123727691D01*
X136920797Y-123748926D01*
X136915581Y-123769750D01*
X136908349Y-123789962D01*
X136899170Y-123809368D01*
X136888134Y-123827781D01*
X136875346Y-123845024D01*
X136860930Y-123860930D01*
X136845024Y-123875346D01*
X136827781Y-123888134D01*
X136809368Y-123899170D01*
X136789962Y-123908349D01*
X136769750Y-123915581D01*
X136748926Y-123920797D01*
X136727691Y-123923947D01*
X136706250Y-123925000D01*
X136193750Y-123925000D01*
X136172309Y-123923947D01*
X136151074Y-123920797D01*
X136130250Y-123915581D01*
X136110038Y-123908349D01*
X136090632Y-123899170D01*
X136072219Y-123888134D01*
X136054976Y-123875346D01*
X136039070Y-123860930D01*
X136024654Y-123845024D01*
X136011866Y-123827781D01*
X136000830Y-123809368D01*
X135991651Y-123789962D01*
X135984419Y-123769750D01*
X135979203Y-123748926D01*
X135976053Y-123727691D01*
X135975000Y-123706250D01*
X135975000Y-123268750D01*
X135976053Y-123247309D01*
X135979203Y-123226074D01*
X135984419Y-123205250D01*
X135991651Y-123185038D01*
X136000830Y-123165632D01*
X136011866Y-123147219D01*
X136024654Y-123129976D01*
X136039070Y-123114070D01*
X136054976Y-123099654D01*
X136072219Y-123086866D01*
X136090632Y-123075830D01*
X136110038Y-123066651D01*
X136130250Y-123059419D01*
X136151074Y-123054203D01*
X136172309Y-123051053D01*
X136193750Y-123050000D01*
X136706250Y-123050000D01*
X136727691Y-123051053D01*
X136727691Y-123051053D01*
G37*
D11*
X136450000Y-123487500D03*
D10*
G36*
X136727691Y-121476053D02*
G01*
X136748926Y-121479203D01*
X136769750Y-121484419D01*
X136789962Y-121491651D01*
X136809368Y-121500830D01*
X136827781Y-121511866D01*
X136845024Y-121524654D01*
X136860930Y-121539070D01*
X136875346Y-121554976D01*
X136888134Y-121572219D01*
X136899170Y-121590632D01*
X136908349Y-121610038D01*
X136915581Y-121630250D01*
X136920797Y-121651074D01*
X136923947Y-121672309D01*
X136925000Y-121693750D01*
X136925000Y-122131250D01*
X136923947Y-122152691D01*
X136920797Y-122173926D01*
X136915581Y-122194750D01*
X136908349Y-122214962D01*
X136899170Y-122234368D01*
X136888134Y-122252781D01*
X136875346Y-122270024D01*
X136860930Y-122285930D01*
X136845024Y-122300346D01*
X136827781Y-122313134D01*
X136809368Y-122324170D01*
X136789962Y-122333349D01*
X136769750Y-122340581D01*
X136748926Y-122345797D01*
X136727691Y-122348947D01*
X136706250Y-122350000D01*
X136193750Y-122350000D01*
X136172309Y-122348947D01*
X136151074Y-122345797D01*
X136130250Y-122340581D01*
X136110038Y-122333349D01*
X136090632Y-122324170D01*
X136072219Y-122313134D01*
X136054976Y-122300346D01*
X136039070Y-122285930D01*
X136024654Y-122270024D01*
X136011866Y-122252781D01*
X136000830Y-122234368D01*
X135991651Y-122214962D01*
X135984419Y-122194750D01*
X135979203Y-122173926D01*
X135976053Y-122152691D01*
X135975000Y-122131250D01*
X135975000Y-121693750D01*
X135976053Y-121672309D01*
X135979203Y-121651074D01*
X135984419Y-121630250D01*
X135991651Y-121610038D01*
X136000830Y-121590632D01*
X136011866Y-121572219D01*
X136024654Y-121554976D01*
X136039070Y-121539070D01*
X136054976Y-121524654D01*
X136072219Y-121511866D01*
X136090632Y-121500830D01*
X136110038Y-121491651D01*
X136130250Y-121484419D01*
X136151074Y-121479203D01*
X136172309Y-121476053D01*
X136193750Y-121475000D01*
X136706250Y-121475000D01*
X136727691Y-121476053D01*
X136727691Y-121476053D01*
G37*
D11*
X136450000Y-121912500D03*
D10*
G36*
X138327691Y-121476053D02*
G01*
X138348926Y-121479203D01*
X138369750Y-121484419D01*
X138389962Y-121491651D01*
X138409368Y-121500830D01*
X138427781Y-121511866D01*
X138445024Y-121524654D01*
X138460930Y-121539070D01*
X138475346Y-121554976D01*
X138488134Y-121572219D01*
X138499170Y-121590632D01*
X138508349Y-121610038D01*
X138515581Y-121630250D01*
X138520797Y-121651074D01*
X138523947Y-121672309D01*
X138525000Y-121693750D01*
X138525000Y-122131250D01*
X138523947Y-122152691D01*
X138520797Y-122173926D01*
X138515581Y-122194750D01*
X138508349Y-122214962D01*
X138499170Y-122234368D01*
X138488134Y-122252781D01*
X138475346Y-122270024D01*
X138460930Y-122285930D01*
X138445024Y-122300346D01*
X138427781Y-122313134D01*
X138409368Y-122324170D01*
X138389962Y-122333349D01*
X138369750Y-122340581D01*
X138348926Y-122345797D01*
X138327691Y-122348947D01*
X138306250Y-122350000D01*
X137793750Y-122350000D01*
X137772309Y-122348947D01*
X137751074Y-122345797D01*
X137730250Y-122340581D01*
X137710038Y-122333349D01*
X137690632Y-122324170D01*
X137672219Y-122313134D01*
X137654976Y-122300346D01*
X137639070Y-122285930D01*
X137624654Y-122270024D01*
X137611866Y-122252781D01*
X137600830Y-122234368D01*
X137591651Y-122214962D01*
X137584419Y-122194750D01*
X137579203Y-122173926D01*
X137576053Y-122152691D01*
X137575000Y-122131250D01*
X137575000Y-121693750D01*
X137576053Y-121672309D01*
X137579203Y-121651074D01*
X137584419Y-121630250D01*
X137591651Y-121610038D01*
X137600830Y-121590632D01*
X137611866Y-121572219D01*
X137624654Y-121554976D01*
X137639070Y-121539070D01*
X137654976Y-121524654D01*
X137672219Y-121511866D01*
X137690632Y-121500830D01*
X137710038Y-121491651D01*
X137730250Y-121484419D01*
X137751074Y-121479203D01*
X137772309Y-121476053D01*
X137793750Y-121475000D01*
X138306250Y-121475000D01*
X138327691Y-121476053D01*
X138327691Y-121476053D01*
G37*
D11*
X138050000Y-121912500D03*
D10*
G36*
X138327691Y-123051053D02*
G01*
X138348926Y-123054203D01*
X138369750Y-123059419D01*
X138389962Y-123066651D01*
X138409368Y-123075830D01*
X138427781Y-123086866D01*
X138445024Y-123099654D01*
X138460930Y-123114070D01*
X138475346Y-123129976D01*
X138488134Y-123147219D01*
X138499170Y-123165632D01*
X138508349Y-123185038D01*
X138515581Y-123205250D01*
X138520797Y-123226074D01*
X138523947Y-123247309D01*
X138525000Y-123268750D01*
X138525000Y-123706250D01*
X138523947Y-123727691D01*
X138520797Y-123748926D01*
X138515581Y-123769750D01*
X138508349Y-123789962D01*
X138499170Y-123809368D01*
X138488134Y-123827781D01*
X138475346Y-123845024D01*
X138460930Y-123860930D01*
X138445024Y-123875346D01*
X138427781Y-123888134D01*
X138409368Y-123899170D01*
X138389962Y-123908349D01*
X138369750Y-123915581D01*
X138348926Y-123920797D01*
X138327691Y-123923947D01*
X138306250Y-123925000D01*
X137793750Y-123925000D01*
X137772309Y-123923947D01*
X137751074Y-123920797D01*
X137730250Y-123915581D01*
X137710038Y-123908349D01*
X137690632Y-123899170D01*
X137672219Y-123888134D01*
X137654976Y-123875346D01*
X137639070Y-123860930D01*
X137624654Y-123845024D01*
X137611866Y-123827781D01*
X137600830Y-123809368D01*
X137591651Y-123789962D01*
X137584419Y-123769750D01*
X137579203Y-123748926D01*
X137576053Y-123727691D01*
X137575000Y-123706250D01*
X137575000Y-123268750D01*
X137576053Y-123247309D01*
X137579203Y-123226074D01*
X137584419Y-123205250D01*
X137591651Y-123185038D01*
X137600830Y-123165632D01*
X137611866Y-123147219D01*
X137624654Y-123129976D01*
X137639070Y-123114070D01*
X137654976Y-123099654D01*
X137672219Y-123086866D01*
X137690632Y-123075830D01*
X137710038Y-123066651D01*
X137730250Y-123059419D01*
X137751074Y-123054203D01*
X137772309Y-123051053D01*
X137793750Y-123050000D01*
X138306250Y-123050000D01*
X138327691Y-123051053D01*
X138327691Y-123051053D01*
G37*
D11*
X138050000Y-123487500D03*
D10*
G36*
X133627691Y-121926053D02*
G01*
X133648926Y-121929203D01*
X133669750Y-121934419D01*
X133689962Y-121941651D01*
X133709368Y-121950830D01*
X133727781Y-121961866D01*
X133745024Y-121974654D01*
X133760930Y-121989070D01*
X133775346Y-122004976D01*
X133788134Y-122022219D01*
X133799170Y-122040632D01*
X133808349Y-122060038D01*
X133815581Y-122080250D01*
X133820797Y-122101074D01*
X133823947Y-122122309D01*
X133825000Y-122143750D01*
X133825000Y-122656250D01*
X133823947Y-122677691D01*
X133820797Y-122698926D01*
X133815581Y-122719750D01*
X133808349Y-122739962D01*
X133799170Y-122759368D01*
X133788134Y-122777781D01*
X133775346Y-122795024D01*
X133760930Y-122810930D01*
X133745024Y-122825346D01*
X133727781Y-122838134D01*
X133709368Y-122849170D01*
X133689962Y-122858349D01*
X133669750Y-122865581D01*
X133648926Y-122870797D01*
X133627691Y-122873947D01*
X133606250Y-122875000D01*
X133168750Y-122875000D01*
X133147309Y-122873947D01*
X133126074Y-122870797D01*
X133105250Y-122865581D01*
X133085038Y-122858349D01*
X133065632Y-122849170D01*
X133047219Y-122838134D01*
X133029976Y-122825346D01*
X133014070Y-122810930D01*
X132999654Y-122795024D01*
X132986866Y-122777781D01*
X132975830Y-122759368D01*
X132966651Y-122739962D01*
X132959419Y-122719750D01*
X132954203Y-122698926D01*
X132951053Y-122677691D01*
X132950000Y-122656250D01*
X132950000Y-122143750D01*
X132951053Y-122122309D01*
X132954203Y-122101074D01*
X132959419Y-122080250D01*
X132966651Y-122060038D01*
X132975830Y-122040632D01*
X132986866Y-122022219D01*
X132999654Y-122004976D01*
X133014070Y-121989070D01*
X133029976Y-121974654D01*
X133047219Y-121961866D01*
X133065632Y-121950830D01*
X133085038Y-121941651D01*
X133105250Y-121934419D01*
X133126074Y-121929203D01*
X133147309Y-121926053D01*
X133168750Y-121925000D01*
X133606250Y-121925000D01*
X133627691Y-121926053D01*
X133627691Y-121926053D01*
G37*
D11*
X133387500Y-122400000D03*
D10*
G36*
X132052691Y-121926053D02*
G01*
X132073926Y-121929203D01*
X132094750Y-121934419D01*
X132114962Y-121941651D01*
X132134368Y-121950830D01*
X132152781Y-121961866D01*
X132170024Y-121974654D01*
X132185930Y-121989070D01*
X132200346Y-122004976D01*
X132213134Y-122022219D01*
X132224170Y-122040632D01*
X132233349Y-122060038D01*
X132240581Y-122080250D01*
X132245797Y-122101074D01*
X132248947Y-122122309D01*
X132250000Y-122143750D01*
X132250000Y-122656250D01*
X132248947Y-122677691D01*
X132245797Y-122698926D01*
X132240581Y-122719750D01*
X132233349Y-122739962D01*
X132224170Y-122759368D01*
X132213134Y-122777781D01*
X132200346Y-122795024D01*
X132185930Y-122810930D01*
X132170024Y-122825346D01*
X132152781Y-122838134D01*
X132134368Y-122849170D01*
X132114962Y-122858349D01*
X132094750Y-122865581D01*
X132073926Y-122870797D01*
X132052691Y-122873947D01*
X132031250Y-122875000D01*
X131593750Y-122875000D01*
X131572309Y-122873947D01*
X131551074Y-122870797D01*
X131530250Y-122865581D01*
X131510038Y-122858349D01*
X131490632Y-122849170D01*
X131472219Y-122838134D01*
X131454976Y-122825346D01*
X131439070Y-122810930D01*
X131424654Y-122795024D01*
X131411866Y-122777781D01*
X131400830Y-122759368D01*
X131391651Y-122739962D01*
X131384419Y-122719750D01*
X131379203Y-122698926D01*
X131376053Y-122677691D01*
X131375000Y-122656250D01*
X131375000Y-122143750D01*
X131376053Y-122122309D01*
X131379203Y-122101074D01*
X131384419Y-122080250D01*
X131391651Y-122060038D01*
X131400830Y-122040632D01*
X131411866Y-122022219D01*
X131424654Y-122004976D01*
X131439070Y-121989070D01*
X131454976Y-121974654D01*
X131472219Y-121961866D01*
X131490632Y-121950830D01*
X131510038Y-121941651D01*
X131530250Y-121934419D01*
X131551074Y-121929203D01*
X131572309Y-121926053D01*
X131593750Y-121925000D01*
X132031250Y-121925000D01*
X132052691Y-121926053D01*
X132052691Y-121926053D01*
G37*
D11*
X131812500Y-122400000D03*
D10*
G36*
X143277691Y-121476053D02*
G01*
X143298926Y-121479203D01*
X143319750Y-121484419D01*
X143339962Y-121491651D01*
X143359368Y-121500830D01*
X143377781Y-121511866D01*
X143395024Y-121524654D01*
X143410930Y-121539070D01*
X143425346Y-121554976D01*
X143438134Y-121572219D01*
X143449170Y-121590632D01*
X143458349Y-121610038D01*
X143465581Y-121630250D01*
X143470797Y-121651074D01*
X143473947Y-121672309D01*
X143475000Y-121693750D01*
X143475000Y-122131250D01*
X143473947Y-122152691D01*
X143470797Y-122173926D01*
X143465581Y-122194750D01*
X143458349Y-122214962D01*
X143449170Y-122234368D01*
X143438134Y-122252781D01*
X143425346Y-122270024D01*
X143410930Y-122285930D01*
X143395024Y-122300346D01*
X143377781Y-122313134D01*
X143359368Y-122324170D01*
X143339962Y-122333349D01*
X143319750Y-122340581D01*
X143298926Y-122345797D01*
X143277691Y-122348947D01*
X143256250Y-122350000D01*
X142743750Y-122350000D01*
X142722309Y-122348947D01*
X142701074Y-122345797D01*
X142680250Y-122340581D01*
X142660038Y-122333349D01*
X142640632Y-122324170D01*
X142622219Y-122313134D01*
X142604976Y-122300346D01*
X142589070Y-122285930D01*
X142574654Y-122270024D01*
X142561866Y-122252781D01*
X142550830Y-122234368D01*
X142541651Y-122214962D01*
X142534419Y-122194750D01*
X142529203Y-122173926D01*
X142526053Y-122152691D01*
X142525000Y-122131250D01*
X142525000Y-121693750D01*
X142526053Y-121672309D01*
X142529203Y-121651074D01*
X142534419Y-121630250D01*
X142541651Y-121610038D01*
X142550830Y-121590632D01*
X142561866Y-121572219D01*
X142574654Y-121554976D01*
X142589070Y-121539070D01*
X142604976Y-121524654D01*
X142622219Y-121511866D01*
X142640632Y-121500830D01*
X142660038Y-121491651D01*
X142680250Y-121484419D01*
X142701074Y-121479203D01*
X142722309Y-121476053D01*
X142743750Y-121475000D01*
X143256250Y-121475000D01*
X143277691Y-121476053D01*
X143277691Y-121476053D01*
G37*
D11*
X143000000Y-121912500D03*
D10*
G36*
X143277691Y-123051053D02*
G01*
X143298926Y-123054203D01*
X143319750Y-123059419D01*
X143339962Y-123066651D01*
X143359368Y-123075830D01*
X143377781Y-123086866D01*
X143395024Y-123099654D01*
X143410930Y-123114070D01*
X143425346Y-123129976D01*
X143438134Y-123147219D01*
X143449170Y-123165632D01*
X143458349Y-123185038D01*
X143465581Y-123205250D01*
X143470797Y-123226074D01*
X143473947Y-123247309D01*
X143475000Y-123268750D01*
X143475000Y-123706250D01*
X143473947Y-123727691D01*
X143470797Y-123748926D01*
X143465581Y-123769750D01*
X143458349Y-123789962D01*
X143449170Y-123809368D01*
X143438134Y-123827781D01*
X143425346Y-123845024D01*
X143410930Y-123860930D01*
X143395024Y-123875346D01*
X143377781Y-123888134D01*
X143359368Y-123899170D01*
X143339962Y-123908349D01*
X143319750Y-123915581D01*
X143298926Y-123920797D01*
X143277691Y-123923947D01*
X143256250Y-123925000D01*
X142743750Y-123925000D01*
X142722309Y-123923947D01*
X142701074Y-123920797D01*
X142680250Y-123915581D01*
X142660038Y-123908349D01*
X142640632Y-123899170D01*
X142622219Y-123888134D01*
X142604976Y-123875346D01*
X142589070Y-123860930D01*
X142574654Y-123845024D01*
X142561866Y-123827781D01*
X142550830Y-123809368D01*
X142541651Y-123789962D01*
X142534419Y-123769750D01*
X142529203Y-123748926D01*
X142526053Y-123727691D01*
X142525000Y-123706250D01*
X142525000Y-123268750D01*
X142526053Y-123247309D01*
X142529203Y-123226074D01*
X142534419Y-123205250D01*
X142541651Y-123185038D01*
X142550830Y-123165632D01*
X142561866Y-123147219D01*
X142574654Y-123129976D01*
X142589070Y-123114070D01*
X142604976Y-123099654D01*
X142622219Y-123086866D01*
X142640632Y-123075830D01*
X142660038Y-123066651D01*
X142680250Y-123059419D01*
X142701074Y-123054203D01*
X142722309Y-123051053D01*
X142743750Y-123050000D01*
X143256250Y-123050000D01*
X143277691Y-123051053D01*
X143277691Y-123051053D01*
G37*
D11*
X143000000Y-123487500D03*
D10*
G36*
X140052691Y-121926053D02*
G01*
X140073926Y-121929203D01*
X140094750Y-121934419D01*
X140114962Y-121941651D01*
X140134368Y-121950830D01*
X140152781Y-121961866D01*
X140170024Y-121974654D01*
X140185930Y-121989070D01*
X140200346Y-122004976D01*
X140213134Y-122022219D01*
X140224170Y-122040632D01*
X140233349Y-122060038D01*
X140240581Y-122080250D01*
X140245797Y-122101074D01*
X140248947Y-122122309D01*
X140250000Y-122143750D01*
X140250000Y-122656250D01*
X140248947Y-122677691D01*
X140245797Y-122698926D01*
X140240581Y-122719750D01*
X140233349Y-122739962D01*
X140224170Y-122759368D01*
X140213134Y-122777781D01*
X140200346Y-122795024D01*
X140185930Y-122810930D01*
X140170024Y-122825346D01*
X140152781Y-122838134D01*
X140134368Y-122849170D01*
X140114962Y-122858349D01*
X140094750Y-122865581D01*
X140073926Y-122870797D01*
X140052691Y-122873947D01*
X140031250Y-122875000D01*
X139593750Y-122875000D01*
X139572309Y-122873947D01*
X139551074Y-122870797D01*
X139530250Y-122865581D01*
X139510038Y-122858349D01*
X139490632Y-122849170D01*
X139472219Y-122838134D01*
X139454976Y-122825346D01*
X139439070Y-122810930D01*
X139424654Y-122795024D01*
X139411866Y-122777781D01*
X139400830Y-122759368D01*
X139391651Y-122739962D01*
X139384419Y-122719750D01*
X139379203Y-122698926D01*
X139376053Y-122677691D01*
X139375000Y-122656250D01*
X139375000Y-122143750D01*
X139376053Y-122122309D01*
X139379203Y-122101074D01*
X139384419Y-122080250D01*
X139391651Y-122060038D01*
X139400830Y-122040632D01*
X139411866Y-122022219D01*
X139424654Y-122004976D01*
X139439070Y-121989070D01*
X139454976Y-121974654D01*
X139472219Y-121961866D01*
X139490632Y-121950830D01*
X139510038Y-121941651D01*
X139530250Y-121934419D01*
X139551074Y-121929203D01*
X139572309Y-121926053D01*
X139593750Y-121925000D01*
X140031250Y-121925000D01*
X140052691Y-121926053D01*
X140052691Y-121926053D01*
G37*
D11*
X139812500Y-122400000D03*
D10*
G36*
X141627691Y-121926053D02*
G01*
X141648926Y-121929203D01*
X141669750Y-121934419D01*
X141689962Y-121941651D01*
X141709368Y-121950830D01*
X141727781Y-121961866D01*
X141745024Y-121974654D01*
X141760930Y-121989070D01*
X141775346Y-122004976D01*
X141788134Y-122022219D01*
X141799170Y-122040632D01*
X141808349Y-122060038D01*
X141815581Y-122080250D01*
X141820797Y-122101074D01*
X141823947Y-122122309D01*
X141825000Y-122143750D01*
X141825000Y-122656250D01*
X141823947Y-122677691D01*
X141820797Y-122698926D01*
X141815581Y-122719750D01*
X141808349Y-122739962D01*
X141799170Y-122759368D01*
X141788134Y-122777781D01*
X141775346Y-122795024D01*
X141760930Y-122810930D01*
X141745024Y-122825346D01*
X141727781Y-122838134D01*
X141709368Y-122849170D01*
X141689962Y-122858349D01*
X141669750Y-122865581D01*
X141648926Y-122870797D01*
X141627691Y-122873947D01*
X141606250Y-122875000D01*
X141168750Y-122875000D01*
X141147309Y-122873947D01*
X141126074Y-122870797D01*
X141105250Y-122865581D01*
X141085038Y-122858349D01*
X141065632Y-122849170D01*
X141047219Y-122838134D01*
X141029976Y-122825346D01*
X141014070Y-122810930D01*
X140999654Y-122795024D01*
X140986866Y-122777781D01*
X140975830Y-122759368D01*
X140966651Y-122739962D01*
X140959419Y-122719750D01*
X140954203Y-122698926D01*
X140951053Y-122677691D01*
X140950000Y-122656250D01*
X140950000Y-122143750D01*
X140951053Y-122122309D01*
X140954203Y-122101074D01*
X140959419Y-122080250D01*
X140966651Y-122060038D01*
X140975830Y-122040632D01*
X140986866Y-122022219D01*
X140999654Y-122004976D01*
X141014070Y-121989070D01*
X141029976Y-121974654D01*
X141047219Y-121961866D01*
X141065632Y-121950830D01*
X141085038Y-121941651D01*
X141105250Y-121934419D01*
X141126074Y-121929203D01*
X141147309Y-121926053D01*
X141168750Y-121925000D01*
X141606250Y-121925000D01*
X141627691Y-121926053D01*
X141627691Y-121926053D01*
G37*
D11*
X141387500Y-122400000D03*
D12*
X147350000Y-110120000D03*
X151850000Y-110120000D03*
X151850000Y-118080000D03*
X147350000Y-118080000D03*
D13*
X124800000Y-119900000D03*
X125500000Y-119900000D03*
X126200000Y-119900000D03*
X126900000Y-119900000D03*
X127600000Y-119900000D03*
X128300000Y-119900000D03*
X129000000Y-119900000D03*
X129700000Y-119900000D03*
X130400000Y-119900000D03*
X131100000Y-119900000D03*
X131800000Y-119900000D03*
X132500000Y-119900000D03*
X133200000Y-119900000D03*
X133900000Y-119900000D03*
X134600000Y-119900000D03*
X135300000Y-119900000D03*
X136000000Y-119900000D03*
X136700000Y-119900000D03*
X137400000Y-119900000D03*
X138100000Y-119900000D03*
X138800000Y-119900000D03*
X139500000Y-119900000D03*
X140200000Y-119900000D03*
X140900000Y-119900000D03*
X141600000Y-119900000D03*
X142300000Y-119900000D03*
X143000000Y-119900000D03*
X143700000Y-119900000D03*
X144400000Y-119900000D03*
X145100000Y-119900000D03*
D10*
G36*
X95577691Y-123051053D02*
G01*
X95598926Y-123054203D01*
X95619750Y-123059419D01*
X95639962Y-123066651D01*
X95659368Y-123075830D01*
X95677781Y-123086866D01*
X95695024Y-123099654D01*
X95710930Y-123114070D01*
X95725346Y-123129976D01*
X95738134Y-123147219D01*
X95749170Y-123165632D01*
X95758349Y-123185038D01*
X95765581Y-123205250D01*
X95770797Y-123226074D01*
X95773947Y-123247309D01*
X95775000Y-123268750D01*
X95775000Y-123706250D01*
X95773947Y-123727691D01*
X95770797Y-123748926D01*
X95765581Y-123769750D01*
X95758349Y-123789962D01*
X95749170Y-123809368D01*
X95738134Y-123827781D01*
X95725346Y-123845024D01*
X95710930Y-123860930D01*
X95695024Y-123875346D01*
X95677781Y-123888134D01*
X95659368Y-123899170D01*
X95639962Y-123908349D01*
X95619750Y-123915581D01*
X95598926Y-123920797D01*
X95577691Y-123923947D01*
X95556250Y-123925000D01*
X95043750Y-123925000D01*
X95022309Y-123923947D01*
X95001074Y-123920797D01*
X94980250Y-123915581D01*
X94960038Y-123908349D01*
X94940632Y-123899170D01*
X94922219Y-123888134D01*
X94904976Y-123875346D01*
X94889070Y-123860930D01*
X94874654Y-123845024D01*
X94861866Y-123827781D01*
X94850830Y-123809368D01*
X94841651Y-123789962D01*
X94834419Y-123769750D01*
X94829203Y-123748926D01*
X94826053Y-123727691D01*
X94825000Y-123706250D01*
X94825000Y-123268750D01*
X94826053Y-123247309D01*
X94829203Y-123226074D01*
X94834419Y-123205250D01*
X94841651Y-123185038D01*
X94850830Y-123165632D01*
X94861866Y-123147219D01*
X94874654Y-123129976D01*
X94889070Y-123114070D01*
X94904976Y-123099654D01*
X94922219Y-123086866D01*
X94940632Y-123075830D01*
X94960038Y-123066651D01*
X94980250Y-123059419D01*
X95001074Y-123054203D01*
X95022309Y-123051053D01*
X95043750Y-123050000D01*
X95556250Y-123050000D01*
X95577691Y-123051053D01*
X95577691Y-123051053D01*
G37*
D11*
X95300000Y-123487500D03*
D10*
G36*
X95577691Y-121476053D02*
G01*
X95598926Y-121479203D01*
X95619750Y-121484419D01*
X95639962Y-121491651D01*
X95659368Y-121500830D01*
X95677781Y-121511866D01*
X95695024Y-121524654D01*
X95710930Y-121539070D01*
X95725346Y-121554976D01*
X95738134Y-121572219D01*
X95749170Y-121590632D01*
X95758349Y-121610038D01*
X95765581Y-121630250D01*
X95770797Y-121651074D01*
X95773947Y-121672309D01*
X95775000Y-121693750D01*
X95775000Y-122131250D01*
X95773947Y-122152691D01*
X95770797Y-122173926D01*
X95765581Y-122194750D01*
X95758349Y-122214962D01*
X95749170Y-122234368D01*
X95738134Y-122252781D01*
X95725346Y-122270024D01*
X95710930Y-122285930D01*
X95695024Y-122300346D01*
X95677781Y-122313134D01*
X95659368Y-122324170D01*
X95639962Y-122333349D01*
X95619750Y-122340581D01*
X95598926Y-122345797D01*
X95577691Y-122348947D01*
X95556250Y-122350000D01*
X95043750Y-122350000D01*
X95022309Y-122348947D01*
X95001074Y-122345797D01*
X94980250Y-122340581D01*
X94960038Y-122333349D01*
X94940632Y-122324170D01*
X94922219Y-122313134D01*
X94904976Y-122300346D01*
X94889070Y-122285930D01*
X94874654Y-122270024D01*
X94861866Y-122252781D01*
X94850830Y-122234368D01*
X94841651Y-122214962D01*
X94834419Y-122194750D01*
X94829203Y-122173926D01*
X94826053Y-122152691D01*
X94825000Y-122131250D01*
X94825000Y-121693750D01*
X94826053Y-121672309D01*
X94829203Y-121651074D01*
X94834419Y-121630250D01*
X94841651Y-121610038D01*
X94850830Y-121590632D01*
X94861866Y-121572219D01*
X94874654Y-121554976D01*
X94889070Y-121539070D01*
X94904976Y-121524654D01*
X94922219Y-121511866D01*
X94940632Y-121500830D01*
X94960038Y-121491651D01*
X94980250Y-121484419D01*
X95001074Y-121479203D01*
X95022309Y-121476053D01*
X95043750Y-121475000D01*
X95556250Y-121475000D01*
X95577691Y-121476053D01*
X95577691Y-121476053D01*
G37*
D11*
X95300000Y-121912500D03*
D10*
G36*
X84352691Y-121926053D02*
G01*
X84373926Y-121929203D01*
X84394750Y-121934419D01*
X84414962Y-121941651D01*
X84434368Y-121950830D01*
X84452781Y-121961866D01*
X84470024Y-121974654D01*
X84485930Y-121989070D01*
X84500346Y-122004976D01*
X84513134Y-122022219D01*
X84524170Y-122040632D01*
X84533349Y-122060038D01*
X84540581Y-122080250D01*
X84545797Y-122101074D01*
X84548947Y-122122309D01*
X84550000Y-122143750D01*
X84550000Y-122656250D01*
X84548947Y-122677691D01*
X84545797Y-122698926D01*
X84540581Y-122719750D01*
X84533349Y-122739962D01*
X84524170Y-122759368D01*
X84513134Y-122777781D01*
X84500346Y-122795024D01*
X84485930Y-122810930D01*
X84470024Y-122825346D01*
X84452781Y-122838134D01*
X84434368Y-122849170D01*
X84414962Y-122858349D01*
X84394750Y-122865581D01*
X84373926Y-122870797D01*
X84352691Y-122873947D01*
X84331250Y-122875000D01*
X83893750Y-122875000D01*
X83872309Y-122873947D01*
X83851074Y-122870797D01*
X83830250Y-122865581D01*
X83810038Y-122858349D01*
X83790632Y-122849170D01*
X83772219Y-122838134D01*
X83754976Y-122825346D01*
X83739070Y-122810930D01*
X83724654Y-122795024D01*
X83711866Y-122777781D01*
X83700830Y-122759368D01*
X83691651Y-122739962D01*
X83684419Y-122719750D01*
X83679203Y-122698926D01*
X83676053Y-122677691D01*
X83675000Y-122656250D01*
X83675000Y-122143750D01*
X83676053Y-122122309D01*
X83679203Y-122101074D01*
X83684419Y-122080250D01*
X83691651Y-122060038D01*
X83700830Y-122040632D01*
X83711866Y-122022219D01*
X83724654Y-122004976D01*
X83739070Y-121989070D01*
X83754976Y-121974654D01*
X83772219Y-121961866D01*
X83790632Y-121950830D01*
X83810038Y-121941651D01*
X83830250Y-121934419D01*
X83851074Y-121929203D01*
X83872309Y-121926053D01*
X83893750Y-121925000D01*
X84331250Y-121925000D01*
X84352691Y-121926053D01*
X84352691Y-121926053D01*
G37*
D11*
X84112500Y-122400000D03*
D10*
G36*
X85927691Y-121926053D02*
G01*
X85948926Y-121929203D01*
X85969750Y-121934419D01*
X85989962Y-121941651D01*
X86009368Y-121950830D01*
X86027781Y-121961866D01*
X86045024Y-121974654D01*
X86060930Y-121989070D01*
X86075346Y-122004976D01*
X86088134Y-122022219D01*
X86099170Y-122040632D01*
X86108349Y-122060038D01*
X86115581Y-122080250D01*
X86120797Y-122101074D01*
X86123947Y-122122309D01*
X86125000Y-122143750D01*
X86125000Y-122656250D01*
X86123947Y-122677691D01*
X86120797Y-122698926D01*
X86115581Y-122719750D01*
X86108349Y-122739962D01*
X86099170Y-122759368D01*
X86088134Y-122777781D01*
X86075346Y-122795024D01*
X86060930Y-122810930D01*
X86045024Y-122825346D01*
X86027781Y-122838134D01*
X86009368Y-122849170D01*
X85989962Y-122858349D01*
X85969750Y-122865581D01*
X85948926Y-122870797D01*
X85927691Y-122873947D01*
X85906250Y-122875000D01*
X85468750Y-122875000D01*
X85447309Y-122873947D01*
X85426074Y-122870797D01*
X85405250Y-122865581D01*
X85385038Y-122858349D01*
X85365632Y-122849170D01*
X85347219Y-122838134D01*
X85329976Y-122825346D01*
X85314070Y-122810930D01*
X85299654Y-122795024D01*
X85286866Y-122777781D01*
X85275830Y-122759368D01*
X85266651Y-122739962D01*
X85259419Y-122719750D01*
X85254203Y-122698926D01*
X85251053Y-122677691D01*
X85250000Y-122656250D01*
X85250000Y-122143750D01*
X85251053Y-122122309D01*
X85254203Y-122101074D01*
X85259419Y-122080250D01*
X85266651Y-122060038D01*
X85275830Y-122040632D01*
X85286866Y-122022219D01*
X85299654Y-122004976D01*
X85314070Y-121989070D01*
X85329976Y-121974654D01*
X85347219Y-121961866D01*
X85365632Y-121950830D01*
X85385038Y-121941651D01*
X85405250Y-121934419D01*
X85426074Y-121929203D01*
X85447309Y-121926053D01*
X85468750Y-121925000D01*
X85906250Y-121925000D01*
X85927691Y-121926053D01*
X85927691Y-121926053D01*
G37*
D11*
X85687500Y-122400000D03*
D10*
G36*
X97077691Y-121476053D02*
G01*
X97098926Y-121479203D01*
X97119750Y-121484419D01*
X97139962Y-121491651D01*
X97159368Y-121500830D01*
X97177781Y-121511866D01*
X97195024Y-121524654D01*
X97210930Y-121539070D01*
X97225346Y-121554976D01*
X97238134Y-121572219D01*
X97249170Y-121590632D01*
X97258349Y-121610038D01*
X97265581Y-121630250D01*
X97270797Y-121651074D01*
X97273947Y-121672309D01*
X97275000Y-121693750D01*
X97275000Y-122131250D01*
X97273947Y-122152691D01*
X97270797Y-122173926D01*
X97265581Y-122194750D01*
X97258349Y-122214962D01*
X97249170Y-122234368D01*
X97238134Y-122252781D01*
X97225346Y-122270024D01*
X97210930Y-122285930D01*
X97195024Y-122300346D01*
X97177781Y-122313134D01*
X97159368Y-122324170D01*
X97139962Y-122333349D01*
X97119750Y-122340581D01*
X97098926Y-122345797D01*
X97077691Y-122348947D01*
X97056250Y-122350000D01*
X96543750Y-122350000D01*
X96522309Y-122348947D01*
X96501074Y-122345797D01*
X96480250Y-122340581D01*
X96460038Y-122333349D01*
X96440632Y-122324170D01*
X96422219Y-122313134D01*
X96404976Y-122300346D01*
X96389070Y-122285930D01*
X96374654Y-122270024D01*
X96361866Y-122252781D01*
X96350830Y-122234368D01*
X96341651Y-122214962D01*
X96334419Y-122194750D01*
X96329203Y-122173926D01*
X96326053Y-122152691D01*
X96325000Y-122131250D01*
X96325000Y-121693750D01*
X96326053Y-121672309D01*
X96329203Y-121651074D01*
X96334419Y-121630250D01*
X96341651Y-121610038D01*
X96350830Y-121590632D01*
X96361866Y-121572219D01*
X96374654Y-121554976D01*
X96389070Y-121539070D01*
X96404976Y-121524654D01*
X96422219Y-121511866D01*
X96440632Y-121500830D01*
X96460038Y-121491651D01*
X96480250Y-121484419D01*
X96501074Y-121479203D01*
X96522309Y-121476053D01*
X96543750Y-121475000D01*
X97056250Y-121475000D01*
X97077691Y-121476053D01*
X97077691Y-121476053D01*
G37*
D11*
X96800000Y-121912500D03*
D10*
G36*
X97077691Y-123051053D02*
G01*
X97098926Y-123054203D01*
X97119750Y-123059419D01*
X97139962Y-123066651D01*
X97159368Y-123075830D01*
X97177781Y-123086866D01*
X97195024Y-123099654D01*
X97210930Y-123114070D01*
X97225346Y-123129976D01*
X97238134Y-123147219D01*
X97249170Y-123165632D01*
X97258349Y-123185038D01*
X97265581Y-123205250D01*
X97270797Y-123226074D01*
X97273947Y-123247309D01*
X97275000Y-123268750D01*
X97275000Y-123706250D01*
X97273947Y-123727691D01*
X97270797Y-123748926D01*
X97265581Y-123769750D01*
X97258349Y-123789962D01*
X97249170Y-123809368D01*
X97238134Y-123827781D01*
X97225346Y-123845024D01*
X97210930Y-123860930D01*
X97195024Y-123875346D01*
X97177781Y-123888134D01*
X97159368Y-123899170D01*
X97139962Y-123908349D01*
X97119750Y-123915581D01*
X97098926Y-123920797D01*
X97077691Y-123923947D01*
X97056250Y-123925000D01*
X96543750Y-123925000D01*
X96522309Y-123923947D01*
X96501074Y-123920797D01*
X96480250Y-123915581D01*
X96460038Y-123908349D01*
X96440632Y-123899170D01*
X96422219Y-123888134D01*
X96404976Y-123875346D01*
X96389070Y-123860930D01*
X96374654Y-123845024D01*
X96361866Y-123827781D01*
X96350830Y-123809368D01*
X96341651Y-123789962D01*
X96334419Y-123769750D01*
X96329203Y-123748926D01*
X96326053Y-123727691D01*
X96325000Y-123706250D01*
X96325000Y-123268750D01*
X96326053Y-123247309D01*
X96329203Y-123226074D01*
X96334419Y-123205250D01*
X96341651Y-123185038D01*
X96350830Y-123165632D01*
X96361866Y-123147219D01*
X96374654Y-123129976D01*
X96389070Y-123114070D01*
X96404976Y-123099654D01*
X96422219Y-123086866D01*
X96440632Y-123075830D01*
X96460038Y-123066651D01*
X96480250Y-123059419D01*
X96501074Y-123054203D01*
X96522309Y-123051053D01*
X96543750Y-123050000D01*
X97056250Y-123050000D01*
X97077691Y-123051053D01*
X97077691Y-123051053D01*
G37*
D11*
X96800000Y-123487500D03*
D10*
G36*
X78240191Y-121926053D02*
G01*
X78261426Y-121929203D01*
X78282250Y-121934419D01*
X78302462Y-121941651D01*
X78321868Y-121950830D01*
X78340281Y-121961866D01*
X78357524Y-121974654D01*
X78373430Y-121989070D01*
X78387846Y-122004976D01*
X78400634Y-122022219D01*
X78411670Y-122040632D01*
X78420849Y-122060038D01*
X78428081Y-122080250D01*
X78433297Y-122101074D01*
X78436447Y-122122309D01*
X78437500Y-122143750D01*
X78437500Y-122656250D01*
X78436447Y-122677691D01*
X78433297Y-122698926D01*
X78428081Y-122719750D01*
X78420849Y-122739962D01*
X78411670Y-122759368D01*
X78400634Y-122777781D01*
X78387846Y-122795024D01*
X78373430Y-122810930D01*
X78357524Y-122825346D01*
X78340281Y-122838134D01*
X78321868Y-122849170D01*
X78302462Y-122858349D01*
X78282250Y-122865581D01*
X78261426Y-122870797D01*
X78240191Y-122873947D01*
X78218750Y-122875000D01*
X77781250Y-122875000D01*
X77759809Y-122873947D01*
X77738574Y-122870797D01*
X77717750Y-122865581D01*
X77697538Y-122858349D01*
X77678132Y-122849170D01*
X77659719Y-122838134D01*
X77642476Y-122825346D01*
X77626570Y-122810930D01*
X77612154Y-122795024D01*
X77599366Y-122777781D01*
X77588330Y-122759368D01*
X77579151Y-122739962D01*
X77571919Y-122719750D01*
X77566703Y-122698926D01*
X77563553Y-122677691D01*
X77562500Y-122656250D01*
X77562500Y-122143750D01*
X77563553Y-122122309D01*
X77566703Y-122101074D01*
X77571919Y-122080250D01*
X77579151Y-122060038D01*
X77588330Y-122040632D01*
X77599366Y-122022219D01*
X77612154Y-122004976D01*
X77626570Y-121989070D01*
X77642476Y-121974654D01*
X77659719Y-121961866D01*
X77678132Y-121950830D01*
X77697538Y-121941651D01*
X77717750Y-121934419D01*
X77738574Y-121929203D01*
X77759809Y-121926053D01*
X77781250Y-121925000D01*
X78218750Y-121925000D01*
X78240191Y-121926053D01*
X78240191Y-121926053D01*
G37*
D11*
X78000000Y-122400000D03*
D10*
G36*
X76665191Y-121926053D02*
G01*
X76686426Y-121929203D01*
X76707250Y-121934419D01*
X76727462Y-121941651D01*
X76746868Y-121950830D01*
X76765281Y-121961866D01*
X76782524Y-121974654D01*
X76798430Y-121989070D01*
X76812846Y-122004976D01*
X76825634Y-122022219D01*
X76836670Y-122040632D01*
X76845849Y-122060038D01*
X76853081Y-122080250D01*
X76858297Y-122101074D01*
X76861447Y-122122309D01*
X76862500Y-122143750D01*
X76862500Y-122656250D01*
X76861447Y-122677691D01*
X76858297Y-122698926D01*
X76853081Y-122719750D01*
X76845849Y-122739962D01*
X76836670Y-122759368D01*
X76825634Y-122777781D01*
X76812846Y-122795024D01*
X76798430Y-122810930D01*
X76782524Y-122825346D01*
X76765281Y-122838134D01*
X76746868Y-122849170D01*
X76727462Y-122858349D01*
X76707250Y-122865581D01*
X76686426Y-122870797D01*
X76665191Y-122873947D01*
X76643750Y-122875000D01*
X76206250Y-122875000D01*
X76184809Y-122873947D01*
X76163574Y-122870797D01*
X76142750Y-122865581D01*
X76122538Y-122858349D01*
X76103132Y-122849170D01*
X76084719Y-122838134D01*
X76067476Y-122825346D01*
X76051570Y-122810930D01*
X76037154Y-122795024D01*
X76024366Y-122777781D01*
X76013330Y-122759368D01*
X76004151Y-122739962D01*
X75996919Y-122719750D01*
X75991703Y-122698926D01*
X75988553Y-122677691D01*
X75987500Y-122656250D01*
X75987500Y-122143750D01*
X75988553Y-122122309D01*
X75991703Y-122101074D01*
X75996919Y-122080250D01*
X76004151Y-122060038D01*
X76013330Y-122040632D01*
X76024366Y-122022219D01*
X76037154Y-122004976D01*
X76051570Y-121989070D01*
X76067476Y-121974654D01*
X76084719Y-121961866D01*
X76103132Y-121950830D01*
X76122538Y-121941651D01*
X76142750Y-121934419D01*
X76163574Y-121929203D01*
X76184809Y-121926053D01*
X76206250Y-121925000D01*
X76643750Y-121925000D01*
X76665191Y-121926053D01*
X76665191Y-121926053D01*
G37*
D11*
X76425000Y-122400000D03*
D10*
G36*
X79852691Y-121926053D02*
G01*
X79873926Y-121929203D01*
X79894750Y-121934419D01*
X79914962Y-121941651D01*
X79934368Y-121950830D01*
X79952781Y-121961866D01*
X79970024Y-121974654D01*
X79985930Y-121989070D01*
X80000346Y-122004976D01*
X80013134Y-122022219D01*
X80024170Y-122040632D01*
X80033349Y-122060038D01*
X80040581Y-122080250D01*
X80045797Y-122101074D01*
X80048947Y-122122309D01*
X80050000Y-122143750D01*
X80050000Y-122656250D01*
X80048947Y-122677691D01*
X80045797Y-122698926D01*
X80040581Y-122719750D01*
X80033349Y-122739962D01*
X80024170Y-122759368D01*
X80013134Y-122777781D01*
X80000346Y-122795024D01*
X79985930Y-122810930D01*
X79970024Y-122825346D01*
X79952781Y-122838134D01*
X79934368Y-122849170D01*
X79914962Y-122858349D01*
X79894750Y-122865581D01*
X79873926Y-122870797D01*
X79852691Y-122873947D01*
X79831250Y-122875000D01*
X79393750Y-122875000D01*
X79372309Y-122873947D01*
X79351074Y-122870797D01*
X79330250Y-122865581D01*
X79310038Y-122858349D01*
X79290632Y-122849170D01*
X79272219Y-122838134D01*
X79254976Y-122825346D01*
X79239070Y-122810930D01*
X79224654Y-122795024D01*
X79211866Y-122777781D01*
X79200830Y-122759368D01*
X79191651Y-122739962D01*
X79184419Y-122719750D01*
X79179203Y-122698926D01*
X79176053Y-122677691D01*
X79175000Y-122656250D01*
X79175000Y-122143750D01*
X79176053Y-122122309D01*
X79179203Y-122101074D01*
X79184419Y-122080250D01*
X79191651Y-122060038D01*
X79200830Y-122040632D01*
X79211866Y-122022219D01*
X79224654Y-122004976D01*
X79239070Y-121989070D01*
X79254976Y-121974654D01*
X79272219Y-121961866D01*
X79290632Y-121950830D01*
X79310038Y-121941651D01*
X79330250Y-121934419D01*
X79351074Y-121929203D01*
X79372309Y-121926053D01*
X79393750Y-121925000D01*
X79831250Y-121925000D01*
X79852691Y-121926053D01*
X79852691Y-121926053D01*
G37*
D11*
X79612500Y-122400000D03*
D10*
G36*
X81427691Y-121926053D02*
G01*
X81448926Y-121929203D01*
X81469750Y-121934419D01*
X81489962Y-121941651D01*
X81509368Y-121950830D01*
X81527781Y-121961866D01*
X81545024Y-121974654D01*
X81560930Y-121989070D01*
X81575346Y-122004976D01*
X81588134Y-122022219D01*
X81599170Y-122040632D01*
X81608349Y-122060038D01*
X81615581Y-122080250D01*
X81620797Y-122101074D01*
X81623947Y-122122309D01*
X81625000Y-122143750D01*
X81625000Y-122656250D01*
X81623947Y-122677691D01*
X81620797Y-122698926D01*
X81615581Y-122719750D01*
X81608349Y-122739962D01*
X81599170Y-122759368D01*
X81588134Y-122777781D01*
X81575346Y-122795024D01*
X81560930Y-122810930D01*
X81545024Y-122825346D01*
X81527781Y-122838134D01*
X81509368Y-122849170D01*
X81489962Y-122858349D01*
X81469750Y-122865581D01*
X81448926Y-122870797D01*
X81427691Y-122873947D01*
X81406250Y-122875000D01*
X80968750Y-122875000D01*
X80947309Y-122873947D01*
X80926074Y-122870797D01*
X80905250Y-122865581D01*
X80885038Y-122858349D01*
X80865632Y-122849170D01*
X80847219Y-122838134D01*
X80829976Y-122825346D01*
X80814070Y-122810930D01*
X80799654Y-122795024D01*
X80786866Y-122777781D01*
X80775830Y-122759368D01*
X80766651Y-122739962D01*
X80759419Y-122719750D01*
X80754203Y-122698926D01*
X80751053Y-122677691D01*
X80750000Y-122656250D01*
X80750000Y-122143750D01*
X80751053Y-122122309D01*
X80754203Y-122101074D01*
X80759419Y-122080250D01*
X80766651Y-122060038D01*
X80775830Y-122040632D01*
X80786866Y-122022219D01*
X80799654Y-122004976D01*
X80814070Y-121989070D01*
X80829976Y-121974654D01*
X80847219Y-121961866D01*
X80865632Y-121950830D01*
X80885038Y-121941651D01*
X80905250Y-121934419D01*
X80926074Y-121929203D01*
X80947309Y-121926053D01*
X80968750Y-121925000D01*
X81406250Y-121925000D01*
X81427691Y-121926053D01*
X81427691Y-121926053D01*
G37*
D11*
X81187500Y-122400000D03*
D13*
X97400000Y-119900000D03*
X96700000Y-119900000D03*
X96000000Y-119900000D03*
X95300000Y-119900000D03*
X94600000Y-119900000D03*
X93900000Y-119900000D03*
X93200000Y-119900000D03*
X92500000Y-119900000D03*
X91800000Y-119900000D03*
X91100000Y-119900000D03*
X90400000Y-119900000D03*
X89700000Y-119900000D03*
X89000000Y-119900000D03*
X88300000Y-119900000D03*
X87600000Y-119900000D03*
X86900000Y-119900000D03*
X86200000Y-119900000D03*
X85500000Y-119900000D03*
X84800000Y-119900000D03*
X84100000Y-119900000D03*
X83400000Y-119900000D03*
X82700000Y-119900000D03*
X82000000Y-119900000D03*
X81300000Y-119900000D03*
X80600000Y-119900000D03*
X79900000Y-119900000D03*
X79200000Y-119900000D03*
X78500000Y-119900000D03*
X77800000Y-119900000D03*
X77100000Y-119900000D03*
D10*
G36*
X90627691Y-123051053D02*
G01*
X90648926Y-123054203D01*
X90669750Y-123059419D01*
X90689962Y-123066651D01*
X90709368Y-123075830D01*
X90727781Y-123086866D01*
X90745024Y-123099654D01*
X90760930Y-123114070D01*
X90775346Y-123129976D01*
X90788134Y-123147219D01*
X90799170Y-123165632D01*
X90808349Y-123185038D01*
X90815581Y-123205250D01*
X90820797Y-123226074D01*
X90823947Y-123247309D01*
X90825000Y-123268750D01*
X90825000Y-123706250D01*
X90823947Y-123727691D01*
X90820797Y-123748926D01*
X90815581Y-123769750D01*
X90808349Y-123789962D01*
X90799170Y-123809368D01*
X90788134Y-123827781D01*
X90775346Y-123845024D01*
X90760930Y-123860930D01*
X90745024Y-123875346D01*
X90727781Y-123888134D01*
X90709368Y-123899170D01*
X90689962Y-123908349D01*
X90669750Y-123915581D01*
X90648926Y-123920797D01*
X90627691Y-123923947D01*
X90606250Y-123925000D01*
X90093750Y-123925000D01*
X90072309Y-123923947D01*
X90051074Y-123920797D01*
X90030250Y-123915581D01*
X90010038Y-123908349D01*
X89990632Y-123899170D01*
X89972219Y-123888134D01*
X89954976Y-123875346D01*
X89939070Y-123860930D01*
X89924654Y-123845024D01*
X89911866Y-123827781D01*
X89900830Y-123809368D01*
X89891651Y-123789962D01*
X89884419Y-123769750D01*
X89879203Y-123748926D01*
X89876053Y-123727691D01*
X89875000Y-123706250D01*
X89875000Y-123268750D01*
X89876053Y-123247309D01*
X89879203Y-123226074D01*
X89884419Y-123205250D01*
X89891651Y-123185038D01*
X89900830Y-123165632D01*
X89911866Y-123147219D01*
X89924654Y-123129976D01*
X89939070Y-123114070D01*
X89954976Y-123099654D01*
X89972219Y-123086866D01*
X89990632Y-123075830D01*
X90010038Y-123066651D01*
X90030250Y-123059419D01*
X90051074Y-123054203D01*
X90072309Y-123051053D01*
X90093750Y-123050000D01*
X90606250Y-123050000D01*
X90627691Y-123051053D01*
X90627691Y-123051053D01*
G37*
D11*
X90350000Y-123487500D03*
D10*
G36*
X90627691Y-121476053D02*
G01*
X90648926Y-121479203D01*
X90669750Y-121484419D01*
X90689962Y-121491651D01*
X90709368Y-121500830D01*
X90727781Y-121511866D01*
X90745024Y-121524654D01*
X90760930Y-121539070D01*
X90775346Y-121554976D01*
X90788134Y-121572219D01*
X90799170Y-121590632D01*
X90808349Y-121610038D01*
X90815581Y-121630250D01*
X90820797Y-121651074D01*
X90823947Y-121672309D01*
X90825000Y-121693750D01*
X90825000Y-122131250D01*
X90823947Y-122152691D01*
X90820797Y-122173926D01*
X90815581Y-122194750D01*
X90808349Y-122214962D01*
X90799170Y-122234368D01*
X90788134Y-122252781D01*
X90775346Y-122270024D01*
X90760930Y-122285930D01*
X90745024Y-122300346D01*
X90727781Y-122313134D01*
X90709368Y-122324170D01*
X90689962Y-122333349D01*
X90669750Y-122340581D01*
X90648926Y-122345797D01*
X90627691Y-122348947D01*
X90606250Y-122350000D01*
X90093750Y-122350000D01*
X90072309Y-122348947D01*
X90051074Y-122345797D01*
X90030250Y-122340581D01*
X90010038Y-122333349D01*
X89990632Y-122324170D01*
X89972219Y-122313134D01*
X89954976Y-122300346D01*
X89939070Y-122285930D01*
X89924654Y-122270024D01*
X89911866Y-122252781D01*
X89900830Y-122234368D01*
X89891651Y-122214962D01*
X89884419Y-122194750D01*
X89879203Y-122173926D01*
X89876053Y-122152691D01*
X89875000Y-122131250D01*
X89875000Y-121693750D01*
X89876053Y-121672309D01*
X89879203Y-121651074D01*
X89884419Y-121630250D01*
X89891651Y-121610038D01*
X89900830Y-121590632D01*
X89911866Y-121572219D01*
X89924654Y-121554976D01*
X89939070Y-121539070D01*
X89954976Y-121524654D01*
X89972219Y-121511866D01*
X89990632Y-121500830D01*
X90010038Y-121491651D01*
X90030250Y-121484419D01*
X90051074Y-121479203D01*
X90072309Y-121476053D01*
X90093750Y-121475000D01*
X90606250Y-121475000D01*
X90627691Y-121476053D01*
X90627691Y-121476053D01*
G37*
D11*
X90350000Y-121912500D03*
D10*
G36*
X89027691Y-121476053D02*
G01*
X89048926Y-121479203D01*
X89069750Y-121484419D01*
X89089962Y-121491651D01*
X89109368Y-121500830D01*
X89127781Y-121511866D01*
X89145024Y-121524654D01*
X89160930Y-121539070D01*
X89175346Y-121554976D01*
X89188134Y-121572219D01*
X89199170Y-121590632D01*
X89208349Y-121610038D01*
X89215581Y-121630250D01*
X89220797Y-121651074D01*
X89223947Y-121672309D01*
X89225000Y-121693750D01*
X89225000Y-122131250D01*
X89223947Y-122152691D01*
X89220797Y-122173926D01*
X89215581Y-122194750D01*
X89208349Y-122214962D01*
X89199170Y-122234368D01*
X89188134Y-122252781D01*
X89175346Y-122270024D01*
X89160930Y-122285930D01*
X89145024Y-122300346D01*
X89127781Y-122313134D01*
X89109368Y-122324170D01*
X89089962Y-122333349D01*
X89069750Y-122340581D01*
X89048926Y-122345797D01*
X89027691Y-122348947D01*
X89006250Y-122350000D01*
X88493750Y-122350000D01*
X88472309Y-122348947D01*
X88451074Y-122345797D01*
X88430250Y-122340581D01*
X88410038Y-122333349D01*
X88390632Y-122324170D01*
X88372219Y-122313134D01*
X88354976Y-122300346D01*
X88339070Y-122285930D01*
X88324654Y-122270024D01*
X88311866Y-122252781D01*
X88300830Y-122234368D01*
X88291651Y-122214962D01*
X88284419Y-122194750D01*
X88279203Y-122173926D01*
X88276053Y-122152691D01*
X88275000Y-122131250D01*
X88275000Y-121693750D01*
X88276053Y-121672309D01*
X88279203Y-121651074D01*
X88284419Y-121630250D01*
X88291651Y-121610038D01*
X88300830Y-121590632D01*
X88311866Y-121572219D01*
X88324654Y-121554976D01*
X88339070Y-121539070D01*
X88354976Y-121524654D01*
X88372219Y-121511866D01*
X88390632Y-121500830D01*
X88410038Y-121491651D01*
X88430250Y-121484419D01*
X88451074Y-121479203D01*
X88472309Y-121476053D01*
X88493750Y-121475000D01*
X89006250Y-121475000D01*
X89027691Y-121476053D01*
X89027691Y-121476053D01*
G37*
D11*
X88750000Y-121912500D03*
D10*
G36*
X89027691Y-123051053D02*
G01*
X89048926Y-123054203D01*
X89069750Y-123059419D01*
X89089962Y-123066651D01*
X89109368Y-123075830D01*
X89127781Y-123086866D01*
X89145024Y-123099654D01*
X89160930Y-123114070D01*
X89175346Y-123129976D01*
X89188134Y-123147219D01*
X89199170Y-123165632D01*
X89208349Y-123185038D01*
X89215581Y-123205250D01*
X89220797Y-123226074D01*
X89223947Y-123247309D01*
X89225000Y-123268750D01*
X89225000Y-123706250D01*
X89223947Y-123727691D01*
X89220797Y-123748926D01*
X89215581Y-123769750D01*
X89208349Y-123789962D01*
X89199170Y-123809368D01*
X89188134Y-123827781D01*
X89175346Y-123845024D01*
X89160930Y-123860930D01*
X89145024Y-123875346D01*
X89127781Y-123888134D01*
X89109368Y-123899170D01*
X89089962Y-123908349D01*
X89069750Y-123915581D01*
X89048926Y-123920797D01*
X89027691Y-123923947D01*
X89006250Y-123925000D01*
X88493750Y-123925000D01*
X88472309Y-123923947D01*
X88451074Y-123920797D01*
X88430250Y-123915581D01*
X88410038Y-123908349D01*
X88390632Y-123899170D01*
X88372219Y-123888134D01*
X88354976Y-123875346D01*
X88339070Y-123860930D01*
X88324654Y-123845024D01*
X88311866Y-123827781D01*
X88300830Y-123809368D01*
X88291651Y-123789962D01*
X88284419Y-123769750D01*
X88279203Y-123748926D01*
X88276053Y-123727691D01*
X88275000Y-123706250D01*
X88275000Y-123268750D01*
X88276053Y-123247309D01*
X88279203Y-123226074D01*
X88284419Y-123205250D01*
X88291651Y-123185038D01*
X88300830Y-123165632D01*
X88311866Y-123147219D01*
X88324654Y-123129976D01*
X88339070Y-123114070D01*
X88354976Y-123099654D01*
X88372219Y-123086866D01*
X88390632Y-123075830D01*
X88410038Y-123066651D01*
X88430250Y-123059419D01*
X88451074Y-123054203D01*
X88472309Y-123051053D01*
X88493750Y-123050000D01*
X89006250Y-123050000D01*
X89027691Y-123051053D01*
X89027691Y-123051053D01*
G37*
D11*
X88750000Y-123487500D03*
D10*
G36*
X93927691Y-121926053D02*
G01*
X93948926Y-121929203D01*
X93969750Y-121934419D01*
X93989962Y-121941651D01*
X94009368Y-121950830D01*
X94027781Y-121961866D01*
X94045024Y-121974654D01*
X94060930Y-121989070D01*
X94075346Y-122004976D01*
X94088134Y-122022219D01*
X94099170Y-122040632D01*
X94108349Y-122060038D01*
X94115581Y-122080250D01*
X94120797Y-122101074D01*
X94123947Y-122122309D01*
X94125000Y-122143750D01*
X94125000Y-122656250D01*
X94123947Y-122677691D01*
X94120797Y-122698926D01*
X94115581Y-122719750D01*
X94108349Y-122739962D01*
X94099170Y-122759368D01*
X94088134Y-122777781D01*
X94075346Y-122795024D01*
X94060930Y-122810930D01*
X94045024Y-122825346D01*
X94027781Y-122838134D01*
X94009368Y-122849170D01*
X93989962Y-122858349D01*
X93969750Y-122865581D01*
X93948926Y-122870797D01*
X93927691Y-122873947D01*
X93906250Y-122875000D01*
X93468750Y-122875000D01*
X93447309Y-122873947D01*
X93426074Y-122870797D01*
X93405250Y-122865581D01*
X93385038Y-122858349D01*
X93365632Y-122849170D01*
X93347219Y-122838134D01*
X93329976Y-122825346D01*
X93314070Y-122810930D01*
X93299654Y-122795024D01*
X93286866Y-122777781D01*
X93275830Y-122759368D01*
X93266651Y-122739962D01*
X93259419Y-122719750D01*
X93254203Y-122698926D01*
X93251053Y-122677691D01*
X93250000Y-122656250D01*
X93250000Y-122143750D01*
X93251053Y-122122309D01*
X93254203Y-122101074D01*
X93259419Y-122080250D01*
X93266651Y-122060038D01*
X93275830Y-122040632D01*
X93286866Y-122022219D01*
X93299654Y-122004976D01*
X93314070Y-121989070D01*
X93329976Y-121974654D01*
X93347219Y-121961866D01*
X93365632Y-121950830D01*
X93385038Y-121941651D01*
X93405250Y-121934419D01*
X93426074Y-121929203D01*
X93447309Y-121926053D01*
X93468750Y-121925000D01*
X93906250Y-121925000D01*
X93927691Y-121926053D01*
X93927691Y-121926053D01*
G37*
D11*
X93687500Y-122400000D03*
D10*
G36*
X92352691Y-121926053D02*
G01*
X92373926Y-121929203D01*
X92394750Y-121934419D01*
X92414962Y-121941651D01*
X92434368Y-121950830D01*
X92452781Y-121961866D01*
X92470024Y-121974654D01*
X92485930Y-121989070D01*
X92500346Y-122004976D01*
X92513134Y-122022219D01*
X92524170Y-122040632D01*
X92533349Y-122060038D01*
X92540581Y-122080250D01*
X92545797Y-122101074D01*
X92548947Y-122122309D01*
X92550000Y-122143750D01*
X92550000Y-122656250D01*
X92548947Y-122677691D01*
X92545797Y-122698926D01*
X92540581Y-122719750D01*
X92533349Y-122739962D01*
X92524170Y-122759368D01*
X92513134Y-122777781D01*
X92500346Y-122795024D01*
X92485930Y-122810930D01*
X92470024Y-122825346D01*
X92452781Y-122838134D01*
X92434368Y-122849170D01*
X92414962Y-122858349D01*
X92394750Y-122865581D01*
X92373926Y-122870797D01*
X92352691Y-122873947D01*
X92331250Y-122875000D01*
X91893750Y-122875000D01*
X91872309Y-122873947D01*
X91851074Y-122870797D01*
X91830250Y-122865581D01*
X91810038Y-122858349D01*
X91790632Y-122849170D01*
X91772219Y-122838134D01*
X91754976Y-122825346D01*
X91739070Y-122810930D01*
X91724654Y-122795024D01*
X91711866Y-122777781D01*
X91700830Y-122759368D01*
X91691651Y-122739962D01*
X91684419Y-122719750D01*
X91679203Y-122698926D01*
X91676053Y-122677691D01*
X91675000Y-122656250D01*
X91675000Y-122143750D01*
X91676053Y-122122309D01*
X91679203Y-122101074D01*
X91684419Y-122080250D01*
X91691651Y-122060038D01*
X91700830Y-122040632D01*
X91711866Y-122022219D01*
X91724654Y-122004976D01*
X91739070Y-121989070D01*
X91754976Y-121974654D01*
X91772219Y-121961866D01*
X91790632Y-121950830D01*
X91810038Y-121941651D01*
X91830250Y-121934419D01*
X91851074Y-121929203D01*
X91872309Y-121926053D01*
X91893750Y-121925000D01*
X92331250Y-121925000D01*
X92352691Y-121926053D01*
X92352691Y-121926053D01*
G37*
D11*
X92112500Y-122400000D03*
D12*
X74825000Y-118055000D03*
X70325000Y-118055000D03*
X70325000Y-110095000D03*
X74825000Y-110095000D03*
X99650000Y-118080000D03*
X104150000Y-118080000D03*
X104150000Y-110120000D03*
X99650000Y-110120000D03*
M02*
