M48
METRIC,TZ
T1C0.400
T2C0.500
T3C0.650
T4C0.700
T5C0.900
T6C1.000
T7C3.200
%
G90
G05
T1
X66800Y-124100
X66800Y-129300
X67600Y-124100
X67600Y-129300
X68400Y-124100
X68400Y-129300
X69200Y-124100
X69200Y-129300
X69625Y-108375
X69625Y-159975
X70000Y-90675
X70000Y-124100
X70000Y-129300
X70000Y-142275
X70800Y-124100
X70800Y-129300
X70850Y-91300
X70850Y-103550
X70850Y-142900
X70850Y-155150
X71175Y-112800
X71175Y-164400
X71725Y-91300
X71725Y-142900
X72650Y-91300
X72650Y-142900
X73000Y-97325
X73000Y-148925
X73112Y-102688
X73112Y-154288
X73400Y-110118
X73400Y-161718
X73975Y-100200
X73975Y-151800
X74625Y-101275
X74625Y-102325
X74625Y-103300
X74625Y-152875
X74625Y-153925
X74625Y-154900
X75700Y-78700
X75700Y-80900
X75700Y-83100
X75700Y-86700
X75700Y-130300
X75700Y-132500
X75700Y-134700
X75700Y-138300
X76025Y-104925
X76025Y-156525
X76213Y-102688
X76213Y-154288
X77700Y-78700
X77700Y-86700
X77700Y-130300
X77700Y-138300
X78025Y-103125
X78025Y-154725
X78250Y-104575
X78250Y-156175
X78575Y-101025
X78575Y-152625
X78800Y-113900
X78800Y-165500
X79700Y-78700
X79700Y-86700
X79700Y-130300
X79700Y-138300
X80200Y-92075
X80200Y-143675
X80950Y-98925
X80950Y-150525
X81300Y-110600
X81300Y-162200
X81700Y-78700
X81700Y-86700
X81700Y-130300
X81700Y-138300
X82100Y-99450
X82100Y-151050
X82625Y-106050
X82625Y-157650
X82800Y-122400
X82800Y-174000
X83700Y-78700
X83700Y-86700
X83700Y-130300
X83700Y-138300
X84300Y-90000
X84300Y-141600
X84925Y-106150
X84925Y-157750
X85625Y-93275
X85625Y-144875
X85700Y-78700
X85700Y-86700
X85700Y-130300
X85700Y-138300
X87050Y-103825
X87050Y-155425
X87125Y-121875
X87125Y-173475
X87150Y-94325
X87150Y-145925
X87700Y-78700
X87700Y-86700
X87700Y-130300
X87700Y-138300
X88050Y-90075
X88050Y-141675
X88850Y-117675
X88850Y-169275
X89265Y-109620
X89265Y-161220
X89575Y-106725
X89575Y-158325
X89700Y-78700
X89700Y-86700
X89700Y-130300
X89700Y-138300
X90300Y-110925
X90300Y-116800
X90300Y-162525
X90300Y-168400
X90725Y-102150
X90725Y-153750
X90775Y-99725
X90775Y-151325
X91525Y-104600
X91525Y-156200
X91700Y-78700
X91700Y-86700
X91700Y-130300
X91700Y-138300
X91925Y-101675
X91925Y-153275
X92625Y-92700
X92625Y-144300
X92800Y-104750
X92800Y-156350
X93475Y-96075
X93475Y-147675
X93700Y-78700
X93700Y-86700
X93700Y-130300
X93700Y-138300
X94000Y-104700
X94000Y-156300
X94325Y-99225
X94325Y-150825
X94700Y-96275
X94700Y-147875
X95050Y-104725
X95050Y-156325
X95700Y-78700
X95700Y-86700
X95700Y-130300
X95700Y-138300
X95775Y-102050
X95775Y-153650
X95819Y-100991
X95819Y-152591
X96050Y-103150
X96050Y-154750
X96175Y-90900
X96175Y-142500
X96900Y-95900
X96900Y-147500
X97700Y-78700
X97700Y-80700
X97700Y-82700
X97700Y-84700
X97700Y-86700
X97700Y-130300
X97700Y-132300
X97700Y-134300
X97700Y-136300
X97700Y-138300
X97750Y-92225
X97750Y-143825
X98925Y-106900
X98925Y-158500
X99925Y-90555
X99925Y-142155
X100875Y-97850
X100875Y-149450
X102125Y-94800
X102125Y-146400
X102825Y-108375
X102825Y-159975
X103700Y-124100
X103700Y-129300
X104500Y-124100
X104500Y-129300
X105300Y-124100
X105300Y-129300
X106100Y-124100
X106100Y-129300
X106900Y-124100
X106900Y-129300
X107700Y-124100
X107700Y-129300
X108400Y-77900
X108400Y-78700
X108400Y-79500
X108400Y-80300
X108400Y-81100
X108400Y-81900
X108400Y-119500
X108400Y-120300
X108400Y-121100
X108400Y-121900
X108400Y-122700
X108400Y-123500
X108400Y-129500
X108400Y-130300
X108400Y-131100
X108400Y-131900
X108400Y-132700
X108400Y-133500
X108400Y-171100
X108400Y-171900
X108400Y-172700
X108400Y-173500
X108400Y-174300
X108400Y-175100
X114100Y-77900
X114100Y-78700
X114100Y-79500
X114100Y-80300
X114100Y-81100
X114100Y-81900
X114100Y-119500
X114100Y-120300
X114100Y-121100
X114100Y-121900
X114100Y-122700
X114100Y-123500
X114100Y-129500
X114100Y-130300
X114100Y-131100
X114100Y-131900
X114100Y-132700
X114100Y-133500
X114100Y-171100
X114100Y-171900
X114100Y-172700
X114100Y-173500
X114100Y-174300
X114100Y-175100
X114700Y-124100
X114700Y-129300
X115500Y-124100
X115500Y-129300
X116300Y-124100
X116300Y-129300
X117100Y-124100
X117100Y-129300
X117325Y-108375
X117325Y-159975
X117700Y-90675
X117700Y-142275
X117900Y-124100
X117900Y-129300
X118550Y-91300
X118550Y-103550
X118550Y-142900
X118550Y-155150
X118700Y-124100
X118700Y-129300
X118875Y-112800
X118875Y-164400
X119425Y-91300
X119425Y-142900
X120350Y-91300
X120350Y-142900
X120700Y-97325
X120700Y-148925
X120812Y-102688
X120812Y-154288
X121100Y-110118
X121100Y-161718
X121675Y-100200
X121675Y-151800
X122325Y-101275
X122325Y-102325
X122325Y-103300
X122325Y-152875
X122325Y-153925
X122325Y-154900
X123400Y-78700
X123400Y-80900
X123400Y-83100
X123400Y-86700
X123400Y-130300
X123400Y-132500
X123400Y-134700
X123400Y-138300
X123725Y-104925
X123725Y-156525
X123913Y-102688
X123913Y-154288
X125400Y-78700
X125400Y-86700
X125400Y-130300
X125400Y-138300
X125725Y-103125
X125725Y-154725
X125950Y-104575
X125950Y-156175
X126275Y-101025
X126275Y-152625
X126500Y-113900
X126500Y-165500
X127400Y-78700
X127400Y-86700
X127400Y-130300
X127400Y-138300
X127900Y-92075
X127900Y-143675
X128650Y-98925
X128650Y-150525
X129000Y-110600
X129000Y-162200
X129400Y-78700
X129400Y-86700
X129400Y-130300
X129400Y-138300
X129800Y-99450
X129800Y-151050
X130325Y-106050
X130325Y-157650
X130500Y-122400
X130500Y-174000
X131400Y-78700
X131400Y-86700
X131400Y-130300
X131400Y-138300
X132000Y-90000
X132000Y-141600
X132625Y-106150
X132625Y-157750
X133325Y-93275
X133325Y-144875
X133400Y-78700
X133400Y-86700
X133400Y-130300
X133400Y-138300
X134750Y-103825
X134750Y-155425
X134825Y-121875
X134825Y-173475
X134850Y-94325
X134850Y-145925
X135400Y-78700
X135400Y-86700
X135400Y-130300
X135400Y-138300
X135750Y-90075
X135750Y-141675
X136550Y-117675
X136550Y-169275
X136965Y-109620
X136965Y-161220
X137275Y-106725
X137275Y-158325
X137400Y-78700
X137400Y-86700
X137400Y-130300
X137400Y-138300
X138000Y-110925
X138000Y-116800
X138000Y-162525
X138000Y-168400
X138425Y-102150
X138425Y-153750
X138475Y-99725
X138475Y-151325
X139225Y-104600
X139225Y-156200
X139400Y-78700
X139400Y-86700
X139400Y-130300
X139400Y-138300
X139625Y-101675
X139625Y-153275
X140325Y-92700
X140325Y-144300
X140500Y-104750
X140500Y-156350
X141175Y-96075
X141175Y-147675
X141400Y-78700
X141400Y-86700
X141400Y-130300
X141400Y-138300
X141700Y-104700
X141700Y-156300
X142025Y-99225
X142025Y-150825
X142400Y-96275
X142400Y-147875
X142750Y-104725
X142750Y-156325
X143400Y-78700
X143400Y-86700
X143400Y-130300
X143400Y-138300
X143475Y-102050
X143475Y-153650
X143519Y-100991
X143519Y-152591
X143750Y-103150
X143750Y-154750
X143875Y-90900
X143875Y-142500
X144600Y-95900
X144600Y-147500
X145400Y-78700
X145400Y-80700
X145400Y-82700
X145400Y-84700
X145400Y-86700
X145400Y-130300
X145400Y-132300
X145400Y-134300
X145400Y-136300
X145400Y-138300
X145450Y-92225
X145450Y-143825
X146625Y-106900
X146625Y-158500
X147625Y-90555
X147625Y-142155
X148575Y-97850
X148575Y-149450
X149825Y-94800
X149825Y-146400
X150525Y-108375
X150525Y-159975
X151600Y-124100
X151600Y-129300
X152400Y-124100
X152400Y-129300
X153200Y-124100
X153200Y-129300
X154000Y-124100
X154000Y-129300
X154800Y-124100
X154800Y-129300
X155600Y-124100
X155600Y-129300
T4
X149435Y-89600
X150705Y-89600
X151975Y-89600
X149435Y-141200
X150705Y-141200
X151975Y-141200
X101735Y-141200
X103005Y-141200
X104275Y-141200
X101735Y-89600
X103005Y-89600
X104275Y-89600
T5
X68800Y-103760
X68800Y-106300
X68800Y-155360
X68800Y-157900
X116500Y-103760
X116500Y-106300
X153500Y-103760
X153500Y-106300
X105800Y-103760
X105800Y-106300
X105800Y-155360
X105800Y-157900
X116500Y-155360
X116500Y-157900
X153500Y-155360
X153500Y-157900
T6
X86700Y-84450
X134400Y-136050
X134400Y-84450
X86700Y-136050
T7
X117600Y-81000
X117600Y-132600
X152600Y-81000
X104900Y-132600
X104900Y-81000
X69900Y-81000
X152600Y-132600
X69900Y-132600
T2
G00X154900Y-114450
M15
G01X154900Y-117150
M16
G05
G00X154900Y-166050
M15
G01X154900Y-168750
M16
G05
G00X115300Y-117150
M15
G01X115300Y-114450
M16
G05
G00X107200Y-114450
M15
G01X107200Y-117150
M16
G05
G00X67600Y-117150
M15
G01X67600Y-114450
M16
G05
G00X115300Y-168750
M15
G01X115300Y-166050
M16
G05
G00X107200Y-166050
M15
G01X107200Y-168750
M16
G05
G00X67600Y-168750
M15
G01X67600Y-166050
M16
G05
T3
G00X151515Y-146255
M15
G01X151115Y-146255
M16
G05
G00X151515Y-151095
M15
G01X151115Y-151095
M16
G05
G00X103815Y-94655
M15
G01X103415Y-94655
M16
G05
G00X103815Y-99495
M15
G01X103415Y-99495
M16
G05
G00X103815Y-146255
M15
G01X103415Y-146255
M16
G05
G00X103815Y-151095
M15
G01X103415Y-151095
M16
G05
G00X151515Y-94655
M15
G01X151115Y-94655
M16
G05
G00X151515Y-99495
M15
G01X151115Y-99495
M16
G05
T4
G00X106865Y-145945
M15
G01X106365Y-145945
M16
G05
G00X106865Y-151405
M15
G01X106365Y-151405
M16
G05
G00X154565Y-94345
M15
G01X154065Y-94345
M16
G05
G00X154565Y-99805
M15
G01X154065Y-99805
M16
G05
G00X154565Y-145945
M15
G01X154065Y-145945
M16
G05
G00X154565Y-151405
M15
G01X154065Y-151405
M16
G05
G00X106865Y-94345
M15
G01X106365Y-94345
M16
G05
G00X106865Y-99805
M15
G01X106365Y-99805
M16
G05
T0
M30
