G04 #@! TF.GenerationSoftware,KiCad,Pcbnew,5.1.4*
G04 #@! TF.CreationDate,2019-09-20T10:22:23+02:00*
G04 #@! TF.ProjectId,panel,70616e65-6c2e-46b6-9963-61645f706362,0.1*
G04 #@! TF.SameCoordinates,Original*
G04 #@! TF.FileFunction,Soldermask,Top*
G04 #@! TF.FilePolarity,Negative*
%FSLAX46Y46*%
G04 Gerber Fmt 4.6, Leading zero omitted, Abs format (unit mm)*
G04 Created by KiCad (PCBNEW 5.1.4) date 2019-09-20 10:22:23*
%MOMM*%
%LPD*%
G04 APERTURE LIST*
%ADD10C,0.100000*%
G04 APERTURE END LIST*
D10*
G36*
X95679591Y-174603085D02*
G01*
X95713569Y-174613393D01*
X95744890Y-174630134D01*
X95772339Y-174652661D01*
X95794866Y-174680110D01*
X95811607Y-174711431D01*
X95821915Y-174745409D01*
X95826000Y-174786890D01*
X95826000Y-175388110D01*
X95821915Y-175429591D01*
X95811607Y-175463569D01*
X95794866Y-175494890D01*
X95772339Y-175522339D01*
X95744890Y-175544866D01*
X95713569Y-175561607D01*
X95679591Y-175571915D01*
X95638110Y-175576000D01*
X94961890Y-175576000D01*
X94920409Y-175571915D01*
X94886431Y-175561607D01*
X94855110Y-175544866D01*
X94827661Y-175522339D01*
X94805134Y-175494890D01*
X94788393Y-175463569D01*
X94778085Y-175429591D01*
X94774000Y-175388110D01*
X94774000Y-174786890D01*
X94778085Y-174745409D01*
X94788393Y-174711431D01*
X94805134Y-174680110D01*
X94827661Y-174652661D01*
X94855110Y-174630134D01*
X94886431Y-174613393D01*
X94920409Y-174603085D01*
X94961890Y-174599000D01*
X95638110Y-174599000D01*
X95679591Y-174603085D01*
X95679591Y-174603085D01*
G37*
G36*
X138429591Y-174603085D02*
G01*
X138463569Y-174613393D01*
X138494890Y-174630134D01*
X138522339Y-174652661D01*
X138544866Y-174680110D01*
X138561607Y-174711431D01*
X138571915Y-174745409D01*
X138576000Y-174786890D01*
X138576000Y-175388110D01*
X138571915Y-175429591D01*
X138561607Y-175463569D01*
X138544866Y-175494890D01*
X138522339Y-175522339D01*
X138494890Y-175544866D01*
X138463569Y-175561607D01*
X138429591Y-175571915D01*
X138388110Y-175576000D01*
X137711890Y-175576000D01*
X137670409Y-175571915D01*
X137636431Y-175561607D01*
X137605110Y-175544866D01*
X137577661Y-175522339D01*
X137555134Y-175494890D01*
X137538393Y-175463569D01*
X137528085Y-175429591D01*
X137524000Y-175388110D01*
X137524000Y-174786890D01*
X137528085Y-174745409D01*
X137538393Y-174711431D01*
X137555134Y-174680110D01*
X137577661Y-174652661D01*
X137605110Y-174630134D01*
X137636431Y-174613393D01*
X137670409Y-174603085D01*
X137711890Y-174599000D01*
X138388110Y-174599000D01*
X138429591Y-174603085D01*
X138429591Y-174603085D01*
G37*
G36*
X136829591Y-174603085D02*
G01*
X136863569Y-174613393D01*
X136894890Y-174630134D01*
X136922339Y-174652661D01*
X136944866Y-174680110D01*
X136961607Y-174711431D01*
X136971915Y-174745409D01*
X136976000Y-174786890D01*
X136976000Y-175388110D01*
X136971915Y-175429591D01*
X136961607Y-175463569D01*
X136944866Y-175494890D01*
X136922339Y-175522339D01*
X136894890Y-175544866D01*
X136863569Y-175561607D01*
X136829591Y-175571915D01*
X136788110Y-175576000D01*
X136111890Y-175576000D01*
X136070409Y-175571915D01*
X136036431Y-175561607D01*
X136005110Y-175544866D01*
X135977661Y-175522339D01*
X135955134Y-175494890D01*
X135938393Y-175463569D01*
X135928085Y-175429591D01*
X135924000Y-175388110D01*
X135924000Y-174786890D01*
X135928085Y-174745409D01*
X135938393Y-174711431D01*
X135955134Y-174680110D01*
X135977661Y-174652661D01*
X136005110Y-174630134D01*
X136036431Y-174613393D01*
X136070409Y-174603085D01*
X136111890Y-174599000D01*
X136788110Y-174599000D01*
X136829591Y-174603085D01*
X136829591Y-174603085D01*
G37*
G36*
X90729591Y-174603085D02*
G01*
X90763569Y-174613393D01*
X90794890Y-174630134D01*
X90822339Y-174652661D01*
X90844866Y-174680110D01*
X90861607Y-174711431D01*
X90871915Y-174745409D01*
X90876000Y-174786890D01*
X90876000Y-175388110D01*
X90871915Y-175429591D01*
X90861607Y-175463569D01*
X90844866Y-175494890D01*
X90822339Y-175522339D01*
X90794890Y-175544866D01*
X90763569Y-175561607D01*
X90729591Y-175571915D01*
X90688110Y-175576000D01*
X90011890Y-175576000D01*
X89970409Y-175571915D01*
X89936431Y-175561607D01*
X89905110Y-175544866D01*
X89877661Y-175522339D01*
X89855134Y-175494890D01*
X89838393Y-175463569D01*
X89828085Y-175429591D01*
X89824000Y-175388110D01*
X89824000Y-174786890D01*
X89828085Y-174745409D01*
X89838393Y-174711431D01*
X89855134Y-174680110D01*
X89877661Y-174652661D01*
X89905110Y-174630134D01*
X89936431Y-174613393D01*
X89970409Y-174603085D01*
X90011890Y-174599000D01*
X90688110Y-174599000D01*
X90729591Y-174603085D01*
X90729591Y-174603085D01*
G37*
G36*
X89129591Y-174603085D02*
G01*
X89163569Y-174613393D01*
X89194890Y-174630134D01*
X89222339Y-174652661D01*
X89244866Y-174680110D01*
X89261607Y-174711431D01*
X89271915Y-174745409D01*
X89276000Y-174786890D01*
X89276000Y-175388110D01*
X89271915Y-175429591D01*
X89261607Y-175463569D01*
X89244866Y-175494890D01*
X89222339Y-175522339D01*
X89194890Y-175544866D01*
X89163569Y-175561607D01*
X89129591Y-175571915D01*
X89088110Y-175576000D01*
X88411890Y-175576000D01*
X88370409Y-175571915D01*
X88336431Y-175561607D01*
X88305110Y-175544866D01*
X88277661Y-175522339D01*
X88255134Y-175494890D01*
X88238393Y-175463569D01*
X88228085Y-175429591D01*
X88224000Y-175388110D01*
X88224000Y-174786890D01*
X88228085Y-174745409D01*
X88238393Y-174711431D01*
X88255134Y-174680110D01*
X88277661Y-174652661D01*
X88305110Y-174630134D01*
X88336431Y-174613393D01*
X88370409Y-174603085D01*
X88411890Y-174599000D01*
X89088110Y-174599000D01*
X89129591Y-174603085D01*
X89129591Y-174603085D01*
G37*
G36*
X97179591Y-174603085D02*
G01*
X97213569Y-174613393D01*
X97244890Y-174630134D01*
X97272339Y-174652661D01*
X97294866Y-174680110D01*
X97311607Y-174711431D01*
X97321915Y-174745409D01*
X97326000Y-174786890D01*
X97326000Y-175388110D01*
X97321915Y-175429591D01*
X97311607Y-175463569D01*
X97294866Y-175494890D01*
X97272339Y-175522339D01*
X97244890Y-175544866D01*
X97213569Y-175561607D01*
X97179591Y-175571915D01*
X97138110Y-175576000D01*
X96461890Y-175576000D01*
X96420409Y-175571915D01*
X96386431Y-175561607D01*
X96355110Y-175544866D01*
X96327661Y-175522339D01*
X96305134Y-175494890D01*
X96288393Y-175463569D01*
X96278085Y-175429591D01*
X96274000Y-175388110D01*
X96274000Y-174786890D01*
X96278085Y-174745409D01*
X96288393Y-174711431D01*
X96305134Y-174680110D01*
X96327661Y-174652661D01*
X96355110Y-174630134D01*
X96386431Y-174613393D01*
X96420409Y-174603085D01*
X96461890Y-174599000D01*
X97138110Y-174599000D01*
X97179591Y-174603085D01*
X97179591Y-174603085D01*
G37*
G36*
X144879591Y-174603085D02*
G01*
X144913569Y-174613393D01*
X144944890Y-174630134D01*
X144972339Y-174652661D01*
X144994866Y-174680110D01*
X145011607Y-174711431D01*
X145021915Y-174745409D01*
X145026000Y-174786890D01*
X145026000Y-175388110D01*
X145021915Y-175429591D01*
X145011607Y-175463569D01*
X144994866Y-175494890D01*
X144972339Y-175522339D01*
X144944890Y-175544866D01*
X144913569Y-175561607D01*
X144879591Y-175571915D01*
X144838110Y-175576000D01*
X144161890Y-175576000D01*
X144120409Y-175571915D01*
X144086431Y-175561607D01*
X144055110Y-175544866D01*
X144027661Y-175522339D01*
X144005134Y-175494890D01*
X143988393Y-175463569D01*
X143978085Y-175429591D01*
X143974000Y-175388110D01*
X143974000Y-174786890D01*
X143978085Y-174745409D01*
X143988393Y-174711431D01*
X144005134Y-174680110D01*
X144027661Y-174652661D01*
X144055110Y-174630134D01*
X144086431Y-174613393D01*
X144120409Y-174603085D01*
X144161890Y-174599000D01*
X144838110Y-174599000D01*
X144879591Y-174603085D01*
X144879591Y-174603085D01*
G37*
G36*
X143379591Y-174603085D02*
G01*
X143413569Y-174613393D01*
X143444890Y-174630134D01*
X143472339Y-174652661D01*
X143494866Y-174680110D01*
X143511607Y-174711431D01*
X143521915Y-174745409D01*
X143526000Y-174786890D01*
X143526000Y-175388110D01*
X143521915Y-175429591D01*
X143511607Y-175463569D01*
X143494866Y-175494890D01*
X143472339Y-175522339D01*
X143444890Y-175544866D01*
X143413569Y-175561607D01*
X143379591Y-175571915D01*
X143338110Y-175576000D01*
X142661890Y-175576000D01*
X142620409Y-175571915D01*
X142586431Y-175561607D01*
X142555110Y-175544866D01*
X142527661Y-175522339D01*
X142505134Y-175494890D01*
X142488393Y-175463569D01*
X142478085Y-175429591D01*
X142474000Y-175388110D01*
X142474000Y-174786890D01*
X142478085Y-174745409D01*
X142488393Y-174711431D01*
X142505134Y-174680110D01*
X142527661Y-174652661D01*
X142555110Y-174630134D01*
X142586431Y-174613393D01*
X142620409Y-174603085D01*
X142661890Y-174599000D01*
X143338110Y-174599000D01*
X143379591Y-174603085D01*
X143379591Y-174603085D01*
G37*
G36*
X78342091Y-173478085D02*
G01*
X78376069Y-173488393D01*
X78407390Y-173505134D01*
X78434839Y-173527661D01*
X78457366Y-173555110D01*
X78474107Y-173586431D01*
X78484415Y-173620409D01*
X78488500Y-173661890D01*
X78488500Y-174338110D01*
X78484415Y-174379591D01*
X78474107Y-174413569D01*
X78457366Y-174444890D01*
X78434839Y-174472339D01*
X78407390Y-174494866D01*
X78376069Y-174511607D01*
X78342091Y-174521915D01*
X78300610Y-174526000D01*
X77699390Y-174526000D01*
X77657909Y-174521915D01*
X77623931Y-174511607D01*
X77592610Y-174494866D01*
X77565161Y-174472339D01*
X77542634Y-174444890D01*
X77525893Y-174413569D01*
X77515585Y-174379591D01*
X77511500Y-174338110D01*
X77511500Y-173661890D01*
X77515585Y-173620409D01*
X77525893Y-173586431D01*
X77542634Y-173555110D01*
X77565161Y-173527661D01*
X77592610Y-173505134D01*
X77623931Y-173488393D01*
X77657909Y-173478085D01*
X77699390Y-173474000D01*
X78300610Y-173474000D01*
X78342091Y-173478085D01*
X78342091Y-173478085D01*
G37*
G36*
X124467091Y-173478085D02*
G01*
X124501069Y-173488393D01*
X124532390Y-173505134D01*
X124559839Y-173527661D01*
X124582366Y-173555110D01*
X124599107Y-173586431D01*
X124609415Y-173620409D01*
X124613500Y-173661890D01*
X124613500Y-174338110D01*
X124609415Y-174379591D01*
X124599107Y-174413569D01*
X124582366Y-174444890D01*
X124559839Y-174472339D01*
X124532390Y-174494866D01*
X124501069Y-174511607D01*
X124467091Y-174521915D01*
X124425610Y-174526000D01*
X123824390Y-174526000D01*
X123782909Y-174521915D01*
X123748931Y-174511607D01*
X123717610Y-174494866D01*
X123690161Y-174472339D01*
X123667634Y-174444890D01*
X123650893Y-174413569D01*
X123640585Y-174379591D01*
X123636500Y-174338110D01*
X123636500Y-173661890D01*
X123640585Y-173620409D01*
X123650893Y-173586431D01*
X123667634Y-173555110D01*
X123690161Y-173527661D01*
X123717610Y-173505134D01*
X123748931Y-173488393D01*
X123782909Y-173478085D01*
X123824390Y-173474000D01*
X124425610Y-173474000D01*
X124467091Y-173478085D01*
X124467091Y-173478085D01*
G37*
G36*
X76767091Y-173478085D02*
G01*
X76801069Y-173488393D01*
X76832390Y-173505134D01*
X76859839Y-173527661D01*
X76882366Y-173555110D01*
X76899107Y-173586431D01*
X76909415Y-173620409D01*
X76913500Y-173661890D01*
X76913500Y-174338110D01*
X76909415Y-174379591D01*
X76899107Y-174413569D01*
X76882366Y-174444890D01*
X76859839Y-174472339D01*
X76832390Y-174494866D01*
X76801069Y-174511607D01*
X76767091Y-174521915D01*
X76725610Y-174526000D01*
X76124390Y-174526000D01*
X76082909Y-174521915D01*
X76048931Y-174511607D01*
X76017610Y-174494866D01*
X75990161Y-174472339D01*
X75967634Y-174444890D01*
X75950893Y-174413569D01*
X75940585Y-174379591D01*
X75936500Y-174338110D01*
X75936500Y-173661890D01*
X75940585Y-173620409D01*
X75950893Y-173586431D01*
X75967634Y-173555110D01*
X75990161Y-173527661D01*
X76017610Y-173505134D01*
X76048931Y-173488393D01*
X76082909Y-173478085D01*
X76124390Y-173474000D01*
X76725610Y-173474000D01*
X76767091Y-173478085D01*
X76767091Y-173478085D01*
G37*
G36*
X79954591Y-173478085D02*
G01*
X79988569Y-173488393D01*
X80019890Y-173505134D01*
X80047339Y-173527661D01*
X80069866Y-173555110D01*
X80086607Y-173586431D01*
X80096915Y-173620409D01*
X80101000Y-173661890D01*
X80101000Y-174338110D01*
X80096915Y-174379591D01*
X80086607Y-174413569D01*
X80069866Y-174444890D01*
X80047339Y-174472339D01*
X80019890Y-174494866D01*
X79988569Y-174511607D01*
X79954591Y-174521915D01*
X79913110Y-174526000D01*
X79311890Y-174526000D01*
X79270409Y-174521915D01*
X79236431Y-174511607D01*
X79205110Y-174494866D01*
X79177661Y-174472339D01*
X79155134Y-174444890D01*
X79138393Y-174413569D01*
X79128085Y-174379591D01*
X79124000Y-174338110D01*
X79124000Y-173661890D01*
X79128085Y-173620409D01*
X79138393Y-173586431D01*
X79155134Y-173555110D01*
X79177661Y-173527661D01*
X79205110Y-173505134D01*
X79236431Y-173488393D01*
X79270409Y-173478085D01*
X79311890Y-173474000D01*
X79913110Y-173474000D01*
X79954591Y-173478085D01*
X79954591Y-173478085D01*
G37*
G36*
X129229591Y-173478085D02*
G01*
X129263569Y-173488393D01*
X129294890Y-173505134D01*
X129322339Y-173527661D01*
X129344866Y-173555110D01*
X129361607Y-173586431D01*
X129371915Y-173620409D01*
X129376000Y-173661890D01*
X129376000Y-174338110D01*
X129371915Y-174379591D01*
X129361607Y-174413569D01*
X129344866Y-174444890D01*
X129322339Y-174472339D01*
X129294890Y-174494866D01*
X129263569Y-174511607D01*
X129229591Y-174521915D01*
X129188110Y-174526000D01*
X128586890Y-174526000D01*
X128545409Y-174521915D01*
X128511431Y-174511607D01*
X128480110Y-174494866D01*
X128452661Y-174472339D01*
X128430134Y-174444890D01*
X128413393Y-174413569D01*
X128403085Y-174379591D01*
X128399000Y-174338110D01*
X128399000Y-173661890D01*
X128403085Y-173620409D01*
X128413393Y-173586431D01*
X128430134Y-173555110D01*
X128452661Y-173527661D01*
X128480110Y-173505134D01*
X128511431Y-173488393D01*
X128545409Y-173478085D01*
X128586890Y-173474000D01*
X129188110Y-173474000D01*
X129229591Y-173478085D01*
X129229591Y-173478085D01*
G37*
G36*
X86029591Y-173478085D02*
G01*
X86063569Y-173488393D01*
X86094890Y-173505134D01*
X86122339Y-173527661D01*
X86144866Y-173555110D01*
X86161607Y-173586431D01*
X86171915Y-173620409D01*
X86176000Y-173661890D01*
X86176000Y-174338110D01*
X86171915Y-174379591D01*
X86161607Y-174413569D01*
X86144866Y-174444890D01*
X86122339Y-174472339D01*
X86094890Y-174494866D01*
X86063569Y-174511607D01*
X86029591Y-174521915D01*
X85988110Y-174526000D01*
X85386890Y-174526000D01*
X85345409Y-174521915D01*
X85311431Y-174511607D01*
X85280110Y-174494866D01*
X85252661Y-174472339D01*
X85230134Y-174444890D01*
X85213393Y-174413569D01*
X85203085Y-174379591D01*
X85199000Y-174338110D01*
X85199000Y-173661890D01*
X85203085Y-173620409D01*
X85213393Y-173586431D01*
X85230134Y-173555110D01*
X85252661Y-173527661D01*
X85280110Y-173505134D01*
X85311431Y-173488393D01*
X85345409Y-173478085D01*
X85386890Y-173474000D01*
X85988110Y-173474000D01*
X86029591Y-173478085D01*
X86029591Y-173478085D01*
G37*
G36*
X84454591Y-173478085D02*
G01*
X84488569Y-173488393D01*
X84519890Y-173505134D01*
X84547339Y-173527661D01*
X84569866Y-173555110D01*
X84586607Y-173586431D01*
X84596915Y-173620409D01*
X84601000Y-173661890D01*
X84601000Y-174338110D01*
X84596915Y-174379591D01*
X84586607Y-174413569D01*
X84569866Y-174444890D01*
X84547339Y-174472339D01*
X84519890Y-174494866D01*
X84488569Y-174511607D01*
X84454591Y-174521915D01*
X84413110Y-174526000D01*
X83811890Y-174526000D01*
X83770409Y-174521915D01*
X83736431Y-174511607D01*
X83705110Y-174494866D01*
X83677661Y-174472339D01*
X83655134Y-174444890D01*
X83638393Y-174413569D01*
X83628085Y-174379591D01*
X83624000Y-174338110D01*
X83624000Y-173661890D01*
X83628085Y-173620409D01*
X83638393Y-173586431D01*
X83655134Y-173555110D01*
X83677661Y-173527661D01*
X83705110Y-173505134D01*
X83736431Y-173488393D01*
X83770409Y-173478085D01*
X83811890Y-173474000D01*
X84413110Y-173474000D01*
X84454591Y-173478085D01*
X84454591Y-173478085D01*
G37*
G36*
X81529591Y-173478085D02*
G01*
X81563569Y-173488393D01*
X81594890Y-173505134D01*
X81622339Y-173527661D01*
X81644866Y-173555110D01*
X81661607Y-173586431D01*
X81671915Y-173620409D01*
X81676000Y-173661890D01*
X81676000Y-174338110D01*
X81671915Y-174379591D01*
X81661607Y-174413569D01*
X81644866Y-174444890D01*
X81622339Y-174472339D01*
X81594890Y-174494866D01*
X81563569Y-174511607D01*
X81529591Y-174521915D01*
X81488110Y-174526000D01*
X80886890Y-174526000D01*
X80845409Y-174521915D01*
X80811431Y-174511607D01*
X80780110Y-174494866D01*
X80752661Y-174472339D01*
X80730134Y-174444890D01*
X80713393Y-174413569D01*
X80703085Y-174379591D01*
X80699000Y-174338110D01*
X80699000Y-173661890D01*
X80703085Y-173620409D01*
X80713393Y-173586431D01*
X80730134Y-173555110D01*
X80752661Y-173527661D01*
X80780110Y-173505134D01*
X80811431Y-173488393D01*
X80845409Y-173478085D01*
X80886890Y-173474000D01*
X81488110Y-173474000D01*
X81529591Y-173478085D01*
X81529591Y-173478085D01*
G37*
G36*
X94029591Y-173478085D02*
G01*
X94063569Y-173488393D01*
X94094890Y-173505134D01*
X94122339Y-173527661D01*
X94144866Y-173555110D01*
X94161607Y-173586431D01*
X94171915Y-173620409D01*
X94176000Y-173661890D01*
X94176000Y-174338110D01*
X94171915Y-174379591D01*
X94161607Y-174413569D01*
X94144866Y-174444890D01*
X94122339Y-174472339D01*
X94094890Y-174494866D01*
X94063569Y-174511607D01*
X94029591Y-174521915D01*
X93988110Y-174526000D01*
X93386890Y-174526000D01*
X93345409Y-174521915D01*
X93311431Y-174511607D01*
X93280110Y-174494866D01*
X93252661Y-174472339D01*
X93230134Y-174444890D01*
X93213393Y-174413569D01*
X93203085Y-174379591D01*
X93199000Y-174338110D01*
X93199000Y-173661890D01*
X93203085Y-173620409D01*
X93213393Y-173586431D01*
X93230134Y-173555110D01*
X93252661Y-173527661D01*
X93280110Y-173505134D01*
X93311431Y-173488393D01*
X93345409Y-173478085D01*
X93386890Y-173474000D01*
X93988110Y-173474000D01*
X94029591Y-173478085D01*
X94029591Y-173478085D01*
G37*
G36*
X133729591Y-173478085D02*
G01*
X133763569Y-173488393D01*
X133794890Y-173505134D01*
X133822339Y-173527661D01*
X133844866Y-173555110D01*
X133861607Y-173586431D01*
X133871915Y-173620409D01*
X133876000Y-173661890D01*
X133876000Y-174338110D01*
X133871915Y-174379591D01*
X133861607Y-174413569D01*
X133844866Y-174444890D01*
X133822339Y-174472339D01*
X133794890Y-174494866D01*
X133763569Y-174511607D01*
X133729591Y-174521915D01*
X133688110Y-174526000D01*
X133086890Y-174526000D01*
X133045409Y-174521915D01*
X133011431Y-174511607D01*
X132980110Y-174494866D01*
X132952661Y-174472339D01*
X132930134Y-174444890D01*
X132913393Y-174413569D01*
X132903085Y-174379591D01*
X132899000Y-174338110D01*
X132899000Y-173661890D01*
X132903085Y-173620409D01*
X132913393Y-173586431D01*
X132930134Y-173555110D01*
X132952661Y-173527661D01*
X132980110Y-173505134D01*
X133011431Y-173488393D01*
X133045409Y-173478085D01*
X133086890Y-173474000D01*
X133688110Y-173474000D01*
X133729591Y-173478085D01*
X133729591Y-173478085D01*
G37*
G36*
X132154591Y-173478085D02*
G01*
X132188569Y-173488393D01*
X132219890Y-173505134D01*
X132247339Y-173527661D01*
X132269866Y-173555110D01*
X132286607Y-173586431D01*
X132296915Y-173620409D01*
X132301000Y-173661890D01*
X132301000Y-174338110D01*
X132296915Y-174379591D01*
X132286607Y-174413569D01*
X132269866Y-174444890D01*
X132247339Y-174472339D01*
X132219890Y-174494866D01*
X132188569Y-174511607D01*
X132154591Y-174521915D01*
X132113110Y-174526000D01*
X131511890Y-174526000D01*
X131470409Y-174521915D01*
X131436431Y-174511607D01*
X131405110Y-174494866D01*
X131377661Y-174472339D01*
X131355134Y-174444890D01*
X131338393Y-174413569D01*
X131328085Y-174379591D01*
X131324000Y-174338110D01*
X131324000Y-173661890D01*
X131328085Y-173620409D01*
X131338393Y-173586431D01*
X131355134Y-173555110D01*
X131377661Y-173527661D01*
X131405110Y-173505134D01*
X131436431Y-173488393D01*
X131470409Y-173478085D01*
X131511890Y-173474000D01*
X132113110Y-173474000D01*
X132154591Y-173478085D01*
X132154591Y-173478085D01*
G37*
G36*
X126042091Y-173478085D02*
G01*
X126076069Y-173488393D01*
X126107390Y-173505134D01*
X126134839Y-173527661D01*
X126157366Y-173555110D01*
X126174107Y-173586431D01*
X126184415Y-173620409D01*
X126188500Y-173661890D01*
X126188500Y-174338110D01*
X126184415Y-174379591D01*
X126174107Y-174413569D01*
X126157366Y-174444890D01*
X126134839Y-174472339D01*
X126107390Y-174494866D01*
X126076069Y-174511607D01*
X126042091Y-174521915D01*
X126000610Y-174526000D01*
X125399390Y-174526000D01*
X125357909Y-174521915D01*
X125323931Y-174511607D01*
X125292610Y-174494866D01*
X125265161Y-174472339D01*
X125242634Y-174444890D01*
X125225893Y-174413569D01*
X125215585Y-174379591D01*
X125211500Y-174338110D01*
X125211500Y-173661890D01*
X125215585Y-173620409D01*
X125225893Y-173586431D01*
X125242634Y-173555110D01*
X125265161Y-173527661D01*
X125292610Y-173505134D01*
X125323931Y-173488393D01*
X125357909Y-173478085D01*
X125399390Y-173474000D01*
X126000610Y-173474000D01*
X126042091Y-173478085D01*
X126042091Y-173478085D01*
G37*
G36*
X141729591Y-173478085D02*
G01*
X141763569Y-173488393D01*
X141794890Y-173505134D01*
X141822339Y-173527661D01*
X141844866Y-173555110D01*
X141861607Y-173586431D01*
X141871915Y-173620409D01*
X141876000Y-173661890D01*
X141876000Y-174338110D01*
X141871915Y-174379591D01*
X141861607Y-174413569D01*
X141844866Y-174444890D01*
X141822339Y-174472339D01*
X141794890Y-174494866D01*
X141763569Y-174511607D01*
X141729591Y-174521915D01*
X141688110Y-174526000D01*
X141086890Y-174526000D01*
X141045409Y-174521915D01*
X141011431Y-174511607D01*
X140980110Y-174494866D01*
X140952661Y-174472339D01*
X140930134Y-174444890D01*
X140913393Y-174413569D01*
X140903085Y-174379591D01*
X140899000Y-174338110D01*
X140899000Y-173661890D01*
X140903085Y-173620409D01*
X140913393Y-173586431D01*
X140930134Y-173555110D01*
X140952661Y-173527661D01*
X140980110Y-173505134D01*
X141011431Y-173488393D01*
X141045409Y-173478085D01*
X141086890Y-173474000D01*
X141688110Y-173474000D01*
X141729591Y-173478085D01*
X141729591Y-173478085D01*
G37*
G36*
X92454591Y-173478085D02*
G01*
X92488569Y-173488393D01*
X92519890Y-173505134D01*
X92547339Y-173527661D01*
X92569866Y-173555110D01*
X92586607Y-173586431D01*
X92596915Y-173620409D01*
X92601000Y-173661890D01*
X92601000Y-174338110D01*
X92596915Y-174379591D01*
X92586607Y-174413569D01*
X92569866Y-174444890D01*
X92547339Y-174472339D01*
X92519890Y-174494866D01*
X92488569Y-174511607D01*
X92454591Y-174521915D01*
X92413110Y-174526000D01*
X91811890Y-174526000D01*
X91770409Y-174521915D01*
X91736431Y-174511607D01*
X91705110Y-174494866D01*
X91677661Y-174472339D01*
X91655134Y-174444890D01*
X91638393Y-174413569D01*
X91628085Y-174379591D01*
X91624000Y-174338110D01*
X91624000Y-173661890D01*
X91628085Y-173620409D01*
X91638393Y-173586431D01*
X91655134Y-173555110D01*
X91677661Y-173527661D01*
X91705110Y-173505134D01*
X91736431Y-173488393D01*
X91770409Y-173478085D01*
X91811890Y-173474000D01*
X92413110Y-173474000D01*
X92454591Y-173478085D01*
X92454591Y-173478085D01*
G37*
G36*
X127654591Y-173478085D02*
G01*
X127688569Y-173488393D01*
X127719890Y-173505134D01*
X127747339Y-173527661D01*
X127769866Y-173555110D01*
X127786607Y-173586431D01*
X127796915Y-173620409D01*
X127801000Y-173661890D01*
X127801000Y-174338110D01*
X127796915Y-174379591D01*
X127786607Y-174413569D01*
X127769866Y-174444890D01*
X127747339Y-174472339D01*
X127719890Y-174494866D01*
X127688569Y-174511607D01*
X127654591Y-174521915D01*
X127613110Y-174526000D01*
X127011890Y-174526000D01*
X126970409Y-174521915D01*
X126936431Y-174511607D01*
X126905110Y-174494866D01*
X126877661Y-174472339D01*
X126855134Y-174444890D01*
X126838393Y-174413569D01*
X126828085Y-174379591D01*
X126824000Y-174338110D01*
X126824000Y-173661890D01*
X126828085Y-173620409D01*
X126838393Y-173586431D01*
X126855134Y-173555110D01*
X126877661Y-173527661D01*
X126905110Y-173505134D01*
X126936431Y-173488393D01*
X126970409Y-173478085D01*
X127011890Y-173474000D01*
X127613110Y-173474000D01*
X127654591Y-173478085D01*
X127654591Y-173478085D01*
G37*
G36*
X140154591Y-173478085D02*
G01*
X140188569Y-173488393D01*
X140219890Y-173505134D01*
X140247339Y-173527661D01*
X140269866Y-173555110D01*
X140286607Y-173586431D01*
X140296915Y-173620409D01*
X140301000Y-173661890D01*
X140301000Y-174338110D01*
X140296915Y-174379591D01*
X140286607Y-174413569D01*
X140269866Y-174444890D01*
X140247339Y-174472339D01*
X140219890Y-174494866D01*
X140188569Y-174511607D01*
X140154591Y-174521915D01*
X140113110Y-174526000D01*
X139511890Y-174526000D01*
X139470409Y-174521915D01*
X139436431Y-174511607D01*
X139405110Y-174494866D01*
X139377661Y-174472339D01*
X139355134Y-174444890D01*
X139338393Y-174413569D01*
X139328085Y-174379591D01*
X139324000Y-174338110D01*
X139324000Y-173661890D01*
X139328085Y-173620409D01*
X139338393Y-173586431D01*
X139355134Y-173555110D01*
X139377661Y-173527661D01*
X139405110Y-173505134D01*
X139436431Y-173488393D01*
X139470409Y-173478085D01*
X139511890Y-173474000D01*
X140113110Y-173474000D01*
X140154591Y-173478085D01*
X140154591Y-173478085D01*
G37*
G36*
X143379591Y-173028085D02*
G01*
X143413569Y-173038393D01*
X143444890Y-173055134D01*
X143472339Y-173077661D01*
X143494866Y-173105110D01*
X143511607Y-173136431D01*
X143521915Y-173170409D01*
X143526000Y-173211890D01*
X143526000Y-173813110D01*
X143521915Y-173854591D01*
X143511607Y-173888569D01*
X143494866Y-173919890D01*
X143472339Y-173947339D01*
X143444890Y-173969866D01*
X143413569Y-173986607D01*
X143379591Y-173996915D01*
X143338110Y-174001000D01*
X142661890Y-174001000D01*
X142620409Y-173996915D01*
X142586431Y-173986607D01*
X142555110Y-173969866D01*
X142527661Y-173947339D01*
X142505134Y-173919890D01*
X142488393Y-173888569D01*
X142478085Y-173854591D01*
X142474000Y-173813110D01*
X142474000Y-173211890D01*
X142478085Y-173170409D01*
X142488393Y-173136431D01*
X142505134Y-173105110D01*
X142527661Y-173077661D01*
X142555110Y-173055134D01*
X142586431Y-173038393D01*
X142620409Y-173028085D01*
X142661890Y-173024000D01*
X143338110Y-173024000D01*
X143379591Y-173028085D01*
X143379591Y-173028085D01*
G37*
G36*
X95679591Y-173028085D02*
G01*
X95713569Y-173038393D01*
X95744890Y-173055134D01*
X95772339Y-173077661D01*
X95794866Y-173105110D01*
X95811607Y-173136431D01*
X95821915Y-173170409D01*
X95826000Y-173211890D01*
X95826000Y-173813110D01*
X95821915Y-173854591D01*
X95811607Y-173888569D01*
X95794866Y-173919890D01*
X95772339Y-173947339D01*
X95744890Y-173969866D01*
X95713569Y-173986607D01*
X95679591Y-173996915D01*
X95638110Y-174001000D01*
X94961890Y-174001000D01*
X94920409Y-173996915D01*
X94886431Y-173986607D01*
X94855110Y-173969866D01*
X94827661Y-173947339D01*
X94805134Y-173919890D01*
X94788393Y-173888569D01*
X94778085Y-173854591D01*
X94774000Y-173813110D01*
X94774000Y-173211890D01*
X94778085Y-173170409D01*
X94788393Y-173136431D01*
X94805134Y-173105110D01*
X94827661Y-173077661D01*
X94855110Y-173055134D01*
X94886431Y-173038393D01*
X94920409Y-173028085D01*
X94961890Y-173024000D01*
X95638110Y-173024000D01*
X95679591Y-173028085D01*
X95679591Y-173028085D01*
G37*
G36*
X97179591Y-173028085D02*
G01*
X97213569Y-173038393D01*
X97244890Y-173055134D01*
X97272339Y-173077661D01*
X97294866Y-173105110D01*
X97311607Y-173136431D01*
X97321915Y-173170409D01*
X97326000Y-173211890D01*
X97326000Y-173813110D01*
X97321915Y-173854591D01*
X97311607Y-173888569D01*
X97294866Y-173919890D01*
X97272339Y-173947339D01*
X97244890Y-173969866D01*
X97213569Y-173986607D01*
X97179591Y-173996915D01*
X97138110Y-174001000D01*
X96461890Y-174001000D01*
X96420409Y-173996915D01*
X96386431Y-173986607D01*
X96355110Y-173969866D01*
X96327661Y-173947339D01*
X96305134Y-173919890D01*
X96288393Y-173888569D01*
X96278085Y-173854591D01*
X96274000Y-173813110D01*
X96274000Y-173211890D01*
X96278085Y-173170409D01*
X96288393Y-173136431D01*
X96305134Y-173105110D01*
X96327661Y-173077661D01*
X96355110Y-173055134D01*
X96386431Y-173038393D01*
X96420409Y-173028085D01*
X96461890Y-173024000D01*
X97138110Y-173024000D01*
X97179591Y-173028085D01*
X97179591Y-173028085D01*
G37*
G36*
X136829591Y-173028085D02*
G01*
X136863569Y-173038393D01*
X136894890Y-173055134D01*
X136922339Y-173077661D01*
X136944866Y-173105110D01*
X136961607Y-173136431D01*
X136971915Y-173170409D01*
X136976000Y-173211890D01*
X136976000Y-173813110D01*
X136971915Y-173854591D01*
X136961607Y-173888569D01*
X136944866Y-173919890D01*
X136922339Y-173947339D01*
X136894890Y-173969866D01*
X136863569Y-173986607D01*
X136829591Y-173996915D01*
X136788110Y-174001000D01*
X136111890Y-174001000D01*
X136070409Y-173996915D01*
X136036431Y-173986607D01*
X136005110Y-173969866D01*
X135977661Y-173947339D01*
X135955134Y-173919890D01*
X135938393Y-173888569D01*
X135928085Y-173854591D01*
X135924000Y-173813110D01*
X135924000Y-173211890D01*
X135928085Y-173170409D01*
X135938393Y-173136431D01*
X135955134Y-173105110D01*
X135977661Y-173077661D01*
X136005110Y-173055134D01*
X136036431Y-173038393D01*
X136070409Y-173028085D01*
X136111890Y-173024000D01*
X136788110Y-173024000D01*
X136829591Y-173028085D01*
X136829591Y-173028085D01*
G37*
G36*
X90729591Y-173028085D02*
G01*
X90763569Y-173038393D01*
X90794890Y-173055134D01*
X90822339Y-173077661D01*
X90844866Y-173105110D01*
X90861607Y-173136431D01*
X90871915Y-173170409D01*
X90876000Y-173211890D01*
X90876000Y-173813110D01*
X90871915Y-173854591D01*
X90861607Y-173888569D01*
X90844866Y-173919890D01*
X90822339Y-173947339D01*
X90794890Y-173969866D01*
X90763569Y-173986607D01*
X90729591Y-173996915D01*
X90688110Y-174001000D01*
X90011890Y-174001000D01*
X89970409Y-173996915D01*
X89936431Y-173986607D01*
X89905110Y-173969866D01*
X89877661Y-173947339D01*
X89855134Y-173919890D01*
X89838393Y-173888569D01*
X89828085Y-173854591D01*
X89824000Y-173813110D01*
X89824000Y-173211890D01*
X89828085Y-173170409D01*
X89838393Y-173136431D01*
X89855134Y-173105110D01*
X89877661Y-173077661D01*
X89905110Y-173055134D01*
X89936431Y-173038393D01*
X89970409Y-173028085D01*
X90011890Y-173024000D01*
X90688110Y-173024000D01*
X90729591Y-173028085D01*
X90729591Y-173028085D01*
G37*
G36*
X138429591Y-173028085D02*
G01*
X138463569Y-173038393D01*
X138494890Y-173055134D01*
X138522339Y-173077661D01*
X138544866Y-173105110D01*
X138561607Y-173136431D01*
X138571915Y-173170409D01*
X138576000Y-173211890D01*
X138576000Y-173813110D01*
X138571915Y-173854591D01*
X138561607Y-173888569D01*
X138544866Y-173919890D01*
X138522339Y-173947339D01*
X138494890Y-173969866D01*
X138463569Y-173986607D01*
X138429591Y-173996915D01*
X138388110Y-174001000D01*
X137711890Y-174001000D01*
X137670409Y-173996915D01*
X137636431Y-173986607D01*
X137605110Y-173969866D01*
X137577661Y-173947339D01*
X137555134Y-173919890D01*
X137538393Y-173888569D01*
X137528085Y-173854591D01*
X137524000Y-173813110D01*
X137524000Y-173211890D01*
X137528085Y-173170409D01*
X137538393Y-173136431D01*
X137555134Y-173105110D01*
X137577661Y-173077661D01*
X137605110Y-173055134D01*
X137636431Y-173038393D01*
X137670409Y-173028085D01*
X137711890Y-173024000D01*
X138388110Y-173024000D01*
X138429591Y-173028085D01*
X138429591Y-173028085D01*
G37*
G36*
X89129591Y-173028085D02*
G01*
X89163569Y-173038393D01*
X89194890Y-173055134D01*
X89222339Y-173077661D01*
X89244866Y-173105110D01*
X89261607Y-173136431D01*
X89271915Y-173170409D01*
X89276000Y-173211890D01*
X89276000Y-173813110D01*
X89271915Y-173854591D01*
X89261607Y-173888569D01*
X89244866Y-173919890D01*
X89222339Y-173947339D01*
X89194890Y-173969866D01*
X89163569Y-173986607D01*
X89129591Y-173996915D01*
X89088110Y-174001000D01*
X88411890Y-174001000D01*
X88370409Y-173996915D01*
X88336431Y-173986607D01*
X88305110Y-173969866D01*
X88277661Y-173947339D01*
X88255134Y-173919890D01*
X88238393Y-173888569D01*
X88228085Y-173854591D01*
X88224000Y-173813110D01*
X88224000Y-173211890D01*
X88228085Y-173170409D01*
X88238393Y-173136431D01*
X88255134Y-173105110D01*
X88277661Y-173077661D01*
X88305110Y-173055134D01*
X88336431Y-173038393D01*
X88370409Y-173028085D01*
X88411890Y-173024000D01*
X89088110Y-173024000D01*
X89129591Y-173028085D01*
X89129591Y-173028085D01*
G37*
G36*
X144879591Y-173028085D02*
G01*
X144913569Y-173038393D01*
X144944890Y-173055134D01*
X144972339Y-173077661D01*
X144994866Y-173105110D01*
X145011607Y-173136431D01*
X145021915Y-173170409D01*
X145026000Y-173211890D01*
X145026000Y-173813110D01*
X145021915Y-173854591D01*
X145011607Y-173888569D01*
X144994866Y-173919890D01*
X144972339Y-173947339D01*
X144944890Y-173969866D01*
X144913569Y-173986607D01*
X144879591Y-173996915D01*
X144838110Y-174001000D01*
X144161890Y-174001000D01*
X144120409Y-173996915D01*
X144086431Y-173986607D01*
X144055110Y-173969866D01*
X144027661Y-173947339D01*
X144005134Y-173919890D01*
X143988393Y-173888569D01*
X143978085Y-173854591D01*
X143974000Y-173813110D01*
X143974000Y-173211890D01*
X143978085Y-173170409D01*
X143988393Y-173136431D01*
X144005134Y-173105110D01*
X144027661Y-173077661D01*
X144055110Y-173055134D01*
X144086431Y-173038393D01*
X144120409Y-173028085D01*
X144161890Y-173024000D01*
X144838110Y-173024000D01*
X144879591Y-173028085D01*
X144879591Y-173028085D01*
G37*
G36*
X97651000Y-172551000D02*
G01*
X76849000Y-172551000D01*
X76849000Y-170449000D01*
X97651000Y-170449000D01*
X97651000Y-172551000D01*
X97651000Y-172551000D01*
G37*
G36*
X145351000Y-172551000D02*
G01*
X124549000Y-172551000D01*
X124549000Y-170449000D01*
X145351000Y-170449000D01*
X145351000Y-172551000D01*
X145351000Y-172551000D01*
G37*
G36*
X100351000Y-170506000D02*
G01*
X98949000Y-170506000D01*
X98949000Y-168854000D01*
X100351000Y-168854000D01*
X100351000Y-170506000D01*
X100351000Y-170506000D01*
G37*
G36*
X148051000Y-170506000D02*
G01*
X146649000Y-170506000D01*
X146649000Y-168854000D01*
X148051000Y-168854000D01*
X148051000Y-170506000D01*
X148051000Y-170506000D01*
G37*
G36*
X152551000Y-170506000D02*
G01*
X151149000Y-170506000D01*
X151149000Y-168854000D01*
X152551000Y-168854000D01*
X152551000Y-170506000D01*
X152551000Y-170506000D01*
G37*
G36*
X104851000Y-170506000D02*
G01*
X103449000Y-170506000D01*
X103449000Y-168854000D01*
X104851000Y-168854000D01*
X104851000Y-170506000D01*
X104851000Y-170506000D01*
G37*
G36*
X71026000Y-170481000D02*
G01*
X69624000Y-170481000D01*
X69624000Y-168829000D01*
X71026000Y-168829000D01*
X71026000Y-170481000D01*
X71026000Y-170481000D01*
G37*
G36*
X118726000Y-170481000D02*
G01*
X117324000Y-170481000D01*
X117324000Y-168829000D01*
X118726000Y-168829000D01*
X118726000Y-170481000D01*
X118726000Y-170481000D01*
G37*
G36*
X123226000Y-170481000D02*
G01*
X121824000Y-170481000D01*
X121824000Y-168829000D01*
X123226000Y-168829000D01*
X123226000Y-170481000D01*
X123226000Y-170481000D01*
G37*
G36*
X75526000Y-170481000D02*
G01*
X74124000Y-170481000D01*
X74124000Y-168829000D01*
X75526000Y-168829000D01*
X75526000Y-170481000D01*
X75526000Y-170481000D01*
G37*
G36*
X107347222Y-165359867D02*
G01*
X107488786Y-165402810D01*
X107619252Y-165472546D01*
X107649040Y-165496992D01*
X107733607Y-165566393D01*
X107803008Y-165650960D01*
X107827454Y-165680748D01*
X107897190Y-165811214D01*
X107940133Y-165952778D01*
X107951000Y-166063113D01*
X107951000Y-168736887D01*
X107940133Y-168847222D01*
X107897190Y-168988786D01*
X107827454Y-169119252D01*
X107790784Y-169163934D01*
X107733607Y-169233606D01*
X107669415Y-169286286D01*
X107619251Y-169327454D01*
X107488785Y-169397190D01*
X107347221Y-169440133D01*
X107200000Y-169454633D01*
X107052778Y-169440133D01*
X106911214Y-169397190D01*
X106780748Y-169327454D01*
X106736066Y-169290784D01*
X106666394Y-169233607D01*
X106572547Y-169119252D01*
X106572546Y-169119251D01*
X106502810Y-168988785D01*
X106459867Y-168847221D01*
X106449000Y-168736886D01*
X106449001Y-166063113D01*
X106459868Y-165952778D01*
X106502811Y-165811214D01*
X106572547Y-165680748D01*
X106596993Y-165650960D01*
X106666394Y-165566393D01*
X106750961Y-165496992D01*
X106780749Y-165472546D01*
X106911215Y-165402810D01*
X107052779Y-165359867D01*
X107200000Y-165345367D01*
X107347222Y-165359867D01*
X107347222Y-165359867D01*
G37*
G36*
X67747221Y-165359867D02*
G01*
X67888785Y-165402810D01*
X68019251Y-165472546D01*
X68069415Y-165513714D01*
X68133607Y-165566394D01*
X68190784Y-165636066D01*
X68227454Y-165680748D01*
X68297190Y-165811214D01*
X68340133Y-165952778D01*
X68351000Y-166063113D01*
X68351000Y-168736887D01*
X68340133Y-168847222D01*
X68297190Y-168988786D01*
X68227454Y-169119252D01*
X68203008Y-169149040D01*
X68133607Y-169233607D01*
X68049040Y-169303008D01*
X68019252Y-169327454D01*
X67888786Y-169397190D01*
X67747222Y-169440133D01*
X67600000Y-169454633D01*
X67452779Y-169440133D01*
X67311215Y-169397190D01*
X67180749Y-169327454D01*
X67150961Y-169303008D01*
X67066394Y-169233607D01*
X66996993Y-169149040D01*
X66972547Y-169119252D01*
X66902811Y-168988786D01*
X66859868Y-168847222D01*
X66849001Y-168736887D01*
X66849000Y-166063114D01*
X66859867Y-165952779D01*
X66902810Y-165811215D01*
X66972546Y-165680749D01*
X67013714Y-165630585D01*
X67066394Y-165566393D01*
X67136066Y-165509216D01*
X67180748Y-165472546D01*
X67311214Y-165402810D01*
X67452778Y-165359867D01*
X67600000Y-165345367D01*
X67747221Y-165359867D01*
X67747221Y-165359867D01*
G37*
G36*
X115447221Y-165359867D02*
G01*
X115588785Y-165402810D01*
X115719251Y-165472546D01*
X115769415Y-165513714D01*
X115833607Y-165566394D01*
X115890784Y-165636066D01*
X115927454Y-165680748D01*
X115997190Y-165811214D01*
X116040133Y-165952778D01*
X116051000Y-166063113D01*
X116051000Y-168736887D01*
X116040133Y-168847222D01*
X115997190Y-168988786D01*
X115927454Y-169119252D01*
X115903008Y-169149040D01*
X115833607Y-169233607D01*
X115749040Y-169303008D01*
X115719252Y-169327454D01*
X115588786Y-169397190D01*
X115447222Y-169440133D01*
X115300000Y-169454633D01*
X115152779Y-169440133D01*
X115011215Y-169397190D01*
X114880749Y-169327454D01*
X114850961Y-169303008D01*
X114766394Y-169233607D01*
X114696993Y-169149040D01*
X114672547Y-169119252D01*
X114602811Y-168988786D01*
X114559868Y-168847222D01*
X114549001Y-168736887D01*
X114549000Y-166063114D01*
X114559867Y-165952779D01*
X114602810Y-165811215D01*
X114672546Y-165680749D01*
X114713714Y-165630585D01*
X114766394Y-165566393D01*
X114836066Y-165509216D01*
X114880748Y-165472546D01*
X115011214Y-165402810D01*
X115152778Y-165359867D01*
X115300000Y-165345367D01*
X115447221Y-165359867D01*
X115447221Y-165359867D01*
G37*
G36*
X155047222Y-165359867D02*
G01*
X155188786Y-165402810D01*
X155319252Y-165472546D01*
X155349040Y-165496992D01*
X155433607Y-165566393D01*
X155503008Y-165650960D01*
X155527454Y-165680748D01*
X155597190Y-165811214D01*
X155640133Y-165952778D01*
X155651000Y-166063113D01*
X155651000Y-168736887D01*
X155640133Y-168847222D01*
X155597190Y-168988786D01*
X155527454Y-169119252D01*
X155490784Y-169163934D01*
X155433607Y-169233606D01*
X155369415Y-169286286D01*
X155319251Y-169327454D01*
X155188785Y-169397190D01*
X155047221Y-169440133D01*
X154900000Y-169454633D01*
X154752778Y-169440133D01*
X154611214Y-169397190D01*
X154480748Y-169327454D01*
X154436066Y-169290784D01*
X154366394Y-169233607D01*
X154272547Y-169119252D01*
X154272546Y-169119251D01*
X154202810Y-168988785D01*
X154159867Y-168847221D01*
X154149000Y-168736886D01*
X154149001Y-166063113D01*
X154159868Y-165952778D01*
X154202811Y-165811214D01*
X154272547Y-165680748D01*
X154296993Y-165650960D01*
X154366394Y-165566393D01*
X154450961Y-165496992D01*
X154480749Y-165472546D01*
X154611215Y-165402810D01*
X154752779Y-165359867D01*
X154900000Y-165345367D01*
X155047222Y-165359867D01*
X155047222Y-165359867D01*
G37*
G36*
X148051000Y-162546000D02*
G01*
X146649000Y-162546000D01*
X146649000Y-160894000D01*
X148051000Y-160894000D01*
X148051000Y-162546000D01*
X148051000Y-162546000D01*
G37*
G36*
X104851000Y-162546000D02*
G01*
X103449000Y-162546000D01*
X103449000Y-160894000D01*
X104851000Y-160894000D01*
X104851000Y-162546000D01*
X104851000Y-162546000D01*
G37*
G36*
X100351000Y-162546000D02*
G01*
X98949000Y-162546000D01*
X98949000Y-160894000D01*
X100351000Y-160894000D01*
X100351000Y-162546000D01*
X100351000Y-162546000D01*
G37*
G36*
X152551000Y-162546000D02*
G01*
X151149000Y-162546000D01*
X151149000Y-160894000D01*
X152551000Y-160894000D01*
X152551000Y-162546000D01*
X152551000Y-162546000D01*
G37*
G36*
X118726000Y-162521000D02*
G01*
X117324000Y-162521000D01*
X117324000Y-160869000D01*
X118726000Y-160869000D01*
X118726000Y-162521000D01*
X118726000Y-162521000D01*
G37*
G36*
X123226000Y-162521000D02*
G01*
X121824000Y-162521000D01*
X121824000Y-160869000D01*
X123226000Y-160869000D01*
X123226000Y-162521000D01*
X123226000Y-162521000D01*
G37*
G36*
X75526000Y-162521000D02*
G01*
X74124000Y-162521000D01*
X74124000Y-160869000D01*
X75526000Y-160869000D01*
X75526000Y-162521000D01*
X75526000Y-162521000D01*
G37*
G36*
X71026000Y-162521000D02*
G01*
X69624000Y-162521000D01*
X69624000Y-160869000D01*
X71026000Y-160869000D01*
X71026000Y-162521000D01*
X71026000Y-162521000D01*
G37*
G36*
X106751000Y-158851000D02*
G01*
X104849000Y-158851000D01*
X104849000Y-156949000D01*
X106751000Y-156949000D01*
X106751000Y-158851000D01*
X106751000Y-158851000D01*
G37*
G36*
X69751000Y-158851000D02*
G01*
X67849000Y-158851000D01*
X67849000Y-156949000D01*
X69751000Y-156949000D01*
X69751000Y-158851000D01*
X69751000Y-158851000D01*
G37*
G36*
X117451000Y-158851000D02*
G01*
X115549000Y-158851000D01*
X115549000Y-156949000D01*
X117451000Y-156949000D01*
X117451000Y-158851000D01*
X117451000Y-158851000D01*
G37*
G36*
X154451000Y-158851000D02*
G01*
X152549000Y-158851000D01*
X152549000Y-156949000D01*
X154451000Y-156949000D01*
X154451000Y-158851000D01*
X154451000Y-158851000D01*
G37*
G36*
X69077395Y-154445546D02*
G01*
X69250466Y-154517234D01*
X69250467Y-154517235D01*
X69406227Y-154621310D01*
X69538690Y-154753773D01*
X69538691Y-154753775D01*
X69642766Y-154909534D01*
X69714454Y-155082605D01*
X69751000Y-155266333D01*
X69751000Y-155453667D01*
X69714454Y-155637395D01*
X69642766Y-155810466D01*
X69642765Y-155810467D01*
X69538690Y-155966227D01*
X69406227Y-156098690D01*
X69327818Y-156151081D01*
X69250466Y-156202766D01*
X69077395Y-156274454D01*
X68893667Y-156311000D01*
X68706333Y-156311000D01*
X68522605Y-156274454D01*
X68349534Y-156202766D01*
X68272182Y-156151081D01*
X68193773Y-156098690D01*
X68061310Y-155966227D01*
X67957235Y-155810467D01*
X67957234Y-155810466D01*
X67885546Y-155637395D01*
X67849000Y-155453667D01*
X67849000Y-155266333D01*
X67885546Y-155082605D01*
X67957234Y-154909534D01*
X68061309Y-154753775D01*
X68061310Y-154753773D01*
X68193773Y-154621310D01*
X68349533Y-154517235D01*
X68349534Y-154517234D01*
X68522605Y-154445546D01*
X68706333Y-154409000D01*
X68893667Y-154409000D01*
X69077395Y-154445546D01*
X69077395Y-154445546D01*
G37*
G36*
X153777395Y-154445546D02*
G01*
X153950466Y-154517234D01*
X153950467Y-154517235D01*
X154106227Y-154621310D01*
X154238690Y-154753773D01*
X154238691Y-154753775D01*
X154342766Y-154909534D01*
X154414454Y-155082605D01*
X154451000Y-155266333D01*
X154451000Y-155453667D01*
X154414454Y-155637395D01*
X154342766Y-155810466D01*
X154342765Y-155810467D01*
X154238690Y-155966227D01*
X154106227Y-156098690D01*
X154027818Y-156151081D01*
X153950466Y-156202766D01*
X153777395Y-156274454D01*
X153593667Y-156311000D01*
X153406333Y-156311000D01*
X153222605Y-156274454D01*
X153049534Y-156202766D01*
X152972182Y-156151081D01*
X152893773Y-156098690D01*
X152761310Y-155966227D01*
X152657235Y-155810467D01*
X152657234Y-155810466D01*
X152585546Y-155637395D01*
X152549000Y-155453667D01*
X152549000Y-155266333D01*
X152585546Y-155082605D01*
X152657234Y-154909534D01*
X152761309Y-154753775D01*
X152761310Y-154753773D01*
X152893773Y-154621310D01*
X153049533Y-154517235D01*
X153049534Y-154517234D01*
X153222605Y-154445546D01*
X153406333Y-154409000D01*
X153593667Y-154409000D01*
X153777395Y-154445546D01*
X153777395Y-154445546D01*
G37*
G36*
X116777395Y-154445546D02*
G01*
X116950466Y-154517234D01*
X116950467Y-154517235D01*
X117106227Y-154621310D01*
X117238690Y-154753773D01*
X117238691Y-154753775D01*
X117342766Y-154909534D01*
X117414454Y-155082605D01*
X117451000Y-155266333D01*
X117451000Y-155453667D01*
X117414454Y-155637395D01*
X117342766Y-155810466D01*
X117342765Y-155810467D01*
X117238690Y-155966227D01*
X117106227Y-156098690D01*
X117027818Y-156151081D01*
X116950466Y-156202766D01*
X116777395Y-156274454D01*
X116593667Y-156311000D01*
X116406333Y-156311000D01*
X116222605Y-156274454D01*
X116049534Y-156202766D01*
X115972182Y-156151081D01*
X115893773Y-156098690D01*
X115761310Y-155966227D01*
X115657235Y-155810467D01*
X115657234Y-155810466D01*
X115585546Y-155637395D01*
X115549000Y-155453667D01*
X115549000Y-155266333D01*
X115585546Y-155082605D01*
X115657234Y-154909534D01*
X115761309Y-154753775D01*
X115761310Y-154753773D01*
X115893773Y-154621310D01*
X116049533Y-154517235D01*
X116049534Y-154517234D01*
X116222605Y-154445546D01*
X116406333Y-154409000D01*
X116593667Y-154409000D01*
X116777395Y-154445546D01*
X116777395Y-154445546D01*
G37*
G36*
X106077395Y-154445546D02*
G01*
X106250466Y-154517234D01*
X106250467Y-154517235D01*
X106406227Y-154621310D01*
X106538690Y-154753773D01*
X106538691Y-154753775D01*
X106642766Y-154909534D01*
X106714454Y-155082605D01*
X106751000Y-155266333D01*
X106751000Y-155453667D01*
X106714454Y-155637395D01*
X106642766Y-155810466D01*
X106642765Y-155810467D01*
X106538690Y-155966227D01*
X106406227Y-156098690D01*
X106327818Y-156151081D01*
X106250466Y-156202766D01*
X106077395Y-156274454D01*
X105893667Y-156311000D01*
X105706333Y-156311000D01*
X105522605Y-156274454D01*
X105349534Y-156202766D01*
X105272182Y-156151081D01*
X105193773Y-156098690D01*
X105061310Y-155966227D01*
X104957235Y-155810467D01*
X104957234Y-155810466D01*
X104885546Y-155637395D01*
X104849000Y-155453667D01*
X104849000Y-155266333D01*
X104885546Y-155082605D01*
X104957234Y-154909534D01*
X105061309Y-154753775D01*
X105061310Y-154753773D01*
X105193773Y-154621310D01*
X105349533Y-154517235D01*
X105349534Y-154517234D01*
X105522605Y-154445546D01*
X105706333Y-154409000D01*
X105893667Y-154409000D01*
X106077395Y-154445546D01*
X106077395Y-154445546D01*
G37*
G36*
X154561213Y-150682502D02*
G01*
X154632321Y-150689505D01*
X154769172Y-150731019D01*
X154769175Y-150731020D01*
X154895294Y-150798432D01*
X155005843Y-150889157D01*
X155096568Y-150999706D01*
X155163980Y-151125825D01*
X155163981Y-151125828D01*
X155205495Y-151262679D01*
X155219512Y-151405000D01*
X155205495Y-151547321D01*
X155190385Y-151597130D01*
X155163980Y-151684175D01*
X155096568Y-151810294D01*
X155005843Y-151920843D01*
X154895294Y-152011568D01*
X154769175Y-152078980D01*
X154769172Y-152078981D01*
X154632321Y-152120495D01*
X154561213Y-152127498D01*
X154525660Y-152131000D01*
X154104340Y-152131000D01*
X154068787Y-152127498D01*
X153997679Y-152120495D01*
X153860828Y-152078981D01*
X153860825Y-152078980D01*
X153734706Y-152011568D01*
X153624157Y-151920843D01*
X153533432Y-151810294D01*
X153466020Y-151684175D01*
X153439615Y-151597130D01*
X153424505Y-151547321D01*
X153410488Y-151405000D01*
X153424505Y-151262679D01*
X153466019Y-151125828D01*
X153466020Y-151125825D01*
X153533432Y-150999706D01*
X153624157Y-150889157D01*
X153734706Y-150798432D01*
X153860825Y-150731020D01*
X153860828Y-150731019D01*
X153997679Y-150689505D01*
X154068787Y-150682502D01*
X154104340Y-150679000D01*
X154525660Y-150679000D01*
X154561213Y-150682502D01*
X154561213Y-150682502D01*
G37*
G36*
X106861213Y-150682502D02*
G01*
X106932321Y-150689505D01*
X107069172Y-150731019D01*
X107069175Y-150731020D01*
X107195294Y-150798432D01*
X107305843Y-150889157D01*
X107396568Y-150999706D01*
X107463980Y-151125825D01*
X107463981Y-151125828D01*
X107505495Y-151262679D01*
X107519512Y-151405000D01*
X107505495Y-151547321D01*
X107490385Y-151597130D01*
X107463980Y-151684175D01*
X107396568Y-151810294D01*
X107305843Y-151920843D01*
X107195294Y-152011568D01*
X107069175Y-152078980D01*
X107069172Y-152078981D01*
X106932321Y-152120495D01*
X106861213Y-152127498D01*
X106825660Y-152131000D01*
X106404340Y-152131000D01*
X106368787Y-152127498D01*
X106297679Y-152120495D01*
X106160828Y-152078981D01*
X106160825Y-152078980D01*
X106034706Y-152011568D01*
X105924157Y-151920843D01*
X105833432Y-151810294D01*
X105766020Y-151684175D01*
X105739615Y-151597130D01*
X105724505Y-151547321D01*
X105710488Y-151405000D01*
X105724505Y-151262679D01*
X105766019Y-151125828D01*
X105766020Y-151125825D01*
X105833432Y-150999706D01*
X105924157Y-150889157D01*
X106034706Y-150798432D01*
X106160825Y-150731020D01*
X106160828Y-150731019D01*
X106297679Y-150689505D01*
X106368787Y-150682502D01*
X106404340Y-150679000D01*
X106825660Y-150679000D01*
X106861213Y-150682502D01*
X106861213Y-150682502D01*
G37*
G36*
X103932818Y-150502696D02*
G01*
X104046105Y-150537062D01*
X104150512Y-150592869D01*
X104242027Y-150667973D01*
X104317131Y-150759488D01*
X104372938Y-150863895D01*
X104407304Y-150977182D01*
X104418907Y-151095000D01*
X104407304Y-151212818D01*
X104372938Y-151326105D01*
X104317131Y-151430512D01*
X104242027Y-151522027D01*
X104150512Y-151597131D01*
X104046105Y-151652938D01*
X103932818Y-151687304D01*
X103844519Y-151696000D01*
X103385481Y-151696000D01*
X103297182Y-151687304D01*
X103183895Y-151652938D01*
X103079488Y-151597131D01*
X102987973Y-151522027D01*
X102912869Y-151430512D01*
X102857062Y-151326105D01*
X102822696Y-151212818D01*
X102811093Y-151095000D01*
X102822696Y-150977182D01*
X102857062Y-150863895D01*
X102912869Y-150759488D01*
X102987973Y-150667973D01*
X103079488Y-150592869D01*
X103183895Y-150537062D01*
X103297182Y-150502696D01*
X103385481Y-150494000D01*
X103844519Y-150494000D01*
X103932818Y-150502696D01*
X103932818Y-150502696D01*
G37*
G36*
X151632818Y-150502696D02*
G01*
X151746105Y-150537062D01*
X151850512Y-150592869D01*
X151942027Y-150667973D01*
X152017131Y-150759488D01*
X152072938Y-150863895D01*
X152107304Y-150977182D01*
X152118907Y-151095000D01*
X152107304Y-151212818D01*
X152072938Y-151326105D01*
X152017131Y-151430512D01*
X151942027Y-151522027D01*
X151850512Y-151597131D01*
X151746105Y-151652938D01*
X151632818Y-151687304D01*
X151544519Y-151696000D01*
X151085481Y-151696000D01*
X150997182Y-151687304D01*
X150883895Y-151652938D01*
X150779488Y-151597131D01*
X150687973Y-151522027D01*
X150612869Y-151430512D01*
X150557062Y-151326105D01*
X150522696Y-151212818D01*
X150511093Y-151095000D01*
X150522696Y-150977182D01*
X150557062Y-150863895D01*
X150612869Y-150759488D01*
X150687973Y-150667973D01*
X150779488Y-150592869D01*
X150883895Y-150537062D01*
X150997182Y-150502696D01*
X151085481Y-150494000D01*
X151544519Y-150494000D01*
X151632818Y-150502696D01*
X151632818Y-150502696D01*
G37*
G36*
X103932818Y-145662696D02*
G01*
X104046105Y-145697062D01*
X104150512Y-145752869D01*
X104242027Y-145827973D01*
X104317131Y-145919488D01*
X104372938Y-146023895D01*
X104407304Y-146137182D01*
X104418907Y-146255000D01*
X104407304Y-146372818D01*
X104372938Y-146486105D01*
X104317131Y-146590512D01*
X104242027Y-146682027D01*
X104150512Y-146757131D01*
X104046105Y-146812938D01*
X103932818Y-146847304D01*
X103844519Y-146856000D01*
X103385481Y-146856000D01*
X103297182Y-146847304D01*
X103183895Y-146812938D01*
X103079488Y-146757131D01*
X102987973Y-146682027D01*
X102912869Y-146590512D01*
X102857062Y-146486105D01*
X102822696Y-146372818D01*
X102811093Y-146255000D01*
X102822696Y-146137182D01*
X102857062Y-146023895D01*
X102912869Y-145919488D01*
X102987973Y-145827973D01*
X103079488Y-145752869D01*
X103183895Y-145697062D01*
X103297182Y-145662696D01*
X103385481Y-145654000D01*
X103844519Y-145654000D01*
X103932818Y-145662696D01*
X103932818Y-145662696D01*
G37*
G36*
X151632818Y-145662696D02*
G01*
X151746105Y-145697062D01*
X151850512Y-145752869D01*
X151942027Y-145827973D01*
X152017131Y-145919488D01*
X152072938Y-146023895D01*
X152107304Y-146137182D01*
X152118907Y-146255000D01*
X152107304Y-146372818D01*
X152072938Y-146486105D01*
X152017131Y-146590512D01*
X151942027Y-146682027D01*
X151850512Y-146757131D01*
X151746105Y-146812938D01*
X151632818Y-146847304D01*
X151544519Y-146856000D01*
X151085481Y-146856000D01*
X150997182Y-146847304D01*
X150883895Y-146812938D01*
X150779488Y-146757131D01*
X150687973Y-146682027D01*
X150612869Y-146590512D01*
X150557062Y-146486105D01*
X150522696Y-146372818D01*
X150511093Y-146255000D01*
X150522696Y-146137182D01*
X150557062Y-146023895D01*
X150612869Y-145919488D01*
X150687973Y-145827973D01*
X150779488Y-145752869D01*
X150883895Y-145697062D01*
X150997182Y-145662696D01*
X151085481Y-145654000D01*
X151544519Y-145654000D01*
X151632818Y-145662696D01*
X151632818Y-145662696D01*
G37*
G36*
X106861213Y-145222502D02*
G01*
X106932321Y-145229505D01*
X107069172Y-145271019D01*
X107069175Y-145271020D01*
X107195294Y-145338432D01*
X107305843Y-145429157D01*
X107396568Y-145539706D01*
X107463980Y-145665825D01*
X107463981Y-145665828D01*
X107505495Y-145802679D01*
X107519512Y-145945000D01*
X107505495Y-146087321D01*
X107490369Y-146137184D01*
X107463980Y-146224175D01*
X107396568Y-146350294D01*
X107305843Y-146460843D01*
X107195294Y-146551568D01*
X107069175Y-146618980D01*
X107069172Y-146618981D01*
X106932321Y-146660495D01*
X106861213Y-146667498D01*
X106825660Y-146671000D01*
X106404340Y-146671000D01*
X106368787Y-146667498D01*
X106297679Y-146660495D01*
X106160828Y-146618981D01*
X106160825Y-146618980D01*
X106034706Y-146551568D01*
X105924157Y-146460843D01*
X105833432Y-146350294D01*
X105766020Y-146224175D01*
X105739631Y-146137184D01*
X105724505Y-146087321D01*
X105710488Y-145945000D01*
X105724505Y-145802679D01*
X105766019Y-145665828D01*
X105766020Y-145665825D01*
X105833432Y-145539706D01*
X105924157Y-145429157D01*
X106034706Y-145338432D01*
X106160825Y-145271020D01*
X106160828Y-145271019D01*
X106297679Y-145229505D01*
X106368787Y-145222502D01*
X106404340Y-145219000D01*
X106825660Y-145219000D01*
X106861213Y-145222502D01*
X106861213Y-145222502D01*
G37*
G36*
X154561213Y-145222502D02*
G01*
X154632321Y-145229505D01*
X154769172Y-145271019D01*
X154769175Y-145271020D01*
X154895294Y-145338432D01*
X155005843Y-145429157D01*
X155096568Y-145539706D01*
X155163980Y-145665825D01*
X155163981Y-145665828D01*
X155205495Y-145802679D01*
X155219512Y-145945000D01*
X155205495Y-146087321D01*
X155190369Y-146137184D01*
X155163980Y-146224175D01*
X155096568Y-146350294D01*
X155005843Y-146460843D01*
X154895294Y-146551568D01*
X154769175Y-146618980D01*
X154769172Y-146618981D01*
X154632321Y-146660495D01*
X154561213Y-146667498D01*
X154525660Y-146671000D01*
X154104340Y-146671000D01*
X154068787Y-146667498D01*
X153997679Y-146660495D01*
X153860828Y-146618981D01*
X153860825Y-146618980D01*
X153734706Y-146551568D01*
X153624157Y-146460843D01*
X153533432Y-146350294D01*
X153466020Y-146224175D01*
X153439631Y-146137184D01*
X153424505Y-146087321D01*
X153410488Y-145945000D01*
X153424505Y-145802679D01*
X153466019Y-145665828D01*
X153466020Y-145665825D01*
X153533432Y-145539706D01*
X153624157Y-145429157D01*
X153734706Y-145338432D01*
X153860825Y-145271020D01*
X153860828Y-145271019D01*
X153997679Y-145229505D01*
X154068787Y-145222502D01*
X154104340Y-145219000D01*
X154525660Y-145219000D01*
X154561213Y-145222502D01*
X154561213Y-145222502D01*
G37*
G36*
X101843015Y-140656973D02*
G01*
X101946879Y-140688479D01*
X101974055Y-140703005D01*
X102042600Y-140739643D01*
X102126501Y-140808499D01*
X102195357Y-140892400D01*
X102206662Y-140913551D01*
X102246521Y-140988121D01*
X102250388Y-141000869D01*
X102259760Y-141023496D01*
X102273374Y-141043870D01*
X102290701Y-141061197D01*
X102311075Y-141074811D01*
X102333714Y-141084188D01*
X102357747Y-141088969D01*
X102382251Y-141088969D01*
X102406285Y-141084189D01*
X102428924Y-141074812D01*
X102449298Y-141061198D01*
X102466625Y-141043871D01*
X102480239Y-141023497D01*
X102489612Y-141000869D01*
X102493479Y-140988121D01*
X102533338Y-140913551D01*
X102544643Y-140892400D01*
X102613499Y-140808499D01*
X102697400Y-140739643D01*
X102765945Y-140703005D01*
X102793121Y-140688479D01*
X102896985Y-140656973D01*
X102977933Y-140649000D01*
X103032067Y-140649000D01*
X103113015Y-140656973D01*
X103216879Y-140688479D01*
X103244055Y-140703005D01*
X103312600Y-140739643D01*
X103396501Y-140808499D01*
X103465356Y-140892400D01*
X103488764Y-140936193D01*
X103502375Y-140956563D01*
X103519702Y-140973890D01*
X103540076Y-140987504D01*
X103562715Y-140996881D01*
X103586748Y-141001662D01*
X103611252Y-141001662D01*
X103635286Y-140996882D01*
X103657924Y-140987505D01*
X103678299Y-140973891D01*
X103695626Y-140956564D01*
X103709240Y-140936190D01*
X103718617Y-140913551D01*
X103723398Y-140889518D01*
X103724000Y-140877265D01*
X103724000Y-140649000D01*
X104826000Y-140649000D01*
X104826000Y-141751000D01*
X103724000Y-141751000D01*
X103724000Y-141522735D01*
X103721598Y-141498349D01*
X103714485Y-141474900D01*
X103702934Y-141453289D01*
X103687389Y-141434347D01*
X103668447Y-141418802D01*
X103646836Y-141407251D01*
X103623387Y-141400138D01*
X103599001Y-141397736D01*
X103574615Y-141400138D01*
X103551166Y-141407251D01*
X103529555Y-141418802D01*
X103510613Y-141434347D01*
X103495068Y-141453289D01*
X103488767Y-141463802D01*
X103465356Y-141507600D01*
X103465355Y-141507601D01*
X103396501Y-141591501D01*
X103312600Y-141660357D01*
X103244055Y-141696995D01*
X103216879Y-141711521D01*
X103113015Y-141743027D01*
X103032067Y-141751000D01*
X102977933Y-141751000D01*
X102896985Y-141743027D01*
X102793121Y-141711521D01*
X102765945Y-141696995D01*
X102697400Y-141660357D01*
X102613499Y-141591501D01*
X102544643Y-141507600D01*
X102505489Y-141434347D01*
X102493479Y-141411879D01*
X102489612Y-141399131D01*
X102480240Y-141376504D01*
X102466626Y-141356130D01*
X102449299Y-141338803D01*
X102428925Y-141325189D01*
X102406286Y-141315812D01*
X102382253Y-141311031D01*
X102357749Y-141311031D01*
X102333715Y-141315811D01*
X102311076Y-141325188D01*
X102290702Y-141338802D01*
X102273375Y-141356129D01*
X102259761Y-141376503D01*
X102250388Y-141399131D01*
X102246521Y-141411879D01*
X102234511Y-141434347D01*
X102195357Y-141507600D01*
X102126501Y-141591501D01*
X102042600Y-141660357D01*
X101974055Y-141696995D01*
X101946879Y-141711521D01*
X101843015Y-141743027D01*
X101762067Y-141751000D01*
X101707933Y-141751000D01*
X101626985Y-141743027D01*
X101523121Y-141711521D01*
X101495945Y-141696995D01*
X101427400Y-141660357D01*
X101343499Y-141591501D01*
X101274643Y-141507600D01*
X101235489Y-141434347D01*
X101223479Y-141411879D01*
X101191973Y-141308015D01*
X101181334Y-141200000D01*
X101191973Y-141091985D01*
X101223479Y-140988121D01*
X101263338Y-140913551D01*
X101274643Y-140892400D01*
X101343499Y-140808499D01*
X101427400Y-140739643D01*
X101495945Y-140703005D01*
X101523121Y-140688479D01*
X101626985Y-140656973D01*
X101707933Y-140649000D01*
X101762067Y-140649000D01*
X101843015Y-140656973D01*
X101843015Y-140656973D01*
G37*
G36*
X149543015Y-140656973D02*
G01*
X149646879Y-140688479D01*
X149674055Y-140703005D01*
X149742600Y-140739643D01*
X149826501Y-140808499D01*
X149895357Y-140892400D01*
X149906662Y-140913551D01*
X149946521Y-140988121D01*
X149950388Y-141000869D01*
X149959760Y-141023496D01*
X149973374Y-141043870D01*
X149990701Y-141061197D01*
X150011075Y-141074811D01*
X150033714Y-141084188D01*
X150057747Y-141088969D01*
X150082251Y-141088969D01*
X150106285Y-141084189D01*
X150128924Y-141074812D01*
X150149298Y-141061198D01*
X150166625Y-141043871D01*
X150180239Y-141023497D01*
X150189612Y-141000869D01*
X150193479Y-140988121D01*
X150233338Y-140913551D01*
X150244643Y-140892400D01*
X150313499Y-140808499D01*
X150397400Y-140739643D01*
X150465945Y-140703005D01*
X150493121Y-140688479D01*
X150596985Y-140656973D01*
X150677933Y-140649000D01*
X150732067Y-140649000D01*
X150813015Y-140656973D01*
X150916879Y-140688479D01*
X150944055Y-140703005D01*
X151012600Y-140739643D01*
X151096501Y-140808499D01*
X151165356Y-140892400D01*
X151188764Y-140936193D01*
X151202375Y-140956563D01*
X151219702Y-140973890D01*
X151240076Y-140987504D01*
X151262715Y-140996881D01*
X151286748Y-141001662D01*
X151311252Y-141001662D01*
X151335286Y-140996882D01*
X151357924Y-140987505D01*
X151378299Y-140973891D01*
X151395626Y-140956564D01*
X151409240Y-140936190D01*
X151418617Y-140913551D01*
X151423398Y-140889518D01*
X151424000Y-140877265D01*
X151424000Y-140649000D01*
X152526000Y-140649000D01*
X152526000Y-141751000D01*
X151424000Y-141751000D01*
X151424000Y-141522735D01*
X151421598Y-141498349D01*
X151414485Y-141474900D01*
X151402934Y-141453289D01*
X151387389Y-141434347D01*
X151368447Y-141418802D01*
X151346836Y-141407251D01*
X151323387Y-141400138D01*
X151299001Y-141397736D01*
X151274615Y-141400138D01*
X151251166Y-141407251D01*
X151229555Y-141418802D01*
X151210613Y-141434347D01*
X151195068Y-141453289D01*
X151188767Y-141463802D01*
X151165356Y-141507600D01*
X151165355Y-141507601D01*
X151096501Y-141591501D01*
X151012600Y-141660357D01*
X150944055Y-141696995D01*
X150916879Y-141711521D01*
X150813015Y-141743027D01*
X150732067Y-141751000D01*
X150677933Y-141751000D01*
X150596985Y-141743027D01*
X150493121Y-141711521D01*
X150465945Y-141696995D01*
X150397400Y-141660357D01*
X150313499Y-141591501D01*
X150244643Y-141507600D01*
X150205489Y-141434347D01*
X150193479Y-141411879D01*
X150189612Y-141399131D01*
X150180240Y-141376504D01*
X150166626Y-141356130D01*
X150149299Y-141338803D01*
X150128925Y-141325189D01*
X150106286Y-141315812D01*
X150082253Y-141311031D01*
X150057749Y-141311031D01*
X150033715Y-141315811D01*
X150011076Y-141325188D01*
X149990702Y-141338802D01*
X149973375Y-141356129D01*
X149959761Y-141376503D01*
X149950388Y-141399131D01*
X149946521Y-141411879D01*
X149934511Y-141434347D01*
X149895357Y-141507600D01*
X149826501Y-141591501D01*
X149742600Y-141660357D01*
X149674055Y-141696995D01*
X149646879Y-141711521D01*
X149543015Y-141743027D01*
X149462067Y-141751000D01*
X149407933Y-141751000D01*
X149326985Y-141743027D01*
X149223121Y-141711521D01*
X149195945Y-141696995D01*
X149127400Y-141660357D01*
X149043499Y-141591501D01*
X148974643Y-141507600D01*
X148935489Y-141434347D01*
X148923479Y-141411879D01*
X148891973Y-141308015D01*
X148881334Y-141200000D01*
X148891973Y-141091985D01*
X148923479Y-140988121D01*
X148963338Y-140913551D01*
X148974643Y-140892400D01*
X149043499Y-140808499D01*
X149127400Y-140739643D01*
X149195945Y-140703005D01*
X149223121Y-140688479D01*
X149326985Y-140656973D01*
X149407933Y-140649000D01*
X149462067Y-140649000D01*
X149543015Y-140656973D01*
X149543015Y-140656973D01*
G37*
G36*
X134706564Y-135039389D02*
G01*
X134897833Y-135118615D01*
X134897835Y-135118616D01*
X135069973Y-135233635D01*
X135216365Y-135380027D01*
X135331385Y-135552167D01*
X135410611Y-135743436D01*
X135451000Y-135946484D01*
X135451000Y-136153516D01*
X135410611Y-136356564D01*
X135331385Y-136547833D01*
X135331384Y-136547835D01*
X135216365Y-136719973D01*
X135069973Y-136866365D01*
X134897835Y-136981384D01*
X134897834Y-136981385D01*
X134897833Y-136981385D01*
X134706564Y-137060611D01*
X134503516Y-137101000D01*
X134296484Y-137101000D01*
X134093436Y-137060611D01*
X133902167Y-136981385D01*
X133902166Y-136981385D01*
X133902165Y-136981384D01*
X133730027Y-136866365D01*
X133583635Y-136719973D01*
X133468616Y-136547835D01*
X133468615Y-136547833D01*
X133389389Y-136356564D01*
X133349000Y-136153516D01*
X133349000Y-135946484D01*
X133389389Y-135743436D01*
X133468615Y-135552167D01*
X133583635Y-135380027D01*
X133730027Y-135233635D01*
X133902165Y-135118616D01*
X133902167Y-135118615D01*
X134093436Y-135039389D01*
X134296484Y-134999000D01*
X134503516Y-134999000D01*
X134706564Y-135039389D01*
X134706564Y-135039389D01*
G37*
G36*
X87006564Y-135039389D02*
G01*
X87197833Y-135118615D01*
X87197835Y-135118616D01*
X87369973Y-135233635D01*
X87516365Y-135380027D01*
X87631385Y-135552167D01*
X87710611Y-135743436D01*
X87751000Y-135946484D01*
X87751000Y-136153516D01*
X87710611Y-136356564D01*
X87631385Y-136547833D01*
X87631384Y-136547835D01*
X87516365Y-136719973D01*
X87369973Y-136866365D01*
X87197835Y-136981384D01*
X87197834Y-136981385D01*
X87197833Y-136981385D01*
X87006564Y-137060611D01*
X86803516Y-137101000D01*
X86596484Y-137101000D01*
X86393436Y-137060611D01*
X86202167Y-136981385D01*
X86202166Y-136981385D01*
X86202165Y-136981384D01*
X86030027Y-136866365D01*
X85883635Y-136719973D01*
X85768616Y-136547835D01*
X85768615Y-136547833D01*
X85689389Y-136356564D01*
X85649000Y-136153516D01*
X85649000Y-135946484D01*
X85689389Y-135743436D01*
X85768615Y-135552167D01*
X85883635Y-135380027D01*
X86030027Y-135233635D01*
X86202165Y-135118616D01*
X86202167Y-135118615D01*
X86393436Y-135039389D01*
X86596484Y-134999000D01*
X86803516Y-134999000D01*
X87006564Y-135039389D01*
X87006564Y-135039389D01*
G37*
G36*
X105275256Y-130991298D02*
G01*
X105381579Y-131012447D01*
X105682042Y-131136903D01*
X105952451Y-131317585D01*
X106182415Y-131547549D01*
X106363097Y-131817958D01*
X106487553Y-132118421D01*
X106551000Y-132437391D01*
X106551000Y-132762609D01*
X106487553Y-133081579D01*
X106363097Y-133382042D01*
X106182415Y-133652451D01*
X105952451Y-133882415D01*
X105682042Y-134063097D01*
X105381579Y-134187553D01*
X105275256Y-134208702D01*
X105062611Y-134251000D01*
X104737389Y-134251000D01*
X104524744Y-134208702D01*
X104418421Y-134187553D01*
X104117958Y-134063097D01*
X103847549Y-133882415D01*
X103617585Y-133652451D01*
X103436903Y-133382042D01*
X103312447Y-133081579D01*
X103249000Y-132762609D01*
X103249000Y-132437391D01*
X103312447Y-132118421D01*
X103436903Y-131817958D01*
X103617585Y-131547549D01*
X103847549Y-131317585D01*
X104117958Y-131136903D01*
X104418421Y-131012447D01*
X104524744Y-130991298D01*
X104737389Y-130949000D01*
X105062611Y-130949000D01*
X105275256Y-130991298D01*
X105275256Y-130991298D01*
G37*
G36*
X152975256Y-130991298D02*
G01*
X153081579Y-131012447D01*
X153382042Y-131136903D01*
X153652451Y-131317585D01*
X153882415Y-131547549D01*
X154063097Y-131817958D01*
X154187553Y-132118421D01*
X154251000Y-132437391D01*
X154251000Y-132762609D01*
X154187553Y-133081579D01*
X154063097Y-133382042D01*
X153882415Y-133652451D01*
X153652451Y-133882415D01*
X153382042Y-134063097D01*
X153081579Y-134187553D01*
X152975256Y-134208702D01*
X152762611Y-134251000D01*
X152437389Y-134251000D01*
X152224744Y-134208702D01*
X152118421Y-134187553D01*
X151817958Y-134063097D01*
X151547549Y-133882415D01*
X151317585Y-133652451D01*
X151136903Y-133382042D01*
X151012447Y-133081579D01*
X150949000Y-132762609D01*
X150949000Y-132437391D01*
X151012447Y-132118421D01*
X151136903Y-131817958D01*
X151317585Y-131547549D01*
X151547549Y-131317585D01*
X151817958Y-131136903D01*
X152118421Y-131012447D01*
X152224744Y-130991298D01*
X152437389Y-130949000D01*
X152762611Y-130949000D01*
X152975256Y-130991298D01*
X152975256Y-130991298D01*
G37*
G36*
X70275256Y-130991298D02*
G01*
X70381579Y-131012447D01*
X70682042Y-131136903D01*
X70952451Y-131317585D01*
X71182415Y-131547549D01*
X71363097Y-131817958D01*
X71487553Y-132118421D01*
X71551000Y-132437391D01*
X71551000Y-132762609D01*
X71487553Y-133081579D01*
X71363097Y-133382042D01*
X71182415Y-133652451D01*
X70952451Y-133882415D01*
X70682042Y-134063097D01*
X70381579Y-134187553D01*
X70275256Y-134208702D01*
X70062611Y-134251000D01*
X69737389Y-134251000D01*
X69524744Y-134208702D01*
X69418421Y-134187553D01*
X69117958Y-134063097D01*
X68847549Y-133882415D01*
X68617585Y-133652451D01*
X68436903Y-133382042D01*
X68312447Y-133081579D01*
X68249000Y-132762609D01*
X68249000Y-132437391D01*
X68312447Y-132118421D01*
X68436903Y-131817958D01*
X68617585Y-131547549D01*
X68847549Y-131317585D01*
X69117958Y-131136903D01*
X69418421Y-131012447D01*
X69524744Y-130991298D01*
X69737389Y-130949000D01*
X70062611Y-130949000D01*
X70275256Y-130991298D01*
X70275256Y-130991298D01*
G37*
G36*
X117975256Y-130991298D02*
G01*
X118081579Y-131012447D01*
X118382042Y-131136903D01*
X118652451Y-131317585D01*
X118882415Y-131547549D01*
X119063097Y-131817958D01*
X119187553Y-132118421D01*
X119251000Y-132437391D01*
X119251000Y-132762609D01*
X119187553Y-133081579D01*
X119063097Y-133382042D01*
X118882415Y-133652451D01*
X118652451Y-133882415D01*
X118382042Y-134063097D01*
X118081579Y-134187553D01*
X117975256Y-134208702D01*
X117762611Y-134251000D01*
X117437389Y-134251000D01*
X117224744Y-134208702D01*
X117118421Y-134187553D01*
X116817958Y-134063097D01*
X116547549Y-133882415D01*
X116317585Y-133652451D01*
X116136903Y-133382042D01*
X116012447Y-133081579D01*
X115949000Y-132762609D01*
X115949000Y-132437391D01*
X116012447Y-132118421D01*
X116136903Y-131817958D01*
X116317585Y-131547549D01*
X116547549Y-131317585D01*
X116817958Y-131136903D01*
X117118421Y-131012447D01*
X117224744Y-130991298D01*
X117437389Y-130949000D01*
X117762611Y-130949000D01*
X117975256Y-130991298D01*
X117975256Y-130991298D01*
G37*
G36*
X136829591Y-123003085D02*
G01*
X136863569Y-123013393D01*
X136894890Y-123030134D01*
X136922339Y-123052661D01*
X136944866Y-123080110D01*
X136961607Y-123111431D01*
X136971915Y-123145409D01*
X136976000Y-123186890D01*
X136976000Y-123788110D01*
X136971915Y-123829591D01*
X136961607Y-123863569D01*
X136944866Y-123894890D01*
X136922339Y-123922339D01*
X136894890Y-123944866D01*
X136863569Y-123961607D01*
X136829591Y-123971915D01*
X136788110Y-123976000D01*
X136111890Y-123976000D01*
X136070409Y-123971915D01*
X136036431Y-123961607D01*
X136005110Y-123944866D01*
X135977661Y-123922339D01*
X135955134Y-123894890D01*
X135938393Y-123863569D01*
X135928085Y-123829591D01*
X135924000Y-123788110D01*
X135924000Y-123186890D01*
X135928085Y-123145409D01*
X135938393Y-123111431D01*
X135955134Y-123080110D01*
X135977661Y-123052661D01*
X136005110Y-123030134D01*
X136036431Y-123013393D01*
X136070409Y-123003085D01*
X136111890Y-122999000D01*
X136788110Y-122999000D01*
X136829591Y-123003085D01*
X136829591Y-123003085D01*
G37*
G36*
X95679591Y-123003085D02*
G01*
X95713569Y-123013393D01*
X95744890Y-123030134D01*
X95772339Y-123052661D01*
X95794866Y-123080110D01*
X95811607Y-123111431D01*
X95821915Y-123145409D01*
X95826000Y-123186890D01*
X95826000Y-123788110D01*
X95821915Y-123829591D01*
X95811607Y-123863569D01*
X95794866Y-123894890D01*
X95772339Y-123922339D01*
X95744890Y-123944866D01*
X95713569Y-123961607D01*
X95679591Y-123971915D01*
X95638110Y-123976000D01*
X94961890Y-123976000D01*
X94920409Y-123971915D01*
X94886431Y-123961607D01*
X94855110Y-123944866D01*
X94827661Y-123922339D01*
X94805134Y-123894890D01*
X94788393Y-123863569D01*
X94778085Y-123829591D01*
X94774000Y-123788110D01*
X94774000Y-123186890D01*
X94778085Y-123145409D01*
X94788393Y-123111431D01*
X94805134Y-123080110D01*
X94827661Y-123052661D01*
X94855110Y-123030134D01*
X94886431Y-123013393D01*
X94920409Y-123003085D01*
X94961890Y-122999000D01*
X95638110Y-122999000D01*
X95679591Y-123003085D01*
X95679591Y-123003085D01*
G37*
G36*
X97179591Y-123003085D02*
G01*
X97213569Y-123013393D01*
X97244890Y-123030134D01*
X97272339Y-123052661D01*
X97294866Y-123080110D01*
X97311607Y-123111431D01*
X97321915Y-123145409D01*
X97326000Y-123186890D01*
X97326000Y-123788110D01*
X97321915Y-123829591D01*
X97311607Y-123863569D01*
X97294866Y-123894890D01*
X97272339Y-123922339D01*
X97244890Y-123944866D01*
X97213569Y-123961607D01*
X97179591Y-123971915D01*
X97138110Y-123976000D01*
X96461890Y-123976000D01*
X96420409Y-123971915D01*
X96386431Y-123961607D01*
X96355110Y-123944866D01*
X96327661Y-123922339D01*
X96305134Y-123894890D01*
X96288393Y-123863569D01*
X96278085Y-123829591D01*
X96274000Y-123788110D01*
X96274000Y-123186890D01*
X96278085Y-123145409D01*
X96288393Y-123111431D01*
X96305134Y-123080110D01*
X96327661Y-123052661D01*
X96355110Y-123030134D01*
X96386431Y-123013393D01*
X96420409Y-123003085D01*
X96461890Y-122999000D01*
X97138110Y-122999000D01*
X97179591Y-123003085D01*
X97179591Y-123003085D01*
G37*
G36*
X143379591Y-123003085D02*
G01*
X143413569Y-123013393D01*
X143444890Y-123030134D01*
X143472339Y-123052661D01*
X143494866Y-123080110D01*
X143511607Y-123111431D01*
X143521915Y-123145409D01*
X143526000Y-123186890D01*
X143526000Y-123788110D01*
X143521915Y-123829591D01*
X143511607Y-123863569D01*
X143494866Y-123894890D01*
X143472339Y-123922339D01*
X143444890Y-123944866D01*
X143413569Y-123961607D01*
X143379591Y-123971915D01*
X143338110Y-123976000D01*
X142661890Y-123976000D01*
X142620409Y-123971915D01*
X142586431Y-123961607D01*
X142555110Y-123944866D01*
X142527661Y-123922339D01*
X142505134Y-123894890D01*
X142488393Y-123863569D01*
X142478085Y-123829591D01*
X142474000Y-123788110D01*
X142474000Y-123186890D01*
X142478085Y-123145409D01*
X142488393Y-123111431D01*
X142505134Y-123080110D01*
X142527661Y-123052661D01*
X142555110Y-123030134D01*
X142586431Y-123013393D01*
X142620409Y-123003085D01*
X142661890Y-122999000D01*
X143338110Y-122999000D01*
X143379591Y-123003085D01*
X143379591Y-123003085D01*
G37*
G36*
X138429591Y-123003085D02*
G01*
X138463569Y-123013393D01*
X138494890Y-123030134D01*
X138522339Y-123052661D01*
X138544866Y-123080110D01*
X138561607Y-123111431D01*
X138571915Y-123145409D01*
X138576000Y-123186890D01*
X138576000Y-123788110D01*
X138571915Y-123829591D01*
X138561607Y-123863569D01*
X138544866Y-123894890D01*
X138522339Y-123922339D01*
X138494890Y-123944866D01*
X138463569Y-123961607D01*
X138429591Y-123971915D01*
X138388110Y-123976000D01*
X137711890Y-123976000D01*
X137670409Y-123971915D01*
X137636431Y-123961607D01*
X137605110Y-123944866D01*
X137577661Y-123922339D01*
X137555134Y-123894890D01*
X137538393Y-123863569D01*
X137528085Y-123829591D01*
X137524000Y-123788110D01*
X137524000Y-123186890D01*
X137528085Y-123145409D01*
X137538393Y-123111431D01*
X137555134Y-123080110D01*
X137577661Y-123052661D01*
X137605110Y-123030134D01*
X137636431Y-123013393D01*
X137670409Y-123003085D01*
X137711890Y-122999000D01*
X138388110Y-122999000D01*
X138429591Y-123003085D01*
X138429591Y-123003085D01*
G37*
G36*
X89129591Y-123003085D02*
G01*
X89163569Y-123013393D01*
X89194890Y-123030134D01*
X89222339Y-123052661D01*
X89244866Y-123080110D01*
X89261607Y-123111431D01*
X89271915Y-123145409D01*
X89276000Y-123186890D01*
X89276000Y-123788110D01*
X89271915Y-123829591D01*
X89261607Y-123863569D01*
X89244866Y-123894890D01*
X89222339Y-123922339D01*
X89194890Y-123944866D01*
X89163569Y-123961607D01*
X89129591Y-123971915D01*
X89088110Y-123976000D01*
X88411890Y-123976000D01*
X88370409Y-123971915D01*
X88336431Y-123961607D01*
X88305110Y-123944866D01*
X88277661Y-123922339D01*
X88255134Y-123894890D01*
X88238393Y-123863569D01*
X88228085Y-123829591D01*
X88224000Y-123788110D01*
X88224000Y-123186890D01*
X88228085Y-123145409D01*
X88238393Y-123111431D01*
X88255134Y-123080110D01*
X88277661Y-123052661D01*
X88305110Y-123030134D01*
X88336431Y-123013393D01*
X88370409Y-123003085D01*
X88411890Y-122999000D01*
X89088110Y-122999000D01*
X89129591Y-123003085D01*
X89129591Y-123003085D01*
G37*
G36*
X144879591Y-123003085D02*
G01*
X144913569Y-123013393D01*
X144944890Y-123030134D01*
X144972339Y-123052661D01*
X144994866Y-123080110D01*
X145011607Y-123111431D01*
X145021915Y-123145409D01*
X145026000Y-123186890D01*
X145026000Y-123788110D01*
X145021915Y-123829591D01*
X145011607Y-123863569D01*
X144994866Y-123894890D01*
X144972339Y-123922339D01*
X144944890Y-123944866D01*
X144913569Y-123961607D01*
X144879591Y-123971915D01*
X144838110Y-123976000D01*
X144161890Y-123976000D01*
X144120409Y-123971915D01*
X144086431Y-123961607D01*
X144055110Y-123944866D01*
X144027661Y-123922339D01*
X144005134Y-123894890D01*
X143988393Y-123863569D01*
X143978085Y-123829591D01*
X143974000Y-123788110D01*
X143974000Y-123186890D01*
X143978085Y-123145409D01*
X143988393Y-123111431D01*
X144005134Y-123080110D01*
X144027661Y-123052661D01*
X144055110Y-123030134D01*
X144086431Y-123013393D01*
X144120409Y-123003085D01*
X144161890Y-122999000D01*
X144838110Y-122999000D01*
X144879591Y-123003085D01*
X144879591Y-123003085D01*
G37*
G36*
X90729591Y-123003085D02*
G01*
X90763569Y-123013393D01*
X90794890Y-123030134D01*
X90822339Y-123052661D01*
X90844866Y-123080110D01*
X90861607Y-123111431D01*
X90871915Y-123145409D01*
X90876000Y-123186890D01*
X90876000Y-123788110D01*
X90871915Y-123829591D01*
X90861607Y-123863569D01*
X90844866Y-123894890D01*
X90822339Y-123922339D01*
X90794890Y-123944866D01*
X90763569Y-123961607D01*
X90729591Y-123971915D01*
X90688110Y-123976000D01*
X90011890Y-123976000D01*
X89970409Y-123971915D01*
X89936431Y-123961607D01*
X89905110Y-123944866D01*
X89877661Y-123922339D01*
X89855134Y-123894890D01*
X89838393Y-123863569D01*
X89828085Y-123829591D01*
X89824000Y-123788110D01*
X89824000Y-123186890D01*
X89828085Y-123145409D01*
X89838393Y-123111431D01*
X89855134Y-123080110D01*
X89877661Y-123052661D01*
X89905110Y-123030134D01*
X89936431Y-123013393D01*
X89970409Y-123003085D01*
X90011890Y-122999000D01*
X90688110Y-122999000D01*
X90729591Y-123003085D01*
X90729591Y-123003085D01*
G37*
G36*
X92454591Y-121878085D02*
G01*
X92488569Y-121888393D01*
X92519890Y-121905134D01*
X92547339Y-121927661D01*
X92569866Y-121955110D01*
X92586607Y-121986431D01*
X92596915Y-122020409D01*
X92601000Y-122061890D01*
X92601000Y-122738110D01*
X92596915Y-122779591D01*
X92586607Y-122813569D01*
X92569866Y-122844890D01*
X92547339Y-122872339D01*
X92519890Y-122894866D01*
X92488569Y-122911607D01*
X92454591Y-122921915D01*
X92413110Y-122926000D01*
X91811890Y-122926000D01*
X91770409Y-122921915D01*
X91736431Y-122911607D01*
X91705110Y-122894866D01*
X91677661Y-122872339D01*
X91655134Y-122844890D01*
X91638393Y-122813569D01*
X91628085Y-122779591D01*
X91624000Y-122738110D01*
X91624000Y-122061890D01*
X91628085Y-122020409D01*
X91638393Y-121986431D01*
X91655134Y-121955110D01*
X91677661Y-121927661D01*
X91705110Y-121905134D01*
X91736431Y-121888393D01*
X91770409Y-121878085D01*
X91811890Y-121874000D01*
X92413110Y-121874000D01*
X92454591Y-121878085D01*
X92454591Y-121878085D01*
G37*
G36*
X133729591Y-121878085D02*
G01*
X133763569Y-121888393D01*
X133794890Y-121905134D01*
X133822339Y-121927661D01*
X133844866Y-121955110D01*
X133861607Y-121986431D01*
X133871915Y-122020409D01*
X133876000Y-122061890D01*
X133876000Y-122738110D01*
X133871915Y-122779591D01*
X133861607Y-122813569D01*
X133844866Y-122844890D01*
X133822339Y-122872339D01*
X133794890Y-122894866D01*
X133763569Y-122911607D01*
X133729591Y-122921915D01*
X133688110Y-122926000D01*
X133086890Y-122926000D01*
X133045409Y-122921915D01*
X133011431Y-122911607D01*
X132980110Y-122894866D01*
X132952661Y-122872339D01*
X132930134Y-122844890D01*
X132913393Y-122813569D01*
X132903085Y-122779591D01*
X132899000Y-122738110D01*
X132899000Y-122061890D01*
X132903085Y-122020409D01*
X132913393Y-121986431D01*
X132930134Y-121955110D01*
X132952661Y-121927661D01*
X132980110Y-121905134D01*
X133011431Y-121888393D01*
X133045409Y-121878085D01*
X133086890Y-121874000D01*
X133688110Y-121874000D01*
X133729591Y-121878085D01*
X133729591Y-121878085D01*
G37*
G36*
X140154591Y-121878085D02*
G01*
X140188569Y-121888393D01*
X140219890Y-121905134D01*
X140247339Y-121927661D01*
X140269866Y-121955110D01*
X140286607Y-121986431D01*
X140296915Y-122020409D01*
X140301000Y-122061890D01*
X140301000Y-122738110D01*
X140296915Y-122779591D01*
X140286607Y-122813569D01*
X140269866Y-122844890D01*
X140247339Y-122872339D01*
X140219890Y-122894866D01*
X140188569Y-122911607D01*
X140154591Y-122921915D01*
X140113110Y-122926000D01*
X139511890Y-122926000D01*
X139470409Y-122921915D01*
X139436431Y-122911607D01*
X139405110Y-122894866D01*
X139377661Y-122872339D01*
X139355134Y-122844890D01*
X139338393Y-122813569D01*
X139328085Y-122779591D01*
X139324000Y-122738110D01*
X139324000Y-122061890D01*
X139328085Y-122020409D01*
X139338393Y-121986431D01*
X139355134Y-121955110D01*
X139377661Y-121927661D01*
X139405110Y-121905134D01*
X139436431Y-121888393D01*
X139470409Y-121878085D01*
X139511890Y-121874000D01*
X140113110Y-121874000D01*
X140154591Y-121878085D01*
X140154591Y-121878085D01*
G37*
G36*
X141729591Y-121878085D02*
G01*
X141763569Y-121888393D01*
X141794890Y-121905134D01*
X141822339Y-121927661D01*
X141844866Y-121955110D01*
X141861607Y-121986431D01*
X141871915Y-122020409D01*
X141876000Y-122061890D01*
X141876000Y-122738110D01*
X141871915Y-122779591D01*
X141861607Y-122813569D01*
X141844866Y-122844890D01*
X141822339Y-122872339D01*
X141794890Y-122894866D01*
X141763569Y-122911607D01*
X141729591Y-122921915D01*
X141688110Y-122926000D01*
X141086890Y-122926000D01*
X141045409Y-122921915D01*
X141011431Y-122911607D01*
X140980110Y-122894866D01*
X140952661Y-122872339D01*
X140930134Y-122844890D01*
X140913393Y-122813569D01*
X140903085Y-122779591D01*
X140899000Y-122738110D01*
X140899000Y-122061890D01*
X140903085Y-122020409D01*
X140913393Y-121986431D01*
X140930134Y-121955110D01*
X140952661Y-121927661D01*
X140980110Y-121905134D01*
X141011431Y-121888393D01*
X141045409Y-121878085D01*
X141086890Y-121874000D01*
X141688110Y-121874000D01*
X141729591Y-121878085D01*
X141729591Y-121878085D01*
G37*
G36*
X127654591Y-121878085D02*
G01*
X127688569Y-121888393D01*
X127719890Y-121905134D01*
X127747339Y-121927661D01*
X127769866Y-121955110D01*
X127786607Y-121986431D01*
X127796915Y-122020409D01*
X127801000Y-122061890D01*
X127801000Y-122738110D01*
X127796915Y-122779591D01*
X127786607Y-122813569D01*
X127769866Y-122844890D01*
X127747339Y-122872339D01*
X127719890Y-122894866D01*
X127688569Y-122911607D01*
X127654591Y-122921915D01*
X127613110Y-122926000D01*
X127011890Y-122926000D01*
X126970409Y-122921915D01*
X126936431Y-122911607D01*
X126905110Y-122894866D01*
X126877661Y-122872339D01*
X126855134Y-122844890D01*
X126838393Y-122813569D01*
X126828085Y-122779591D01*
X126824000Y-122738110D01*
X126824000Y-122061890D01*
X126828085Y-122020409D01*
X126838393Y-121986431D01*
X126855134Y-121955110D01*
X126877661Y-121927661D01*
X126905110Y-121905134D01*
X126936431Y-121888393D01*
X126970409Y-121878085D01*
X127011890Y-121874000D01*
X127613110Y-121874000D01*
X127654591Y-121878085D01*
X127654591Y-121878085D01*
G37*
G36*
X126042091Y-121878085D02*
G01*
X126076069Y-121888393D01*
X126107390Y-121905134D01*
X126134839Y-121927661D01*
X126157366Y-121955110D01*
X126174107Y-121986431D01*
X126184415Y-122020409D01*
X126188500Y-122061890D01*
X126188500Y-122738110D01*
X126184415Y-122779591D01*
X126174107Y-122813569D01*
X126157366Y-122844890D01*
X126134839Y-122872339D01*
X126107390Y-122894866D01*
X126076069Y-122911607D01*
X126042091Y-122921915D01*
X126000610Y-122926000D01*
X125399390Y-122926000D01*
X125357909Y-122921915D01*
X125323931Y-122911607D01*
X125292610Y-122894866D01*
X125265161Y-122872339D01*
X125242634Y-122844890D01*
X125225893Y-122813569D01*
X125215585Y-122779591D01*
X125211500Y-122738110D01*
X125211500Y-122061890D01*
X125215585Y-122020409D01*
X125225893Y-121986431D01*
X125242634Y-121955110D01*
X125265161Y-121927661D01*
X125292610Y-121905134D01*
X125323931Y-121888393D01*
X125357909Y-121878085D01*
X125399390Y-121874000D01*
X126000610Y-121874000D01*
X126042091Y-121878085D01*
X126042091Y-121878085D01*
G37*
G36*
X124467091Y-121878085D02*
G01*
X124501069Y-121888393D01*
X124532390Y-121905134D01*
X124559839Y-121927661D01*
X124582366Y-121955110D01*
X124599107Y-121986431D01*
X124609415Y-122020409D01*
X124613500Y-122061890D01*
X124613500Y-122738110D01*
X124609415Y-122779591D01*
X124599107Y-122813569D01*
X124582366Y-122844890D01*
X124559839Y-122872339D01*
X124532390Y-122894866D01*
X124501069Y-122911607D01*
X124467091Y-122921915D01*
X124425610Y-122926000D01*
X123824390Y-122926000D01*
X123782909Y-122921915D01*
X123748931Y-122911607D01*
X123717610Y-122894866D01*
X123690161Y-122872339D01*
X123667634Y-122844890D01*
X123650893Y-122813569D01*
X123640585Y-122779591D01*
X123636500Y-122738110D01*
X123636500Y-122061890D01*
X123640585Y-122020409D01*
X123650893Y-121986431D01*
X123667634Y-121955110D01*
X123690161Y-121927661D01*
X123717610Y-121905134D01*
X123748931Y-121888393D01*
X123782909Y-121878085D01*
X123824390Y-121874000D01*
X124425610Y-121874000D01*
X124467091Y-121878085D01*
X124467091Y-121878085D01*
G37*
G36*
X132154591Y-121878085D02*
G01*
X132188569Y-121888393D01*
X132219890Y-121905134D01*
X132247339Y-121927661D01*
X132269866Y-121955110D01*
X132286607Y-121986431D01*
X132296915Y-122020409D01*
X132301000Y-122061890D01*
X132301000Y-122738110D01*
X132296915Y-122779591D01*
X132286607Y-122813569D01*
X132269866Y-122844890D01*
X132247339Y-122872339D01*
X132219890Y-122894866D01*
X132188569Y-122911607D01*
X132154591Y-122921915D01*
X132113110Y-122926000D01*
X131511890Y-122926000D01*
X131470409Y-122921915D01*
X131436431Y-122911607D01*
X131405110Y-122894866D01*
X131377661Y-122872339D01*
X131355134Y-122844890D01*
X131338393Y-122813569D01*
X131328085Y-122779591D01*
X131324000Y-122738110D01*
X131324000Y-122061890D01*
X131328085Y-122020409D01*
X131338393Y-121986431D01*
X131355134Y-121955110D01*
X131377661Y-121927661D01*
X131405110Y-121905134D01*
X131436431Y-121888393D01*
X131470409Y-121878085D01*
X131511890Y-121874000D01*
X132113110Y-121874000D01*
X132154591Y-121878085D01*
X132154591Y-121878085D01*
G37*
G36*
X86029591Y-121878085D02*
G01*
X86063569Y-121888393D01*
X86094890Y-121905134D01*
X86122339Y-121927661D01*
X86144866Y-121955110D01*
X86161607Y-121986431D01*
X86171915Y-122020409D01*
X86176000Y-122061890D01*
X86176000Y-122738110D01*
X86171915Y-122779591D01*
X86161607Y-122813569D01*
X86144866Y-122844890D01*
X86122339Y-122872339D01*
X86094890Y-122894866D01*
X86063569Y-122911607D01*
X86029591Y-122921915D01*
X85988110Y-122926000D01*
X85386890Y-122926000D01*
X85345409Y-122921915D01*
X85311431Y-122911607D01*
X85280110Y-122894866D01*
X85252661Y-122872339D01*
X85230134Y-122844890D01*
X85213393Y-122813569D01*
X85203085Y-122779591D01*
X85199000Y-122738110D01*
X85199000Y-122061890D01*
X85203085Y-122020409D01*
X85213393Y-121986431D01*
X85230134Y-121955110D01*
X85252661Y-121927661D01*
X85280110Y-121905134D01*
X85311431Y-121888393D01*
X85345409Y-121878085D01*
X85386890Y-121874000D01*
X85988110Y-121874000D01*
X86029591Y-121878085D01*
X86029591Y-121878085D01*
G37*
G36*
X84454591Y-121878085D02*
G01*
X84488569Y-121888393D01*
X84519890Y-121905134D01*
X84547339Y-121927661D01*
X84569866Y-121955110D01*
X84586607Y-121986431D01*
X84596915Y-122020409D01*
X84601000Y-122061890D01*
X84601000Y-122738110D01*
X84596915Y-122779591D01*
X84586607Y-122813569D01*
X84569866Y-122844890D01*
X84547339Y-122872339D01*
X84519890Y-122894866D01*
X84488569Y-122911607D01*
X84454591Y-122921915D01*
X84413110Y-122926000D01*
X83811890Y-122926000D01*
X83770409Y-122921915D01*
X83736431Y-122911607D01*
X83705110Y-122894866D01*
X83677661Y-122872339D01*
X83655134Y-122844890D01*
X83638393Y-122813569D01*
X83628085Y-122779591D01*
X83624000Y-122738110D01*
X83624000Y-122061890D01*
X83628085Y-122020409D01*
X83638393Y-121986431D01*
X83655134Y-121955110D01*
X83677661Y-121927661D01*
X83705110Y-121905134D01*
X83736431Y-121888393D01*
X83770409Y-121878085D01*
X83811890Y-121874000D01*
X84413110Y-121874000D01*
X84454591Y-121878085D01*
X84454591Y-121878085D01*
G37*
G36*
X81529591Y-121878085D02*
G01*
X81563569Y-121888393D01*
X81594890Y-121905134D01*
X81622339Y-121927661D01*
X81644866Y-121955110D01*
X81661607Y-121986431D01*
X81671915Y-122020409D01*
X81676000Y-122061890D01*
X81676000Y-122738110D01*
X81671915Y-122779591D01*
X81661607Y-122813569D01*
X81644866Y-122844890D01*
X81622339Y-122872339D01*
X81594890Y-122894866D01*
X81563569Y-122911607D01*
X81529591Y-122921915D01*
X81488110Y-122926000D01*
X80886890Y-122926000D01*
X80845409Y-122921915D01*
X80811431Y-122911607D01*
X80780110Y-122894866D01*
X80752661Y-122872339D01*
X80730134Y-122844890D01*
X80713393Y-122813569D01*
X80703085Y-122779591D01*
X80699000Y-122738110D01*
X80699000Y-122061890D01*
X80703085Y-122020409D01*
X80713393Y-121986431D01*
X80730134Y-121955110D01*
X80752661Y-121927661D01*
X80780110Y-121905134D01*
X80811431Y-121888393D01*
X80845409Y-121878085D01*
X80886890Y-121874000D01*
X81488110Y-121874000D01*
X81529591Y-121878085D01*
X81529591Y-121878085D01*
G37*
G36*
X79954591Y-121878085D02*
G01*
X79988569Y-121888393D01*
X80019890Y-121905134D01*
X80047339Y-121927661D01*
X80069866Y-121955110D01*
X80086607Y-121986431D01*
X80096915Y-122020409D01*
X80101000Y-122061890D01*
X80101000Y-122738110D01*
X80096915Y-122779591D01*
X80086607Y-122813569D01*
X80069866Y-122844890D01*
X80047339Y-122872339D01*
X80019890Y-122894866D01*
X79988569Y-122911607D01*
X79954591Y-122921915D01*
X79913110Y-122926000D01*
X79311890Y-122926000D01*
X79270409Y-122921915D01*
X79236431Y-122911607D01*
X79205110Y-122894866D01*
X79177661Y-122872339D01*
X79155134Y-122844890D01*
X79138393Y-122813569D01*
X79128085Y-122779591D01*
X79124000Y-122738110D01*
X79124000Y-122061890D01*
X79128085Y-122020409D01*
X79138393Y-121986431D01*
X79155134Y-121955110D01*
X79177661Y-121927661D01*
X79205110Y-121905134D01*
X79236431Y-121888393D01*
X79270409Y-121878085D01*
X79311890Y-121874000D01*
X79913110Y-121874000D01*
X79954591Y-121878085D01*
X79954591Y-121878085D01*
G37*
G36*
X78342091Y-121878085D02*
G01*
X78376069Y-121888393D01*
X78407390Y-121905134D01*
X78434839Y-121927661D01*
X78457366Y-121955110D01*
X78474107Y-121986431D01*
X78484415Y-122020409D01*
X78488500Y-122061890D01*
X78488500Y-122738110D01*
X78484415Y-122779591D01*
X78474107Y-122813569D01*
X78457366Y-122844890D01*
X78434839Y-122872339D01*
X78407390Y-122894866D01*
X78376069Y-122911607D01*
X78342091Y-122921915D01*
X78300610Y-122926000D01*
X77699390Y-122926000D01*
X77657909Y-122921915D01*
X77623931Y-122911607D01*
X77592610Y-122894866D01*
X77565161Y-122872339D01*
X77542634Y-122844890D01*
X77525893Y-122813569D01*
X77515585Y-122779591D01*
X77511500Y-122738110D01*
X77511500Y-122061890D01*
X77515585Y-122020409D01*
X77525893Y-121986431D01*
X77542634Y-121955110D01*
X77565161Y-121927661D01*
X77592610Y-121905134D01*
X77623931Y-121888393D01*
X77657909Y-121878085D01*
X77699390Y-121874000D01*
X78300610Y-121874000D01*
X78342091Y-121878085D01*
X78342091Y-121878085D01*
G37*
G36*
X76767091Y-121878085D02*
G01*
X76801069Y-121888393D01*
X76832390Y-121905134D01*
X76859839Y-121927661D01*
X76882366Y-121955110D01*
X76899107Y-121986431D01*
X76909415Y-122020409D01*
X76913500Y-122061890D01*
X76913500Y-122738110D01*
X76909415Y-122779591D01*
X76899107Y-122813569D01*
X76882366Y-122844890D01*
X76859839Y-122872339D01*
X76832390Y-122894866D01*
X76801069Y-122911607D01*
X76767091Y-122921915D01*
X76725610Y-122926000D01*
X76124390Y-122926000D01*
X76082909Y-122921915D01*
X76048931Y-122911607D01*
X76017610Y-122894866D01*
X75990161Y-122872339D01*
X75967634Y-122844890D01*
X75950893Y-122813569D01*
X75940585Y-122779591D01*
X75936500Y-122738110D01*
X75936500Y-122061890D01*
X75940585Y-122020409D01*
X75950893Y-121986431D01*
X75967634Y-121955110D01*
X75990161Y-121927661D01*
X76017610Y-121905134D01*
X76048931Y-121888393D01*
X76082909Y-121878085D01*
X76124390Y-121874000D01*
X76725610Y-121874000D01*
X76767091Y-121878085D01*
X76767091Y-121878085D01*
G37*
G36*
X129229591Y-121878085D02*
G01*
X129263569Y-121888393D01*
X129294890Y-121905134D01*
X129322339Y-121927661D01*
X129344866Y-121955110D01*
X129361607Y-121986431D01*
X129371915Y-122020409D01*
X129376000Y-122061890D01*
X129376000Y-122738110D01*
X129371915Y-122779591D01*
X129361607Y-122813569D01*
X129344866Y-122844890D01*
X129322339Y-122872339D01*
X129294890Y-122894866D01*
X129263569Y-122911607D01*
X129229591Y-122921915D01*
X129188110Y-122926000D01*
X128586890Y-122926000D01*
X128545409Y-122921915D01*
X128511431Y-122911607D01*
X128480110Y-122894866D01*
X128452661Y-122872339D01*
X128430134Y-122844890D01*
X128413393Y-122813569D01*
X128403085Y-122779591D01*
X128399000Y-122738110D01*
X128399000Y-122061890D01*
X128403085Y-122020409D01*
X128413393Y-121986431D01*
X128430134Y-121955110D01*
X128452661Y-121927661D01*
X128480110Y-121905134D01*
X128511431Y-121888393D01*
X128545409Y-121878085D01*
X128586890Y-121874000D01*
X129188110Y-121874000D01*
X129229591Y-121878085D01*
X129229591Y-121878085D01*
G37*
G36*
X94029591Y-121878085D02*
G01*
X94063569Y-121888393D01*
X94094890Y-121905134D01*
X94122339Y-121927661D01*
X94144866Y-121955110D01*
X94161607Y-121986431D01*
X94171915Y-122020409D01*
X94176000Y-122061890D01*
X94176000Y-122738110D01*
X94171915Y-122779591D01*
X94161607Y-122813569D01*
X94144866Y-122844890D01*
X94122339Y-122872339D01*
X94094890Y-122894866D01*
X94063569Y-122911607D01*
X94029591Y-122921915D01*
X93988110Y-122926000D01*
X93386890Y-122926000D01*
X93345409Y-122921915D01*
X93311431Y-122911607D01*
X93280110Y-122894866D01*
X93252661Y-122872339D01*
X93230134Y-122844890D01*
X93213393Y-122813569D01*
X93203085Y-122779591D01*
X93199000Y-122738110D01*
X93199000Y-122061890D01*
X93203085Y-122020409D01*
X93213393Y-121986431D01*
X93230134Y-121955110D01*
X93252661Y-121927661D01*
X93280110Y-121905134D01*
X93311431Y-121888393D01*
X93345409Y-121878085D01*
X93386890Y-121874000D01*
X93988110Y-121874000D01*
X94029591Y-121878085D01*
X94029591Y-121878085D01*
G37*
G36*
X144879591Y-121428085D02*
G01*
X144913569Y-121438393D01*
X144944890Y-121455134D01*
X144972339Y-121477661D01*
X144994866Y-121505110D01*
X145011607Y-121536431D01*
X145021915Y-121570409D01*
X145026000Y-121611890D01*
X145026000Y-122213110D01*
X145021915Y-122254591D01*
X145011607Y-122288569D01*
X144994866Y-122319890D01*
X144972339Y-122347339D01*
X144944890Y-122369866D01*
X144913569Y-122386607D01*
X144879591Y-122396915D01*
X144838110Y-122401000D01*
X144161890Y-122401000D01*
X144120409Y-122396915D01*
X144086431Y-122386607D01*
X144055110Y-122369866D01*
X144027661Y-122347339D01*
X144005134Y-122319890D01*
X143988393Y-122288569D01*
X143978085Y-122254591D01*
X143974000Y-122213110D01*
X143974000Y-121611890D01*
X143978085Y-121570409D01*
X143988393Y-121536431D01*
X144005134Y-121505110D01*
X144027661Y-121477661D01*
X144055110Y-121455134D01*
X144086431Y-121438393D01*
X144120409Y-121428085D01*
X144161890Y-121424000D01*
X144838110Y-121424000D01*
X144879591Y-121428085D01*
X144879591Y-121428085D01*
G37*
G36*
X138429591Y-121428085D02*
G01*
X138463569Y-121438393D01*
X138494890Y-121455134D01*
X138522339Y-121477661D01*
X138544866Y-121505110D01*
X138561607Y-121536431D01*
X138571915Y-121570409D01*
X138576000Y-121611890D01*
X138576000Y-122213110D01*
X138571915Y-122254591D01*
X138561607Y-122288569D01*
X138544866Y-122319890D01*
X138522339Y-122347339D01*
X138494890Y-122369866D01*
X138463569Y-122386607D01*
X138429591Y-122396915D01*
X138388110Y-122401000D01*
X137711890Y-122401000D01*
X137670409Y-122396915D01*
X137636431Y-122386607D01*
X137605110Y-122369866D01*
X137577661Y-122347339D01*
X137555134Y-122319890D01*
X137538393Y-122288569D01*
X137528085Y-122254591D01*
X137524000Y-122213110D01*
X137524000Y-121611890D01*
X137528085Y-121570409D01*
X137538393Y-121536431D01*
X137555134Y-121505110D01*
X137577661Y-121477661D01*
X137605110Y-121455134D01*
X137636431Y-121438393D01*
X137670409Y-121428085D01*
X137711890Y-121424000D01*
X138388110Y-121424000D01*
X138429591Y-121428085D01*
X138429591Y-121428085D01*
G37*
G36*
X136829591Y-121428085D02*
G01*
X136863569Y-121438393D01*
X136894890Y-121455134D01*
X136922339Y-121477661D01*
X136944866Y-121505110D01*
X136961607Y-121536431D01*
X136971915Y-121570409D01*
X136976000Y-121611890D01*
X136976000Y-122213110D01*
X136971915Y-122254591D01*
X136961607Y-122288569D01*
X136944866Y-122319890D01*
X136922339Y-122347339D01*
X136894890Y-122369866D01*
X136863569Y-122386607D01*
X136829591Y-122396915D01*
X136788110Y-122401000D01*
X136111890Y-122401000D01*
X136070409Y-122396915D01*
X136036431Y-122386607D01*
X136005110Y-122369866D01*
X135977661Y-122347339D01*
X135955134Y-122319890D01*
X135938393Y-122288569D01*
X135928085Y-122254591D01*
X135924000Y-122213110D01*
X135924000Y-121611890D01*
X135928085Y-121570409D01*
X135938393Y-121536431D01*
X135955134Y-121505110D01*
X135977661Y-121477661D01*
X136005110Y-121455134D01*
X136036431Y-121438393D01*
X136070409Y-121428085D01*
X136111890Y-121424000D01*
X136788110Y-121424000D01*
X136829591Y-121428085D01*
X136829591Y-121428085D01*
G37*
G36*
X143379591Y-121428085D02*
G01*
X143413569Y-121438393D01*
X143444890Y-121455134D01*
X143472339Y-121477661D01*
X143494866Y-121505110D01*
X143511607Y-121536431D01*
X143521915Y-121570409D01*
X143526000Y-121611890D01*
X143526000Y-122213110D01*
X143521915Y-122254591D01*
X143511607Y-122288569D01*
X143494866Y-122319890D01*
X143472339Y-122347339D01*
X143444890Y-122369866D01*
X143413569Y-122386607D01*
X143379591Y-122396915D01*
X143338110Y-122401000D01*
X142661890Y-122401000D01*
X142620409Y-122396915D01*
X142586431Y-122386607D01*
X142555110Y-122369866D01*
X142527661Y-122347339D01*
X142505134Y-122319890D01*
X142488393Y-122288569D01*
X142478085Y-122254591D01*
X142474000Y-122213110D01*
X142474000Y-121611890D01*
X142478085Y-121570409D01*
X142488393Y-121536431D01*
X142505134Y-121505110D01*
X142527661Y-121477661D01*
X142555110Y-121455134D01*
X142586431Y-121438393D01*
X142620409Y-121428085D01*
X142661890Y-121424000D01*
X143338110Y-121424000D01*
X143379591Y-121428085D01*
X143379591Y-121428085D01*
G37*
G36*
X95679591Y-121428085D02*
G01*
X95713569Y-121438393D01*
X95744890Y-121455134D01*
X95772339Y-121477661D01*
X95794866Y-121505110D01*
X95811607Y-121536431D01*
X95821915Y-121570409D01*
X95826000Y-121611890D01*
X95826000Y-122213110D01*
X95821915Y-122254591D01*
X95811607Y-122288569D01*
X95794866Y-122319890D01*
X95772339Y-122347339D01*
X95744890Y-122369866D01*
X95713569Y-122386607D01*
X95679591Y-122396915D01*
X95638110Y-122401000D01*
X94961890Y-122401000D01*
X94920409Y-122396915D01*
X94886431Y-122386607D01*
X94855110Y-122369866D01*
X94827661Y-122347339D01*
X94805134Y-122319890D01*
X94788393Y-122288569D01*
X94778085Y-122254591D01*
X94774000Y-122213110D01*
X94774000Y-121611890D01*
X94778085Y-121570409D01*
X94788393Y-121536431D01*
X94805134Y-121505110D01*
X94827661Y-121477661D01*
X94855110Y-121455134D01*
X94886431Y-121438393D01*
X94920409Y-121428085D01*
X94961890Y-121424000D01*
X95638110Y-121424000D01*
X95679591Y-121428085D01*
X95679591Y-121428085D01*
G37*
G36*
X97179591Y-121428085D02*
G01*
X97213569Y-121438393D01*
X97244890Y-121455134D01*
X97272339Y-121477661D01*
X97294866Y-121505110D01*
X97311607Y-121536431D01*
X97321915Y-121570409D01*
X97326000Y-121611890D01*
X97326000Y-122213110D01*
X97321915Y-122254591D01*
X97311607Y-122288569D01*
X97294866Y-122319890D01*
X97272339Y-122347339D01*
X97244890Y-122369866D01*
X97213569Y-122386607D01*
X97179591Y-122396915D01*
X97138110Y-122401000D01*
X96461890Y-122401000D01*
X96420409Y-122396915D01*
X96386431Y-122386607D01*
X96355110Y-122369866D01*
X96327661Y-122347339D01*
X96305134Y-122319890D01*
X96288393Y-122288569D01*
X96278085Y-122254591D01*
X96274000Y-122213110D01*
X96274000Y-121611890D01*
X96278085Y-121570409D01*
X96288393Y-121536431D01*
X96305134Y-121505110D01*
X96327661Y-121477661D01*
X96355110Y-121455134D01*
X96386431Y-121438393D01*
X96420409Y-121428085D01*
X96461890Y-121424000D01*
X97138110Y-121424000D01*
X97179591Y-121428085D01*
X97179591Y-121428085D01*
G37*
G36*
X90729591Y-121428085D02*
G01*
X90763569Y-121438393D01*
X90794890Y-121455134D01*
X90822339Y-121477661D01*
X90844866Y-121505110D01*
X90861607Y-121536431D01*
X90871915Y-121570409D01*
X90876000Y-121611890D01*
X90876000Y-122213110D01*
X90871915Y-122254591D01*
X90861607Y-122288569D01*
X90844866Y-122319890D01*
X90822339Y-122347339D01*
X90794890Y-122369866D01*
X90763569Y-122386607D01*
X90729591Y-122396915D01*
X90688110Y-122401000D01*
X90011890Y-122401000D01*
X89970409Y-122396915D01*
X89936431Y-122386607D01*
X89905110Y-122369866D01*
X89877661Y-122347339D01*
X89855134Y-122319890D01*
X89838393Y-122288569D01*
X89828085Y-122254591D01*
X89824000Y-122213110D01*
X89824000Y-121611890D01*
X89828085Y-121570409D01*
X89838393Y-121536431D01*
X89855134Y-121505110D01*
X89877661Y-121477661D01*
X89905110Y-121455134D01*
X89936431Y-121438393D01*
X89970409Y-121428085D01*
X90011890Y-121424000D01*
X90688110Y-121424000D01*
X90729591Y-121428085D01*
X90729591Y-121428085D01*
G37*
G36*
X89129591Y-121428085D02*
G01*
X89163569Y-121438393D01*
X89194890Y-121455134D01*
X89222339Y-121477661D01*
X89244866Y-121505110D01*
X89261607Y-121536431D01*
X89271915Y-121570409D01*
X89276000Y-121611890D01*
X89276000Y-122213110D01*
X89271915Y-122254591D01*
X89261607Y-122288569D01*
X89244866Y-122319890D01*
X89222339Y-122347339D01*
X89194890Y-122369866D01*
X89163569Y-122386607D01*
X89129591Y-122396915D01*
X89088110Y-122401000D01*
X88411890Y-122401000D01*
X88370409Y-122396915D01*
X88336431Y-122386607D01*
X88305110Y-122369866D01*
X88277661Y-122347339D01*
X88255134Y-122319890D01*
X88238393Y-122288569D01*
X88228085Y-122254591D01*
X88224000Y-122213110D01*
X88224000Y-121611890D01*
X88228085Y-121570409D01*
X88238393Y-121536431D01*
X88255134Y-121505110D01*
X88277661Y-121477661D01*
X88305110Y-121455134D01*
X88336431Y-121438393D01*
X88370409Y-121428085D01*
X88411890Y-121424000D01*
X89088110Y-121424000D01*
X89129591Y-121428085D01*
X89129591Y-121428085D01*
G37*
G36*
X145351000Y-120951000D02*
G01*
X124549000Y-120951000D01*
X124549000Y-118849000D01*
X145351000Y-118849000D01*
X145351000Y-120951000D01*
X145351000Y-120951000D01*
G37*
G36*
X97651000Y-120951000D02*
G01*
X76849000Y-120951000D01*
X76849000Y-118849000D01*
X97651000Y-118849000D01*
X97651000Y-120951000D01*
X97651000Y-120951000D01*
G37*
G36*
X148051000Y-118906000D02*
G01*
X146649000Y-118906000D01*
X146649000Y-117254000D01*
X148051000Y-117254000D01*
X148051000Y-118906000D01*
X148051000Y-118906000D01*
G37*
G36*
X152551000Y-118906000D02*
G01*
X151149000Y-118906000D01*
X151149000Y-117254000D01*
X152551000Y-117254000D01*
X152551000Y-118906000D01*
X152551000Y-118906000D01*
G37*
G36*
X104851000Y-118906000D02*
G01*
X103449000Y-118906000D01*
X103449000Y-117254000D01*
X104851000Y-117254000D01*
X104851000Y-118906000D01*
X104851000Y-118906000D01*
G37*
G36*
X100351000Y-118906000D02*
G01*
X98949000Y-118906000D01*
X98949000Y-117254000D01*
X100351000Y-117254000D01*
X100351000Y-118906000D01*
X100351000Y-118906000D01*
G37*
G36*
X71026000Y-118881000D02*
G01*
X69624000Y-118881000D01*
X69624000Y-117229000D01*
X71026000Y-117229000D01*
X71026000Y-118881000D01*
X71026000Y-118881000D01*
G37*
G36*
X75526000Y-118881000D02*
G01*
X74124000Y-118881000D01*
X74124000Y-117229000D01*
X75526000Y-117229000D01*
X75526000Y-118881000D01*
X75526000Y-118881000D01*
G37*
G36*
X118726000Y-118881000D02*
G01*
X117324000Y-118881000D01*
X117324000Y-117229000D01*
X118726000Y-117229000D01*
X118726000Y-118881000D01*
X118726000Y-118881000D01*
G37*
G36*
X123226000Y-118881000D02*
G01*
X121824000Y-118881000D01*
X121824000Y-117229000D01*
X123226000Y-117229000D01*
X123226000Y-118881000D01*
X123226000Y-118881000D01*
G37*
G36*
X67747221Y-113759867D02*
G01*
X67888785Y-113802810D01*
X68019251Y-113872546D01*
X68069415Y-113913714D01*
X68133607Y-113966394D01*
X68190784Y-114036066D01*
X68227454Y-114080748D01*
X68297190Y-114211214D01*
X68340133Y-114352778D01*
X68351000Y-114463113D01*
X68351000Y-117136887D01*
X68340133Y-117247222D01*
X68297190Y-117388786D01*
X68227454Y-117519252D01*
X68203008Y-117549040D01*
X68133607Y-117633607D01*
X68049040Y-117703008D01*
X68019252Y-117727454D01*
X67888786Y-117797190D01*
X67747222Y-117840133D01*
X67600000Y-117854633D01*
X67452779Y-117840133D01*
X67311215Y-117797190D01*
X67180749Y-117727454D01*
X67150961Y-117703008D01*
X67066394Y-117633607D01*
X66996993Y-117549040D01*
X66972547Y-117519252D01*
X66902811Y-117388786D01*
X66859868Y-117247222D01*
X66849001Y-117136887D01*
X66849000Y-114463114D01*
X66859867Y-114352779D01*
X66902810Y-114211215D01*
X66972546Y-114080749D01*
X67013714Y-114030585D01*
X67066394Y-113966393D01*
X67136066Y-113909216D01*
X67180748Y-113872546D01*
X67311214Y-113802810D01*
X67452778Y-113759867D01*
X67600000Y-113745367D01*
X67747221Y-113759867D01*
X67747221Y-113759867D01*
G37*
G36*
X155047222Y-113759867D02*
G01*
X155188786Y-113802810D01*
X155319252Y-113872546D01*
X155349040Y-113896992D01*
X155433607Y-113966393D01*
X155503008Y-114050960D01*
X155527454Y-114080748D01*
X155597190Y-114211214D01*
X155640133Y-114352778D01*
X155651000Y-114463113D01*
X155651000Y-117136887D01*
X155640133Y-117247222D01*
X155597190Y-117388786D01*
X155527454Y-117519252D01*
X155490784Y-117563934D01*
X155433607Y-117633606D01*
X155369415Y-117686286D01*
X155319251Y-117727454D01*
X155188785Y-117797190D01*
X155047221Y-117840133D01*
X154900000Y-117854633D01*
X154752778Y-117840133D01*
X154611214Y-117797190D01*
X154480748Y-117727454D01*
X154436066Y-117690784D01*
X154366394Y-117633607D01*
X154272547Y-117519252D01*
X154272546Y-117519251D01*
X154202810Y-117388785D01*
X154159867Y-117247221D01*
X154149000Y-117136886D01*
X154149001Y-114463113D01*
X154159868Y-114352778D01*
X154202811Y-114211214D01*
X154272547Y-114080748D01*
X154296993Y-114050960D01*
X154366394Y-113966393D01*
X154450961Y-113896992D01*
X154480749Y-113872546D01*
X154611215Y-113802810D01*
X154752779Y-113759867D01*
X154900000Y-113745367D01*
X155047222Y-113759867D01*
X155047222Y-113759867D01*
G37*
G36*
X115447221Y-113759867D02*
G01*
X115588785Y-113802810D01*
X115719251Y-113872546D01*
X115769415Y-113913714D01*
X115833607Y-113966394D01*
X115890784Y-114036066D01*
X115927454Y-114080748D01*
X115997190Y-114211214D01*
X116040133Y-114352778D01*
X116051000Y-114463113D01*
X116051000Y-117136887D01*
X116040133Y-117247222D01*
X115997190Y-117388786D01*
X115927454Y-117519252D01*
X115903008Y-117549040D01*
X115833607Y-117633607D01*
X115749040Y-117703008D01*
X115719252Y-117727454D01*
X115588786Y-117797190D01*
X115447222Y-117840133D01*
X115300000Y-117854633D01*
X115152779Y-117840133D01*
X115011215Y-117797190D01*
X114880749Y-117727454D01*
X114850961Y-117703008D01*
X114766394Y-117633607D01*
X114696993Y-117549040D01*
X114672547Y-117519252D01*
X114602811Y-117388786D01*
X114559868Y-117247222D01*
X114549001Y-117136887D01*
X114549000Y-114463114D01*
X114559867Y-114352779D01*
X114602810Y-114211215D01*
X114672546Y-114080749D01*
X114713714Y-114030585D01*
X114766394Y-113966393D01*
X114836066Y-113909216D01*
X114880748Y-113872546D01*
X115011214Y-113802810D01*
X115152778Y-113759867D01*
X115300000Y-113745367D01*
X115447221Y-113759867D01*
X115447221Y-113759867D01*
G37*
G36*
X107347222Y-113759867D02*
G01*
X107488786Y-113802810D01*
X107619252Y-113872546D01*
X107649040Y-113896992D01*
X107733607Y-113966393D01*
X107803008Y-114050960D01*
X107827454Y-114080748D01*
X107897190Y-114211214D01*
X107940133Y-114352778D01*
X107951000Y-114463113D01*
X107951000Y-117136887D01*
X107940133Y-117247222D01*
X107897190Y-117388786D01*
X107827454Y-117519252D01*
X107790784Y-117563934D01*
X107733607Y-117633606D01*
X107669415Y-117686286D01*
X107619251Y-117727454D01*
X107488785Y-117797190D01*
X107347221Y-117840133D01*
X107200000Y-117854633D01*
X107052778Y-117840133D01*
X106911214Y-117797190D01*
X106780748Y-117727454D01*
X106736066Y-117690784D01*
X106666394Y-117633607D01*
X106572547Y-117519252D01*
X106572546Y-117519251D01*
X106502810Y-117388785D01*
X106459867Y-117247221D01*
X106449000Y-117136886D01*
X106449001Y-114463113D01*
X106459868Y-114352778D01*
X106502811Y-114211214D01*
X106572547Y-114080748D01*
X106596993Y-114050960D01*
X106666394Y-113966393D01*
X106750961Y-113896992D01*
X106780749Y-113872546D01*
X106911215Y-113802810D01*
X107052779Y-113759867D01*
X107200000Y-113745367D01*
X107347222Y-113759867D01*
X107347222Y-113759867D01*
G37*
G36*
X104851000Y-110946000D02*
G01*
X103449000Y-110946000D01*
X103449000Y-109294000D01*
X104851000Y-109294000D01*
X104851000Y-110946000D01*
X104851000Y-110946000D01*
G37*
G36*
X100351000Y-110946000D02*
G01*
X98949000Y-110946000D01*
X98949000Y-109294000D01*
X100351000Y-109294000D01*
X100351000Y-110946000D01*
X100351000Y-110946000D01*
G37*
G36*
X152551000Y-110946000D02*
G01*
X151149000Y-110946000D01*
X151149000Y-109294000D01*
X152551000Y-109294000D01*
X152551000Y-110946000D01*
X152551000Y-110946000D01*
G37*
G36*
X148051000Y-110946000D02*
G01*
X146649000Y-110946000D01*
X146649000Y-109294000D01*
X148051000Y-109294000D01*
X148051000Y-110946000D01*
X148051000Y-110946000D01*
G37*
G36*
X123226000Y-110921000D02*
G01*
X121824000Y-110921000D01*
X121824000Y-109269000D01*
X123226000Y-109269000D01*
X123226000Y-110921000D01*
X123226000Y-110921000D01*
G37*
G36*
X118726000Y-110921000D02*
G01*
X117324000Y-110921000D01*
X117324000Y-109269000D01*
X118726000Y-109269000D01*
X118726000Y-110921000D01*
X118726000Y-110921000D01*
G37*
G36*
X71026000Y-110921000D02*
G01*
X69624000Y-110921000D01*
X69624000Y-109269000D01*
X71026000Y-109269000D01*
X71026000Y-110921000D01*
X71026000Y-110921000D01*
G37*
G36*
X75526000Y-110921000D02*
G01*
X74124000Y-110921000D01*
X74124000Y-109269000D01*
X75526000Y-109269000D01*
X75526000Y-110921000D01*
X75526000Y-110921000D01*
G37*
G36*
X154451000Y-107251000D02*
G01*
X152549000Y-107251000D01*
X152549000Y-105349000D01*
X154451000Y-105349000D01*
X154451000Y-107251000D01*
X154451000Y-107251000D01*
G37*
G36*
X117451000Y-107251000D02*
G01*
X115549000Y-107251000D01*
X115549000Y-105349000D01*
X117451000Y-105349000D01*
X117451000Y-107251000D01*
X117451000Y-107251000D01*
G37*
G36*
X106751000Y-107251000D02*
G01*
X104849000Y-107251000D01*
X104849000Y-105349000D01*
X106751000Y-105349000D01*
X106751000Y-107251000D01*
X106751000Y-107251000D01*
G37*
G36*
X69751000Y-107251000D02*
G01*
X67849000Y-107251000D01*
X67849000Y-105349000D01*
X69751000Y-105349000D01*
X69751000Y-107251000D01*
X69751000Y-107251000D01*
G37*
G36*
X116777395Y-102845546D02*
G01*
X116950466Y-102917234D01*
X116950467Y-102917235D01*
X117106227Y-103021310D01*
X117238690Y-103153773D01*
X117238691Y-103153775D01*
X117342766Y-103309534D01*
X117414454Y-103482605D01*
X117451000Y-103666333D01*
X117451000Y-103853667D01*
X117414454Y-104037395D01*
X117342766Y-104210466D01*
X117342765Y-104210467D01*
X117238690Y-104366227D01*
X117106227Y-104498690D01*
X117027818Y-104551081D01*
X116950466Y-104602766D01*
X116777395Y-104674454D01*
X116593667Y-104711000D01*
X116406333Y-104711000D01*
X116222605Y-104674454D01*
X116049534Y-104602766D01*
X115972182Y-104551081D01*
X115893773Y-104498690D01*
X115761310Y-104366227D01*
X115657235Y-104210467D01*
X115657234Y-104210466D01*
X115585546Y-104037395D01*
X115549000Y-103853667D01*
X115549000Y-103666333D01*
X115585546Y-103482605D01*
X115657234Y-103309534D01*
X115761309Y-103153775D01*
X115761310Y-103153773D01*
X115893773Y-103021310D01*
X116049533Y-102917235D01*
X116049534Y-102917234D01*
X116222605Y-102845546D01*
X116406333Y-102809000D01*
X116593667Y-102809000D01*
X116777395Y-102845546D01*
X116777395Y-102845546D01*
G37*
G36*
X153777395Y-102845546D02*
G01*
X153950466Y-102917234D01*
X153950467Y-102917235D01*
X154106227Y-103021310D01*
X154238690Y-103153773D01*
X154238691Y-103153775D01*
X154342766Y-103309534D01*
X154414454Y-103482605D01*
X154451000Y-103666333D01*
X154451000Y-103853667D01*
X154414454Y-104037395D01*
X154342766Y-104210466D01*
X154342765Y-104210467D01*
X154238690Y-104366227D01*
X154106227Y-104498690D01*
X154027818Y-104551081D01*
X153950466Y-104602766D01*
X153777395Y-104674454D01*
X153593667Y-104711000D01*
X153406333Y-104711000D01*
X153222605Y-104674454D01*
X153049534Y-104602766D01*
X152972182Y-104551081D01*
X152893773Y-104498690D01*
X152761310Y-104366227D01*
X152657235Y-104210467D01*
X152657234Y-104210466D01*
X152585546Y-104037395D01*
X152549000Y-103853667D01*
X152549000Y-103666333D01*
X152585546Y-103482605D01*
X152657234Y-103309534D01*
X152761309Y-103153775D01*
X152761310Y-103153773D01*
X152893773Y-103021310D01*
X153049533Y-102917235D01*
X153049534Y-102917234D01*
X153222605Y-102845546D01*
X153406333Y-102809000D01*
X153593667Y-102809000D01*
X153777395Y-102845546D01*
X153777395Y-102845546D01*
G37*
G36*
X69077395Y-102845546D02*
G01*
X69250466Y-102917234D01*
X69250467Y-102917235D01*
X69406227Y-103021310D01*
X69538690Y-103153773D01*
X69538691Y-103153775D01*
X69642766Y-103309534D01*
X69714454Y-103482605D01*
X69751000Y-103666333D01*
X69751000Y-103853667D01*
X69714454Y-104037395D01*
X69642766Y-104210466D01*
X69642765Y-104210467D01*
X69538690Y-104366227D01*
X69406227Y-104498690D01*
X69327818Y-104551081D01*
X69250466Y-104602766D01*
X69077395Y-104674454D01*
X68893667Y-104711000D01*
X68706333Y-104711000D01*
X68522605Y-104674454D01*
X68349534Y-104602766D01*
X68272182Y-104551081D01*
X68193773Y-104498690D01*
X68061310Y-104366227D01*
X67957235Y-104210467D01*
X67957234Y-104210466D01*
X67885546Y-104037395D01*
X67849000Y-103853667D01*
X67849000Y-103666333D01*
X67885546Y-103482605D01*
X67957234Y-103309534D01*
X68061309Y-103153775D01*
X68061310Y-103153773D01*
X68193773Y-103021310D01*
X68349533Y-102917235D01*
X68349534Y-102917234D01*
X68522605Y-102845546D01*
X68706333Y-102809000D01*
X68893667Y-102809000D01*
X69077395Y-102845546D01*
X69077395Y-102845546D01*
G37*
G36*
X106077395Y-102845546D02*
G01*
X106250466Y-102917234D01*
X106250467Y-102917235D01*
X106406227Y-103021310D01*
X106538690Y-103153773D01*
X106538691Y-103153775D01*
X106642766Y-103309534D01*
X106714454Y-103482605D01*
X106751000Y-103666333D01*
X106751000Y-103853667D01*
X106714454Y-104037395D01*
X106642766Y-104210466D01*
X106642765Y-104210467D01*
X106538690Y-104366227D01*
X106406227Y-104498690D01*
X106327818Y-104551081D01*
X106250466Y-104602766D01*
X106077395Y-104674454D01*
X105893667Y-104711000D01*
X105706333Y-104711000D01*
X105522605Y-104674454D01*
X105349534Y-104602766D01*
X105272182Y-104551081D01*
X105193773Y-104498690D01*
X105061310Y-104366227D01*
X104957235Y-104210467D01*
X104957234Y-104210466D01*
X104885546Y-104037395D01*
X104849000Y-103853667D01*
X104849000Y-103666333D01*
X104885546Y-103482605D01*
X104957234Y-103309534D01*
X105061309Y-103153775D01*
X105061310Y-103153773D01*
X105193773Y-103021310D01*
X105349533Y-102917235D01*
X105349534Y-102917234D01*
X105522605Y-102845546D01*
X105706333Y-102809000D01*
X105893667Y-102809000D01*
X106077395Y-102845546D01*
X106077395Y-102845546D01*
G37*
G36*
X106861213Y-99082502D02*
G01*
X106932321Y-99089505D01*
X107069172Y-99131019D01*
X107069175Y-99131020D01*
X107195294Y-99198432D01*
X107305843Y-99289157D01*
X107396568Y-99399706D01*
X107463980Y-99525825D01*
X107463981Y-99525828D01*
X107505495Y-99662679D01*
X107519512Y-99805000D01*
X107505495Y-99947321D01*
X107490385Y-99997130D01*
X107463980Y-100084175D01*
X107396568Y-100210294D01*
X107305843Y-100320843D01*
X107195294Y-100411568D01*
X107069175Y-100478980D01*
X107069172Y-100478981D01*
X106932321Y-100520495D01*
X106861213Y-100527498D01*
X106825660Y-100531000D01*
X106404340Y-100531000D01*
X106368787Y-100527498D01*
X106297679Y-100520495D01*
X106160828Y-100478981D01*
X106160825Y-100478980D01*
X106034706Y-100411568D01*
X105924157Y-100320843D01*
X105833432Y-100210294D01*
X105766020Y-100084175D01*
X105739615Y-99997130D01*
X105724505Y-99947321D01*
X105710488Y-99805000D01*
X105724505Y-99662679D01*
X105766019Y-99525828D01*
X105766020Y-99525825D01*
X105833432Y-99399706D01*
X105924157Y-99289157D01*
X106034706Y-99198432D01*
X106160825Y-99131020D01*
X106160828Y-99131019D01*
X106297679Y-99089505D01*
X106368787Y-99082502D01*
X106404340Y-99079000D01*
X106825660Y-99079000D01*
X106861213Y-99082502D01*
X106861213Y-99082502D01*
G37*
G36*
X154561213Y-99082502D02*
G01*
X154632321Y-99089505D01*
X154769172Y-99131019D01*
X154769175Y-99131020D01*
X154895294Y-99198432D01*
X155005843Y-99289157D01*
X155096568Y-99399706D01*
X155163980Y-99525825D01*
X155163981Y-99525828D01*
X155205495Y-99662679D01*
X155219512Y-99805000D01*
X155205495Y-99947321D01*
X155190385Y-99997130D01*
X155163980Y-100084175D01*
X155096568Y-100210294D01*
X155005843Y-100320843D01*
X154895294Y-100411568D01*
X154769175Y-100478980D01*
X154769172Y-100478981D01*
X154632321Y-100520495D01*
X154561213Y-100527498D01*
X154525660Y-100531000D01*
X154104340Y-100531000D01*
X154068787Y-100527498D01*
X153997679Y-100520495D01*
X153860828Y-100478981D01*
X153860825Y-100478980D01*
X153734706Y-100411568D01*
X153624157Y-100320843D01*
X153533432Y-100210294D01*
X153466020Y-100084175D01*
X153439615Y-99997130D01*
X153424505Y-99947321D01*
X153410488Y-99805000D01*
X153424505Y-99662679D01*
X153466019Y-99525828D01*
X153466020Y-99525825D01*
X153533432Y-99399706D01*
X153624157Y-99289157D01*
X153734706Y-99198432D01*
X153860825Y-99131020D01*
X153860828Y-99131019D01*
X153997679Y-99089505D01*
X154068787Y-99082502D01*
X154104340Y-99079000D01*
X154525660Y-99079000D01*
X154561213Y-99082502D01*
X154561213Y-99082502D01*
G37*
G36*
X103932818Y-98902696D02*
G01*
X104046105Y-98937062D01*
X104150512Y-98992869D01*
X104242027Y-99067973D01*
X104317131Y-99159488D01*
X104372938Y-99263895D01*
X104407304Y-99377182D01*
X104418907Y-99495000D01*
X104407304Y-99612818D01*
X104372938Y-99726105D01*
X104317131Y-99830512D01*
X104242027Y-99922027D01*
X104150512Y-99997131D01*
X104046105Y-100052938D01*
X103932818Y-100087304D01*
X103844519Y-100096000D01*
X103385481Y-100096000D01*
X103297182Y-100087304D01*
X103183895Y-100052938D01*
X103079488Y-99997131D01*
X102987973Y-99922027D01*
X102912869Y-99830512D01*
X102857062Y-99726105D01*
X102822696Y-99612818D01*
X102811093Y-99495000D01*
X102822696Y-99377182D01*
X102857062Y-99263895D01*
X102912869Y-99159488D01*
X102987973Y-99067973D01*
X103079488Y-98992869D01*
X103183895Y-98937062D01*
X103297182Y-98902696D01*
X103385481Y-98894000D01*
X103844519Y-98894000D01*
X103932818Y-98902696D01*
X103932818Y-98902696D01*
G37*
G36*
X151632818Y-98902696D02*
G01*
X151746105Y-98937062D01*
X151850512Y-98992869D01*
X151942027Y-99067973D01*
X152017131Y-99159488D01*
X152072938Y-99263895D01*
X152107304Y-99377182D01*
X152118907Y-99495000D01*
X152107304Y-99612818D01*
X152072938Y-99726105D01*
X152017131Y-99830512D01*
X151942027Y-99922027D01*
X151850512Y-99997131D01*
X151746105Y-100052938D01*
X151632818Y-100087304D01*
X151544519Y-100096000D01*
X151085481Y-100096000D01*
X150997182Y-100087304D01*
X150883895Y-100052938D01*
X150779488Y-99997131D01*
X150687973Y-99922027D01*
X150612869Y-99830512D01*
X150557062Y-99726105D01*
X150522696Y-99612818D01*
X150511093Y-99495000D01*
X150522696Y-99377182D01*
X150557062Y-99263895D01*
X150612869Y-99159488D01*
X150687973Y-99067973D01*
X150779488Y-98992869D01*
X150883895Y-98937062D01*
X150997182Y-98902696D01*
X151085481Y-98894000D01*
X151544519Y-98894000D01*
X151632818Y-98902696D01*
X151632818Y-98902696D01*
G37*
G36*
X103932818Y-94062696D02*
G01*
X104046105Y-94097062D01*
X104150512Y-94152869D01*
X104242027Y-94227973D01*
X104317131Y-94319488D01*
X104372938Y-94423895D01*
X104407304Y-94537182D01*
X104418907Y-94655000D01*
X104407304Y-94772818D01*
X104372938Y-94886105D01*
X104317131Y-94990512D01*
X104242027Y-95082027D01*
X104150512Y-95157131D01*
X104046105Y-95212938D01*
X103932818Y-95247304D01*
X103844519Y-95256000D01*
X103385481Y-95256000D01*
X103297182Y-95247304D01*
X103183895Y-95212938D01*
X103079488Y-95157131D01*
X102987973Y-95082027D01*
X102912869Y-94990512D01*
X102857062Y-94886105D01*
X102822696Y-94772818D01*
X102811093Y-94655000D01*
X102822696Y-94537182D01*
X102857062Y-94423895D01*
X102912869Y-94319488D01*
X102987973Y-94227973D01*
X103079488Y-94152869D01*
X103183895Y-94097062D01*
X103297182Y-94062696D01*
X103385481Y-94054000D01*
X103844519Y-94054000D01*
X103932818Y-94062696D01*
X103932818Y-94062696D01*
G37*
G36*
X151632818Y-94062696D02*
G01*
X151746105Y-94097062D01*
X151850512Y-94152869D01*
X151942027Y-94227973D01*
X152017131Y-94319488D01*
X152072938Y-94423895D01*
X152107304Y-94537182D01*
X152118907Y-94655000D01*
X152107304Y-94772818D01*
X152072938Y-94886105D01*
X152017131Y-94990512D01*
X151942027Y-95082027D01*
X151850512Y-95157131D01*
X151746105Y-95212938D01*
X151632818Y-95247304D01*
X151544519Y-95256000D01*
X151085481Y-95256000D01*
X150997182Y-95247304D01*
X150883895Y-95212938D01*
X150779488Y-95157131D01*
X150687973Y-95082027D01*
X150612869Y-94990512D01*
X150557062Y-94886105D01*
X150522696Y-94772818D01*
X150511093Y-94655000D01*
X150522696Y-94537182D01*
X150557062Y-94423895D01*
X150612869Y-94319488D01*
X150687973Y-94227973D01*
X150779488Y-94152869D01*
X150883895Y-94097062D01*
X150997182Y-94062696D01*
X151085481Y-94054000D01*
X151544519Y-94054000D01*
X151632818Y-94062696D01*
X151632818Y-94062696D01*
G37*
G36*
X154561213Y-93622502D02*
G01*
X154632321Y-93629505D01*
X154769172Y-93671019D01*
X154769175Y-93671020D01*
X154895294Y-93738432D01*
X155005843Y-93829157D01*
X155096568Y-93939706D01*
X155163980Y-94065825D01*
X155163981Y-94065828D01*
X155205495Y-94202679D01*
X155219512Y-94345000D01*
X155205495Y-94487321D01*
X155190369Y-94537184D01*
X155163980Y-94624175D01*
X155096568Y-94750294D01*
X155005843Y-94860843D01*
X154895294Y-94951568D01*
X154769175Y-95018980D01*
X154769172Y-95018981D01*
X154632321Y-95060495D01*
X154561213Y-95067498D01*
X154525660Y-95071000D01*
X154104340Y-95071000D01*
X154068787Y-95067498D01*
X153997679Y-95060495D01*
X153860828Y-95018981D01*
X153860825Y-95018980D01*
X153734706Y-94951568D01*
X153624157Y-94860843D01*
X153533432Y-94750294D01*
X153466020Y-94624175D01*
X153439631Y-94537184D01*
X153424505Y-94487321D01*
X153410488Y-94345000D01*
X153424505Y-94202679D01*
X153466019Y-94065828D01*
X153466020Y-94065825D01*
X153533432Y-93939706D01*
X153624157Y-93829157D01*
X153734706Y-93738432D01*
X153860825Y-93671020D01*
X153860828Y-93671019D01*
X153997679Y-93629505D01*
X154068787Y-93622502D01*
X154104340Y-93619000D01*
X154525660Y-93619000D01*
X154561213Y-93622502D01*
X154561213Y-93622502D01*
G37*
G36*
X106861213Y-93622502D02*
G01*
X106932321Y-93629505D01*
X107069172Y-93671019D01*
X107069175Y-93671020D01*
X107195294Y-93738432D01*
X107305843Y-93829157D01*
X107396568Y-93939706D01*
X107463980Y-94065825D01*
X107463981Y-94065828D01*
X107505495Y-94202679D01*
X107519512Y-94345000D01*
X107505495Y-94487321D01*
X107490369Y-94537184D01*
X107463980Y-94624175D01*
X107396568Y-94750294D01*
X107305843Y-94860843D01*
X107195294Y-94951568D01*
X107069175Y-95018980D01*
X107069172Y-95018981D01*
X106932321Y-95060495D01*
X106861213Y-95067498D01*
X106825660Y-95071000D01*
X106404340Y-95071000D01*
X106368787Y-95067498D01*
X106297679Y-95060495D01*
X106160828Y-95018981D01*
X106160825Y-95018980D01*
X106034706Y-94951568D01*
X105924157Y-94860843D01*
X105833432Y-94750294D01*
X105766020Y-94624175D01*
X105739631Y-94537184D01*
X105724505Y-94487321D01*
X105710488Y-94345000D01*
X105724505Y-94202679D01*
X105766019Y-94065828D01*
X105766020Y-94065825D01*
X105833432Y-93939706D01*
X105924157Y-93829157D01*
X106034706Y-93738432D01*
X106160825Y-93671020D01*
X106160828Y-93671019D01*
X106297679Y-93629505D01*
X106368787Y-93622502D01*
X106404340Y-93619000D01*
X106825660Y-93619000D01*
X106861213Y-93622502D01*
X106861213Y-93622502D01*
G37*
G36*
X101843015Y-89056973D02*
G01*
X101946879Y-89088479D01*
X101974055Y-89103005D01*
X102042600Y-89139643D01*
X102126501Y-89208499D01*
X102195357Y-89292400D01*
X102206662Y-89313551D01*
X102246521Y-89388121D01*
X102250388Y-89400869D01*
X102259760Y-89423496D01*
X102273374Y-89443870D01*
X102290701Y-89461197D01*
X102311075Y-89474811D01*
X102333714Y-89484188D01*
X102357747Y-89488969D01*
X102382251Y-89488969D01*
X102406285Y-89484189D01*
X102428924Y-89474812D01*
X102449298Y-89461198D01*
X102466625Y-89443871D01*
X102480239Y-89423497D01*
X102489612Y-89400869D01*
X102493479Y-89388121D01*
X102533338Y-89313551D01*
X102544643Y-89292400D01*
X102613499Y-89208499D01*
X102697400Y-89139643D01*
X102765945Y-89103005D01*
X102793121Y-89088479D01*
X102896985Y-89056973D01*
X102977933Y-89049000D01*
X103032067Y-89049000D01*
X103113015Y-89056973D01*
X103216879Y-89088479D01*
X103244055Y-89103005D01*
X103312600Y-89139643D01*
X103396501Y-89208499D01*
X103465356Y-89292400D01*
X103488764Y-89336193D01*
X103502375Y-89356563D01*
X103519702Y-89373890D01*
X103540076Y-89387504D01*
X103562715Y-89396881D01*
X103586748Y-89401662D01*
X103611252Y-89401662D01*
X103635286Y-89396882D01*
X103657924Y-89387505D01*
X103678299Y-89373891D01*
X103695626Y-89356564D01*
X103709240Y-89336190D01*
X103718617Y-89313551D01*
X103723398Y-89289518D01*
X103724000Y-89277265D01*
X103724000Y-89049000D01*
X104826000Y-89049000D01*
X104826000Y-90151000D01*
X103724000Y-90151000D01*
X103724000Y-89922735D01*
X103721598Y-89898349D01*
X103714485Y-89874900D01*
X103702934Y-89853289D01*
X103687389Y-89834347D01*
X103668447Y-89818802D01*
X103646836Y-89807251D01*
X103623387Y-89800138D01*
X103599001Y-89797736D01*
X103574615Y-89800138D01*
X103551166Y-89807251D01*
X103529555Y-89818802D01*
X103510613Y-89834347D01*
X103495068Y-89853289D01*
X103488767Y-89863802D01*
X103465356Y-89907600D01*
X103465355Y-89907601D01*
X103396501Y-89991501D01*
X103312600Y-90060357D01*
X103244055Y-90096995D01*
X103216879Y-90111521D01*
X103113015Y-90143027D01*
X103032067Y-90151000D01*
X102977933Y-90151000D01*
X102896985Y-90143027D01*
X102793121Y-90111521D01*
X102765945Y-90096995D01*
X102697400Y-90060357D01*
X102613499Y-89991501D01*
X102544643Y-89907600D01*
X102505489Y-89834347D01*
X102493479Y-89811879D01*
X102489612Y-89799131D01*
X102480240Y-89776504D01*
X102466626Y-89756130D01*
X102449299Y-89738803D01*
X102428925Y-89725189D01*
X102406286Y-89715812D01*
X102382253Y-89711031D01*
X102357749Y-89711031D01*
X102333715Y-89715811D01*
X102311076Y-89725188D01*
X102290702Y-89738802D01*
X102273375Y-89756129D01*
X102259761Y-89776503D01*
X102250388Y-89799131D01*
X102246521Y-89811879D01*
X102234511Y-89834347D01*
X102195357Y-89907600D01*
X102126501Y-89991501D01*
X102042600Y-90060357D01*
X101974055Y-90096995D01*
X101946879Y-90111521D01*
X101843015Y-90143027D01*
X101762067Y-90151000D01*
X101707933Y-90151000D01*
X101626985Y-90143027D01*
X101523121Y-90111521D01*
X101495945Y-90096995D01*
X101427400Y-90060357D01*
X101343499Y-89991501D01*
X101274643Y-89907600D01*
X101235489Y-89834347D01*
X101223479Y-89811879D01*
X101191973Y-89708015D01*
X101181334Y-89600000D01*
X101191973Y-89491985D01*
X101223479Y-89388121D01*
X101263338Y-89313551D01*
X101274643Y-89292400D01*
X101343499Y-89208499D01*
X101427400Y-89139643D01*
X101495945Y-89103005D01*
X101523121Y-89088479D01*
X101626985Y-89056973D01*
X101707933Y-89049000D01*
X101762067Y-89049000D01*
X101843015Y-89056973D01*
X101843015Y-89056973D01*
G37*
G36*
X149543015Y-89056973D02*
G01*
X149646879Y-89088479D01*
X149674055Y-89103005D01*
X149742600Y-89139643D01*
X149826501Y-89208499D01*
X149895357Y-89292400D01*
X149906662Y-89313551D01*
X149946521Y-89388121D01*
X149950388Y-89400869D01*
X149959760Y-89423496D01*
X149973374Y-89443870D01*
X149990701Y-89461197D01*
X150011075Y-89474811D01*
X150033714Y-89484188D01*
X150057747Y-89488969D01*
X150082251Y-89488969D01*
X150106285Y-89484189D01*
X150128924Y-89474812D01*
X150149298Y-89461198D01*
X150166625Y-89443871D01*
X150180239Y-89423497D01*
X150189612Y-89400869D01*
X150193479Y-89388121D01*
X150233338Y-89313551D01*
X150244643Y-89292400D01*
X150313499Y-89208499D01*
X150397400Y-89139643D01*
X150465945Y-89103005D01*
X150493121Y-89088479D01*
X150596985Y-89056973D01*
X150677933Y-89049000D01*
X150732067Y-89049000D01*
X150813015Y-89056973D01*
X150916879Y-89088479D01*
X150944055Y-89103005D01*
X151012600Y-89139643D01*
X151096501Y-89208499D01*
X151165356Y-89292400D01*
X151188764Y-89336193D01*
X151202375Y-89356563D01*
X151219702Y-89373890D01*
X151240076Y-89387504D01*
X151262715Y-89396881D01*
X151286748Y-89401662D01*
X151311252Y-89401662D01*
X151335286Y-89396882D01*
X151357924Y-89387505D01*
X151378299Y-89373891D01*
X151395626Y-89356564D01*
X151409240Y-89336190D01*
X151418617Y-89313551D01*
X151423398Y-89289518D01*
X151424000Y-89277265D01*
X151424000Y-89049000D01*
X152526000Y-89049000D01*
X152526000Y-90151000D01*
X151424000Y-90151000D01*
X151424000Y-89922735D01*
X151421598Y-89898349D01*
X151414485Y-89874900D01*
X151402934Y-89853289D01*
X151387389Y-89834347D01*
X151368447Y-89818802D01*
X151346836Y-89807251D01*
X151323387Y-89800138D01*
X151299001Y-89797736D01*
X151274615Y-89800138D01*
X151251166Y-89807251D01*
X151229555Y-89818802D01*
X151210613Y-89834347D01*
X151195068Y-89853289D01*
X151188767Y-89863802D01*
X151165356Y-89907600D01*
X151165355Y-89907601D01*
X151096501Y-89991501D01*
X151012600Y-90060357D01*
X150944055Y-90096995D01*
X150916879Y-90111521D01*
X150813015Y-90143027D01*
X150732067Y-90151000D01*
X150677933Y-90151000D01*
X150596985Y-90143027D01*
X150493121Y-90111521D01*
X150465945Y-90096995D01*
X150397400Y-90060357D01*
X150313499Y-89991501D01*
X150244643Y-89907600D01*
X150205489Y-89834347D01*
X150193479Y-89811879D01*
X150189612Y-89799131D01*
X150180240Y-89776504D01*
X150166626Y-89756130D01*
X150149299Y-89738803D01*
X150128925Y-89725189D01*
X150106286Y-89715812D01*
X150082253Y-89711031D01*
X150057749Y-89711031D01*
X150033715Y-89715811D01*
X150011076Y-89725188D01*
X149990702Y-89738802D01*
X149973375Y-89756129D01*
X149959761Y-89776503D01*
X149950388Y-89799131D01*
X149946521Y-89811879D01*
X149934511Y-89834347D01*
X149895357Y-89907600D01*
X149826501Y-89991501D01*
X149742600Y-90060357D01*
X149674055Y-90096995D01*
X149646879Y-90111521D01*
X149543015Y-90143027D01*
X149462067Y-90151000D01*
X149407933Y-90151000D01*
X149326985Y-90143027D01*
X149223121Y-90111521D01*
X149195945Y-90096995D01*
X149127400Y-90060357D01*
X149043499Y-89991501D01*
X148974643Y-89907600D01*
X148935489Y-89834347D01*
X148923479Y-89811879D01*
X148891973Y-89708015D01*
X148881334Y-89600000D01*
X148891973Y-89491985D01*
X148923479Y-89388121D01*
X148963338Y-89313551D01*
X148974643Y-89292400D01*
X149043499Y-89208499D01*
X149127400Y-89139643D01*
X149195945Y-89103005D01*
X149223121Y-89088479D01*
X149326985Y-89056973D01*
X149407933Y-89049000D01*
X149462067Y-89049000D01*
X149543015Y-89056973D01*
X149543015Y-89056973D01*
G37*
G36*
X87006564Y-83439389D02*
G01*
X87197833Y-83518615D01*
X87197835Y-83518616D01*
X87369973Y-83633635D01*
X87516365Y-83780027D01*
X87631385Y-83952167D01*
X87710611Y-84143436D01*
X87751000Y-84346484D01*
X87751000Y-84553516D01*
X87710611Y-84756564D01*
X87631385Y-84947833D01*
X87631384Y-84947835D01*
X87516365Y-85119973D01*
X87369973Y-85266365D01*
X87197835Y-85381384D01*
X87197834Y-85381385D01*
X87197833Y-85381385D01*
X87006564Y-85460611D01*
X86803516Y-85501000D01*
X86596484Y-85501000D01*
X86393436Y-85460611D01*
X86202167Y-85381385D01*
X86202166Y-85381385D01*
X86202165Y-85381384D01*
X86030027Y-85266365D01*
X85883635Y-85119973D01*
X85768616Y-84947835D01*
X85768615Y-84947833D01*
X85689389Y-84756564D01*
X85649000Y-84553516D01*
X85649000Y-84346484D01*
X85689389Y-84143436D01*
X85768615Y-83952167D01*
X85883635Y-83780027D01*
X86030027Y-83633635D01*
X86202165Y-83518616D01*
X86202167Y-83518615D01*
X86393436Y-83439389D01*
X86596484Y-83399000D01*
X86803516Y-83399000D01*
X87006564Y-83439389D01*
X87006564Y-83439389D01*
G37*
G36*
X134706564Y-83439389D02*
G01*
X134897833Y-83518615D01*
X134897835Y-83518616D01*
X135069973Y-83633635D01*
X135216365Y-83780027D01*
X135331385Y-83952167D01*
X135410611Y-84143436D01*
X135451000Y-84346484D01*
X135451000Y-84553516D01*
X135410611Y-84756564D01*
X135331385Y-84947833D01*
X135331384Y-84947835D01*
X135216365Y-85119973D01*
X135069973Y-85266365D01*
X134897835Y-85381384D01*
X134897834Y-85381385D01*
X134897833Y-85381385D01*
X134706564Y-85460611D01*
X134503516Y-85501000D01*
X134296484Y-85501000D01*
X134093436Y-85460611D01*
X133902167Y-85381385D01*
X133902166Y-85381385D01*
X133902165Y-85381384D01*
X133730027Y-85266365D01*
X133583635Y-85119973D01*
X133468616Y-84947835D01*
X133468615Y-84947833D01*
X133389389Y-84756564D01*
X133349000Y-84553516D01*
X133349000Y-84346484D01*
X133389389Y-84143436D01*
X133468615Y-83952167D01*
X133583635Y-83780027D01*
X133730027Y-83633635D01*
X133902165Y-83518616D01*
X133902167Y-83518615D01*
X134093436Y-83439389D01*
X134296484Y-83399000D01*
X134503516Y-83399000D01*
X134706564Y-83439389D01*
X134706564Y-83439389D01*
G37*
G36*
X105275256Y-79391298D02*
G01*
X105381579Y-79412447D01*
X105682042Y-79536903D01*
X105952451Y-79717585D01*
X106182415Y-79947549D01*
X106363097Y-80217958D01*
X106487553Y-80518421D01*
X106551000Y-80837391D01*
X106551000Y-81162609D01*
X106487553Y-81481579D01*
X106363097Y-81782042D01*
X106182415Y-82052451D01*
X105952451Y-82282415D01*
X105682042Y-82463097D01*
X105381579Y-82587553D01*
X105275256Y-82608702D01*
X105062611Y-82651000D01*
X104737389Y-82651000D01*
X104524744Y-82608702D01*
X104418421Y-82587553D01*
X104117958Y-82463097D01*
X103847549Y-82282415D01*
X103617585Y-82052451D01*
X103436903Y-81782042D01*
X103312447Y-81481579D01*
X103249000Y-81162609D01*
X103249000Y-80837391D01*
X103312447Y-80518421D01*
X103436903Y-80217958D01*
X103617585Y-79947549D01*
X103847549Y-79717585D01*
X104117958Y-79536903D01*
X104418421Y-79412447D01*
X104524744Y-79391298D01*
X104737389Y-79349000D01*
X105062611Y-79349000D01*
X105275256Y-79391298D01*
X105275256Y-79391298D01*
G37*
G36*
X70275256Y-79391298D02*
G01*
X70381579Y-79412447D01*
X70682042Y-79536903D01*
X70952451Y-79717585D01*
X71182415Y-79947549D01*
X71363097Y-80217958D01*
X71487553Y-80518421D01*
X71551000Y-80837391D01*
X71551000Y-81162609D01*
X71487553Y-81481579D01*
X71363097Y-81782042D01*
X71182415Y-82052451D01*
X70952451Y-82282415D01*
X70682042Y-82463097D01*
X70381579Y-82587553D01*
X70275256Y-82608702D01*
X70062611Y-82651000D01*
X69737389Y-82651000D01*
X69524744Y-82608702D01*
X69418421Y-82587553D01*
X69117958Y-82463097D01*
X68847549Y-82282415D01*
X68617585Y-82052451D01*
X68436903Y-81782042D01*
X68312447Y-81481579D01*
X68249000Y-81162609D01*
X68249000Y-80837391D01*
X68312447Y-80518421D01*
X68436903Y-80217958D01*
X68617585Y-79947549D01*
X68847549Y-79717585D01*
X69117958Y-79536903D01*
X69418421Y-79412447D01*
X69524744Y-79391298D01*
X69737389Y-79349000D01*
X70062611Y-79349000D01*
X70275256Y-79391298D01*
X70275256Y-79391298D01*
G37*
G36*
X117975256Y-79391298D02*
G01*
X118081579Y-79412447D01*
X118382042Y-79536903D01*
X118652451Y-79717585D01*
X118882415Y-79947549D01*
X119063097Y-80217958D01*
X119187553Y-80518421D01*
X119251000Y-80837391D01*
X119251000Y-81162609D01*
X119187553Y-81481579D01*
X119063097Y-81782042D01*
X118882415Y-82052451D01*
X118652451Y-82282415D01*
X118382042Y-82463097D01*
X118081579Y-82587553D01*
X117975256Y-82608702D01*
X117762611Y-82651000D01*
X117437389Y-82651000D01*
X117224744Y-82608702D01*
X117118421Y-82587553D01*
X116817958Y-82463097D01*
X116547549Y-82282415D01*
X116317585Y-82052451D01*
X116136903Y-81782042D01*
X116012447Y-81481579D01*
X115949000Y-81162609D01*
X115949000Y-80837391D01*
X116012447Y-80518421D01*
X116136903Y-80217958D01*
X116317585Y-79947549D01*
X116547549Y-79717585D01*
X116817958Y-79536903D01*
X117118421Y-79412447D01*
X117224744Y-79391298D01*
X117437389Y-79349000D01*
X117762611Y-79349000D01*
X117975256Y-79391298D01*
X117975256Y-79391298D01*
G37*
G36*
X152975256Y-79391298D02*
G01*
X153081579Y-79412447D01*
X153382042Y-79536903D01*
X153652451Y-79717585D01*
X153882415Y-79947549D01*
X154063097Y-80217958D01*
X154187553Y-80518421D01*
X154251000Y-80837391D01*
X154251000Y-81162609D01*
X154187553Y-81481579D01*
X154063097Y-81782042D01*
X153882415Y-82052451D01*
X153652451Y-82282415D01*
X153382042Y-82463097D01*
X153081579Y-82587553D01*
X152975256Y-82608702D01*
X152762611Y-82651000D01*
X152437389Y-82651000D01*
X152224744Y-82608702D01*
X152118421Y-82587553D01*
X151817958Y-82463097D01*
X151547549Y-82282415D01*
X151317585Y-82052451D01*
X151136903Y-81782042D01*
X151012447Y-81481579D01*
X150949000Y-81162609D01*
X150949000Y-80837391D01*
X151012447Y-80518421D01*
X151136903Y-80217958D01*
X151317585Y-79947549D01*
X151547549Y-79717585D01*
X151817958Y-79536903D01*
X152118421Y-79412447D01*
X152224744Y-79391298D01*
X152437389Y-79349000D01*
X152762611Y-79349000D01*
X152975256Y-79391298D01*
X152975256Y-79391298D01*
G37*
M02*
