G04 #@! TF.GenerationSoftware,KiCad,Pcbnew,5.1.4*
G04 #@! TF.CreationDate,2019-09-20T10:22:23+02:00*
G04 #@! TF.ProjectId,panel,70616e65-6c2e-46b6-9963-61645f706362,0.1*
G04 #@! TF.SameCoordinates,Original*
G04 #@! TF.FileFunction,Profile,NP*
%FSLAX46Y46*%
G04 Gerber Fmt 4.6, Leading zero omitted, Abs format (unit mm)*
G04 Created by KiCad (PCBNEW 5.1.4) date 2019-09-20 10:22:23*
%MOMM*%
%LPD*%
G04 APERTURE LIST*
%ADD10C,0.050000*%
G04 APERTURE END LIST*
D10*
X103400000Y-124100000D02*
X71400000Y-124100000D01*
X151100000Y-124100000D02*
X119100000Y-124100000D01*
X119100000Y-129100000D02*
X151100000Y-129100000D01*
X71400000Y-129100000D02*
X103400000Y-129100000D01*
X114100000Y-119100000D02*
X114100000Y-82500000D01*
X108400000Y-82500000D02*
X108400000Y-119100000D01*
X114100000Y-134100000D02*
X114100000Y-170700000D01*
X108400000Y-170700000D02*
X108400000Y-134100000D01*
X151100000Y-129100000D02*
X151100000Y-124100000D01*
X156100000Y-124100000D02*
X156100000Y-129100000D01*
X119100000Y-129100000D02*
X119100000Y-124100000D01*
X114100000Y-129100000D02*
X114100000Y-124100000D01*
X103400000Y-129100000D02*
X103400000Y-124100000D01*
X108400000Y-124100000D02*
X108400000Y-129100000D01*
X71400000Y-124100000D02*
X71400000Y-129100000D01*
X66400000Y-124100000D02*
X66400000Y-129100000D01*
X108400000Y-175700000D02*
X114100000Y-175700000D01*
X114100000Y-170700000D02*
X108400000Y-170700000D01*
X66400000Y-175700000D02*
X108400000Y-175700000D01*
X156100000Y-175700000D02*
X156100000Y-129100000D01*
X114100000Y-175700000D02*
X156100000Y-175700000D01*
X114100000Y-134100000D02*
X108400000Y-134100000D01*
X108400000Y-129100000D02*
X114100000Y-129100000D01*
X66400000Y-129100000D02*
X66400000Y-175700000D01*
X114100000Y-119100000D02*
X108400000Y-119100000D01*
X108400000Y-124100000D02*
X114100000Y-124100000D01*
X114100000Y-82500000D02*
X108400000Y-82500000D01*
X108400000Y-77500000D02*
X114100000Y-77500000D01*
X156100000Y-124100000D02*
X156100000Y-77500000D01*
X156100000Y-77500000D02*
X114100000Y-77500000D01*
X66400000Y-77500000D02*
X66400000Y-124100000D01*
X108400000Y-77500000D02*
X66400000Y-77500000D01*
M02*
